<?xml version="1.0" encoding="utf-8"?>
<!-- Generator: Adobe Illustrator 16.0.0, SVG Export Plug-In . SVG Version: 6.00 Build 0)  -->
<!DOCTYPE svg PUBLIC "-//W3C//DTD SVG 1.1//EN" "http://www.w3.org/Graphics/SVG/1.1/DTD/svg11.dtd">
<svg version="1.1" id="Layer_1" xmlns="http://www.w3.org/2000/svg" xmlns:xlink="http://www.w3.org/1999/xlink" x="0px" y="0px"
	 width="24px" height="5.325px" viewBox="0 9.337 24 5.325" enable-background="new 0 9.337 24 5.325" xml:space="preserve">
<title>Asset 1</title>
<path fill="#FFFFFF" d="M9.703,9.539h1.335c0.305,0,0.45,0.146,0.45,0.45v0.257c0,0.242-0.046,0.38-0.268,0.424
	c0.238,0.023,0.291,0.215,0.291,0.423v0.311c0,0.304-0.146,0.45-0.449,0.45H9.703V9.539z M10.81,10.445
	c0.046,0,0.06-0.013,0.06-0.059v-0.304c0-0.046-0.014-0.06-0.06-0.06h-0.484v0.423H10.81z M10.836,11.372
	c0.046,0,0.06-0.014,0.06-0.06v-0.357c0-0.045-0.014-0.059-0.06-0.059h-0.512v0.475L10.836,11.372z"/>
<path fill="#FFFFFF" d="M13.748,11.855H13.12l-0.394-0.775h-0.255v0.775H11.85V9.539h1.355c0.305,0,0.449,0.146,0.449,0.45v0.607
	c0,0.254-0.102,0.397-0.313,0.439L13.748,11.855z M12.975,10.596c0.045,0,0.059-0.014,0.059-0.06v-0.435
	c0-0.047-0.014-0.059-0.059-0.059h-0.504v0.554H12.975z"/>
<path fill="#FFFFFF" d="M13.988,11.405V9.989c0-0.304,0.146-0.45,0.449-0.45h0.93c0.305,0,0.451,0.146,0.451,0.45v1.416
	c0,0.304-0.146,0.45-0.451,0.45h-0.93C14.136,11.855,13.988,11.708,13.988,11.405z M15.137,11.339c0.046,0,0.06-0.014,0.06-0.06
	v-1.167c0-0.046-0.014-0.06-0.06-0.06H14.67c-0.046,0-0.06,0.014-0.06,0.06v1.162c0,0.046,0.014,0.06,0.06,0.06L15.137,11.339z"/>
<path fill="#FFFFFF" d="M17.524,11.855l-0.388-0.906l-0.334,0.462v0.444h-0.607V9.539h0.607v1.057l0.672-1.055h0.678l-0.635,0.883
	l0.668,1.433L17.524,11.855z"/>
<path fill="#FFFFFF" d="M10.276,12.885H9.696v-0.526h1.771v0.526h-0.581v1.777h-0.619L10.276,12.885z"/>
<path fill="#FFFFFF" d="M13.621,14.662h-0.626l-0.388-0.773h-0.253v0.773h-0.619v-2.304h1.35c0.302,0,0.447,0.146,0.447,0.447v0.599
	c0,0.254-0.098,0.395-0.313,0.438L13.621,14.662z M12.846,13.404c0.046,0,0.06-0.014,0.06-0.06V12.92
	c0-0.047-0.014-0.059-0.06-0.059h-0.5v0.543H12.846z"/>
<path fill="#FFFFFF" d="M15.125,14.188h-0.678l-0.117,0.475h-0.633l0.694-2.304h0.81l0.705,2.304h-0.658L15.125,14.188z M15,13.694
	l-0.213-0.833l-0.215,0.833H15z"/>
<path fill="#FFFFFF" d="M16.037,14.215v-1.409c0-0.302,0.151-0.447,0.455-0.447h0.879c0.303,0,0.439,0.146,0.439,0.447v0.432h-0.618
	v-0.306c0-0.047-0.013-0.061-0.06-0.061h-0.418c-0.045,0-0.059,0.014-0.059,0.061v1.162c0,0.046,0.014,0.059,0.059,0.059h0.422
	c0.047,0,0.06-0.013,0.06-0.059v-0.311h0.618v0.432c0,0.303-0.144,0.447-0.447,0.447h-0.879
	C16.183,14.662,16.037,14.518,16.037,14.215z"/>
<path fill="#FFFFFF" d="M18.533,12.885h-0.576v-0.526h1.771v0.526h-0.576v1.777h-0.618V12.885z"/>
<path fill="#FFFFFF" d="M19.919,14.215v-1.409c0-0.302,0.145-0.447,0.447-0.447h0.925c0.303,0,0.448,0.146,0.448,0.447v1.409
	c0,0.303-0.146,0.447-0.448,0.447h-0.925C20.063,14.662,19.919,14.518,19.919,14.215z M21.061,14.148
	c0.047,0,0.059-0.013,0.059-0.059v-1.162c0-0.047-0.012-0.061-0.059-0.061h-0.464c-0.046,0-0.06,0.014-0.06,0.061v1.162
	c0,0.046,0.014,0.059,0.06,0.059H21.061z"/>
<path fill="#FFFFFF" d="M24,14.662h-0.625l-0.388-0.773h-0.254v0.773h-0.618v-2.304h1.35c0.303,0,0.447,0.146,0.447,0.447v0.599
	c0,0.254-0.102,0.395-0.313,0.438L24,14.662z M23.23,13.404c0.045,0,0.059-0.014,0.059-0.06V12.92c0-0.047-0.014-0.059-0.059-0.059
	h-0.501v0.543H23.23z"/>
<polygon fill="#FFFFFF" points="21.731,10.766 21.728,10.765 21.731,10.77 "/>
<polygon fill="#FFFFFF" points="20.146,9.442 18.9,9.442 20.142,9.958 20.146,9.958 "/>
<polygon fill="#FFFFFF" points="18.396,9.539 18.396,11.855 20.024,11.855 20.024,11.339 19.02,11.339 19.02,10.925 19.816,10.925 
	19.816,10.416 19.02,10.416 19.02,10.055 19.594,10.055 20.021,10.055 18.779,9.539 "/>
<polygon fill="#FFFFFF" points="21.094,9.442 20.477,9.442 20.477,10.098 21.849,10.668 "/>
<polygon fill="#FFFFFF" points="22.453,9.442 21.853,9.442 21.853,10.669 22.453,10.919 "/>
<polygon fill="#FFFFFF" points="21.731,10.766 21.731,10.77 21.728,10.765 20.355,10.194 20.355,11.855 20.957,11.855 
	20.957,10.528 21.781,11.855 22.332,11.855 22.332,11.016 "/>
<path fill="#FFBE00" d="M1.628,12.454c0.01-0.06,0.064-0.079,0.097-0.097l0.29,0.066L2.119,12l-0.291-0.068
	c-0.049-0.072-0.125-0.12-0.21-0.133c-0.038-0.002-0.076-0.009-0.112-0.021c-0.025-0.012-0.047-0.029-0.065-0.05L1.213,11.43l0,0
	l-0.083-0.108l-0.097-0.015c0,0,0.387,1.855-1.016,2.98L0,14.392l0.118,0.019l1.252-0.388l0.022-0.134l0.448-0.156v-0.696
	l-0.291-0.102L1.628,12.454z M1.532,11.939c0.088-0.016,0.174,0.041,0.194,0.129c0.017,0.089-0.041,0.176-0.13,0.193
	c-0.001,0-0.002,0-0.003,0c-0.089,0.016-0.174-0.042-0.194-0.129c-0.017-0.089,0.042-0.176,0.131-0.192
	C1.53,11.939,1.53,11.939,1.532,11.939L1.532,11.939z M1.726,13.309c0.017,0.089-0.041,0.176-0.13,0.192
	c-0.001,0.001-0.002,0.001-0.003,0.001c-0.089,0.016-0.174-0.041-0.194-0.129c-0.017-0.09,0.042-0.177,0.132-0.193c0,0,0,0,0.001,0
	c0.09-0.02,0.178,0.037,0.198,0.127L1.726,13.309z M8.266,12.516c-0.091-0.138-0.262-0.199-0.419-0.148l-0.152,0.048l0,0
	L3.94,13.533c-0.147,0.045-0.247,0.182-0.247,0.336c0.002,0.197,0.165,0.355,0.363,0.354l0,0h4.819
	c0.198,0.002,0.36-0.156,0.363-0.354l0,0c0-0.079-0.027-0.155-0.076-0.217L8.266,12.516z M7.959,12.466
	c0.132,0.003,0.236,0.114,0.232,0.245c-0.004,0.133-0.114,0.236-0.246,0.232c-0.129-0.004-0.232-0.109-0.232-0.238
	C7.715,12.571,7.825,12.464,7.959,12.466c0,0,0.002,0,0.004,0H7.959z M4.053,14.111c-0.132-0.003-0.236-0.112-0.233-0.244
	c0.003-0.133,0.113-0.236,0.245-0.234c0.13,0.004,0.233,0.109,0.233,0.24c-0.003,0.13-0.11,0.234-0.241,0.234L4.053,14.111z
	 M8.333,13.967H4.596v-0.189h3.74L8.333,13.967z M8.872,14.111c-0.132-0.004-0.236-0.113-0.232-0.246
	c0.003-0.131,0.114-0.235,0.246-0.231c0.129,0.003,0.232,0.109,0.232,0.239c-0.004,0.131-0.111,0.234-0.242,0.234L8.872,14.111z
	 M3.521,13.05l-0.617-0.142H2.469v0.348H1.959v0.245h0.506v0.227h0.605C3.114,13.446,3.279,13.198,3.521,13.05z M2.214,12.565
	l1.452,0.331c0.119,0.029,0.24-0.043,0.269-0.162c0.028-0.117-0.044-0.232-0.16-0.26c-0.002,0-0.004-0.001-0.007-0.001l-1.452-0.332
	l-0.021,0.092l-0.08-0.109l-0.058,0.24l0.079,0.11L2.214,12.565z M9.598,13.984c0.007-0.037,0.011-0.074,0.012-0.113
	c0-0.049-0.006-0.099-0.017-0.146l0.081-0.017c-0.008-0.038-0.019-0.075-0.033-0.11l-0.077,0.027
	c-0.025-0.069-0.061-0.135-0.106-0.193l-0.025-0.027l0.064-0.049l-0.057-0.074L9.374,13.33l-0.15-0.193l0.064-0.047l-0.057-0.073
	l-0.065,0.048l-0.15-0.193l0.064-0.047L9.023,12.75l-0.065,0.048l-0.15-0.194l0.065-0.048l-0.058-0.073L8.75,12.531L8.6,12.337
	l0.064-0.048L8.641,12.26c-0.011-0.016-0.023-0.032-0.036-0.047l-0.064,0.05c-0.057-0.069-0.125-0.127-0.202-0.171l0.041-0.068
	c-0.031-0.019-0.063-0.036-0.097-0.05l-0.032,0.073c-0.083-0.034-0.171-0.054-0.26-0.058v-0.079c-0.039-0.003-0.077-0.003-0.115,0
	l0.008,0.08c-0.05,0.004-0.1,0.014-0.148,0.028l0,0H7.721l-0.028-0.066l-0.091,0.027l0.023,0.075l-0.236,0.071l-0.023-0.076
	l-0.091,0.027l0.023,0.074l-0.236,0.071l-0.023-0.076l-0.091,0.027l0.023,0.076l-0.236,0.07L6.71,12.243L6.62,12.27l0.023,0.076
	l-0.236,0.071l-0.023-0.076l-0.091,0.027l0.023,0.075l-0.236,0.07l-0.023-0.075l-0.091,0.027l0.023,0.075l-0.236,0.07l-0.023-0.074
	l-0.091,0.026l0.023,0.075l-0.239,0.074l-0.024-0.074l-0.091,0.025l0.024,0.076l-0.236,0.07L5.07,12.734l-0.09,0.027l0.023,0.076
	l-0.236,0.07l-0.023-0.076l-0.097,0.027l0.024,0.076l-0.236,0.07l-0.023-0.075l-0.091,0.026l0.023,0.076l-0.236,0.07l-0.024-0.075
	l-0.09,0.026l0.023,0.076l-0.194,0.059c-0.014,0-0.028,0.012-0.042,0.018l-0.03-0.076c-0.036,0.014-0.071,0.029-0.104,0.049
	l0.041,0.069c-0.077,0.044-0.146,0.101-0.203,0.169l-0.064-0.051c-0.025,0.03-0.047,0.063-0.066,0.097l0.071,0.04
	c-0.047,0.075-0.081,0.158-0.097,0.246l-0.08-0.014c-0.007,0.036-0.011,0.073-0.012,0.109H3.32c0,0.008,0,0.016,0,0.023
	c0.001,0.08,0.016,0.16,0.044,0.234L3.292,14.13c0.013,0.036,0.028,0.069,0.045,0.103l0.075-0.037
	c0.042,0.078,0.097,0.148,0.165,0.206l-0.056,0.061c0.029,0.024,0.059,0.048,0.091,0.067l0.045-0.065
	c0.076,0.048,0.16,0.08,0.247,0.097l-0.019,0.078C3.923,14.647,3.962,14.652,4,14.654l0.006-0.08c0.019,0,0.036,0,0.055,0h0.194
	v0.088h0.097v-0.079h0.247v0.079h0.097v-0.079h0.242v0.079h0.097v-0.079h0.247v0.079h0.097v-0.079h0.247v0.079h0.097v-0.079h0.242
	v0.079h0.097v-0.079h0.247v0.079h0.097v-0.079h0.247v0.079h0.097v-0.079h0.248v0.079h0.097v-0.079H7.34v0.079h0.097v-0.079h0.248
	v0.079h0.097v-0.079h0.247v0.079h0.097v-0.079h0.248v0.079H8.47v-0.079h0.248v0.079h0.097v-0.079h0.078
	c0.062-0.001,0.123-0.009,0.182-0.024l0.021,0.078c0.038-0.009,0.074-0.021,0.109-0.035l-0.032-0.072
	c0.083-0.035,0.159-0.084,0.225-0.145l0.057,0.059c0.027-0.025,0.053-0.054,0.077-0.083l-0.066-0.05
	c0.049-0.069,0.086-0.146,0.108-0.229l0.08,0.023c0.013-0.036,0.022-0.073,0.028-0.111L9.598,13.984z M9.476,13.965l-0.078-0.011
	c-0.004,0.024-0.01,0.048-0.018,0.07l0.076,0.022c-0.022,0.07-0.058,0.136-0.104,0.193l-0.058-0.053
	c-0.016,0.02-0.032,0.038-0.05,0.055L9.3,14.299c-0.055,0.051-0.118,0.09-0.187,0.119l-0.031-0.072
	c-0.025,0.011-0.051,0.02-0.078,0.026l0.021,0.075c-0.05,0.012-0.101,0.02-0.152,0.02H8.795v-0.078H8.698v0.078H8.456v-0.078H8.358
	v0.078H8.113v-0.078H8.016v0.078H7.771v-0.078H7.674v0.078H7.428v-0.078H7.331v0.078H7.086v-0.078H6.989v0.078H6.744v-0.078H6.647
	v0.078H6.402v-0.078H6.305v0.078H6.06v-0.078H5.963v0.078H5.717v-0.078H5.621v0.078H5.375v-0.078H5.279v0.078H5.035v-0.078H4.938
	v0.078H4.69v-0.078H4.593v0.078H4.348v-0.078H4.251v0.078H4.058c-0.016,0-0.031,0-0.046,0l0.006-0.076
	c-0.025-0.002-0.049-0.006-0.074-0.011l-0.017,0.077c-0.073-0.016-0.143-0.045-0.206-0.085l0.045-0.065
	c-0.021-0.014-0.041-0.029-0.06-0.045l-0.052,0.057c-0.056-0.047-0.102-0.105-0.136-0.171l0.07-0.034
	c-0.012-0.021-0.022-0.045-0.03-0.067L3.483,14.07c-0.023-0.061-0.036-0.127-0.037-0.193c0-0.006,0-0.012,0-0.02h0.08
	c0.001-0.023,0.003-0.049,0.008-0.073l-0.08-0.013c0.014-0.072,0.04-0.142,0.079-0.204l0.068,0.04
	c0.012-0.021,0.026-0.041,0.042-0.059L3.583,13.5c0.047-0.057,0.104-0.104,0.169-0.141l0.039,0.068
	c0.022-0.014,0.044-0.023,0.068-0.033l-0.029-0.07l0.034-0.014l0.193-0.059l0.024,0.074l0.091-0.027l-0.024-0.074l0.236-0.07
	l0.024,0.074l0.091-0.027l-0.024-0.074l0.236-0.07l0.024,0.075l0.091-0.027l-0.024-0.075l0.236-0.07l0.024,0.075l0.091-0.027
	l-0.022-0.081l0.237-0.07l0.023,0.075l0.091-0.027l-0.024-0.075l0.237-0.07l0.023,0.074l0.091-0.026l-0.022-0.079l0.236-0.07
	l0.024,0.074l0.091-0.026l-0.024-0.075l0.236-0.07l0.024,0.076l0.091-0.029l-0.024-0.072l0.238-0.068l0.024,0.075l0.091-0.026
	L6.77,12.436l0.237-0.07L7.03,12.44l0.091-0.027l-0.023-0.075l0.236-0.071l0.023,0.076l0.091-0.027l-0.023-0.074l0.236-0.071
	l0.023,0.076l0.091-0.027l-0.023-0.075l0.021-0.006c0.039-0.012,0.08-0.02,0.121-0.022l0.007,0.077c0.016-0.001,0.032-0.001,0.049,0
	h0.026v-0.076c0.075,0.005,0.148,0.022,0.217,0.051l-0.03,0.067c0.023,0.011,0.046,0.021,0.069,0.034l0.039-0.064
	c0.065,0.034,0.124,0.079,0.173,0.134l-0.062,0.047c0.009,0.01,0.016,0.021,0.028,0.038l0.028,0.035l0.064-0.047l0.15,0.194
	l-0.064,0.047l0.058,0.074l0.064-0.048l0.15,0.194l-0.064,0.048l0.057,0.073l0.064-0.049l0.15,0.194l-0.064,0.048l0.057,0.073
	l0.065-0.048l0.15,0.193l-0.064,0.049l0.057,0.074l0.064-0.049l0.026,0.033c0.038,0.048,0.067,0.102,0.089,0.158l-0.076,0.027
	c0.009,0.022,0.016,0.045,0.021,0.068l0.077-0.016c0.01,0.039,0.016,0.078,0.017,0.117c-0.001,0.031-0.005,0.063-0.012,0.094V13.965
	z M4.066,12.474c0.058,0.089,0.076,0.198,0.051,0.301c-0.006,0.024-0.015,0.048-0.024,0.069l3.652-1.086l0,0
	c0.07-0.015,0.141-0.022,0.212-0.022c0.247-0.001,0.486,0.088,0.67,0.252l0.056,0.059l0.4,0.429v-1.259
	c0-0.069-0.034-0.134-0.091-0.172L8.727,10.91c-0.048-0.024-0.101-0.036-0.154-0.035L8.405,9.602H6.689l-0.09-0.264H5.717v1.727
	H5.166v-0.362h0.089c0.053,0,0.097-0.019,0.097-0.042l-0.128-0.063H5.188l-0.025-0.03H4.938l-0.025,0.03H4.878l-0.134,0.063
	c0,0.024,0.044,0.042,0.097,0.042h0.088v0.362H4.798v-0.119H4.672v-0.131H4.608v-0.552c0.005-0.09,0.033-0.177,0.08-0.254
	L4.52,9.847c-0.092,0.125-0.143,0.274-0.145,0.429v0.539H4.31v0.131H4.184v0.119H3.917c-0.169,0-0.392,0.104-0.392,0.33v0.836
	l0.283,0.065C3.914,12.317,4.008,12.381,4.066,12.474z M7.444,9.859C7.446,9.818,7.479,9.786,7.52,9.787h0.646
	c0.042,0,0.078,0.031,0.085,0.073l0.115,0.852c0.005,0.034-0.018,0.066-0.052,0.072c-0.004,0-0.008,0.001-0.013,0.001H7.515
	c-0.041,0-0.074-0.032-0.075-0.073L7.444,9.859z M6.811,9.859c0-0.041,0.034-0.073,0.074-0.073l0,0h0.342
	c0.041,0,0.074,0.032,0.075,0.073v0.852c-0.001,0.041-0.034,0.073-0.075,0.073H6.88c-0.041,0-0.074-0.032-0.074-0.073l0,0
	L6.811,9.859z M5.891,9.596c0-0.041,0.034-0.074,0.076-0.073l0,0h0.547c0.041,0,0.075,0.032,0.076,0.073l0,0v1.162
	c-0.007,0.048-0.02,0.095-0.037,0.14l-0.336,0.721c-0.014,0.021-0.038,0.035-0.064,0.035h-0.19c-0.042,0-0.075-0.032-0.076-0.073
	c0,0,0,0,0,0L5.891,9.596z"/>
</svg>
