<svg xmlns="http://www.w3.org/2000/svg" viewBox="0 0 99.98 55"><defs><style>.cls-1{fill:#001212;}</style></defs><title>Asset 2</title><g id="Layer_2" data-name="Layer 2"><g id="Layer_1-2" data-name="Layer 1"><path class="cls-1" d="M16.82,32.19c.1-.62.66-.81,1-1l3,.69,1.06-4.38-3-.7a3.22,3.22,0,0,0-2.17-1.38,4.33,4.33,0,0,1-1.16-.21,2,2,0,0,1-.68-.52l-2.34-3.08h0l-.85-1.12-1-.15s4,19.16-10.49,30.78L0,52.2l1.22.19,12.93-4L14.38,47,19,45.4V38.2l-3-1.05Zm-1-5.32a1.74,1.74,0,0,1,2,1.33,1.7,1.7,0,0,1-1.38,2,1.74,1.74,0,0,1-2-1.34A1.7,1.7,0,0,1,15.81,26.87Zm2,14.14a1.7,1.7,0,0,1-1.38,2,1.74,1.74,0,0,1-2-1.33,1.71,1.71,0,0,1,1.37-2A1.74,1.74,0,0,1,17.86,41Zm67.55-8.19a3.8,3.8,0,0,0-4.33-1.53l-1.57.5,0,0L40.7,43.34a3.61,3.61,0,0,0-2.55,3.46,3.7,3.7,0,0,0,3.75,3.65H91.67a3.7,3.7,0,0,0,3.75-3.65,3.58,3.58,0,0,0-.78-2.23Zm-3.16-.51a2.47,2.47,0,1,1-2.54,2.47A2.5,2.5,0,0,1,82.25,32.31Zm-40.35,17a2.47,2.47,0,1,1,2.53-2.47A2.5,2.5,0,0,1,41.9,49.27Zm44.2-1.49H47.47V45.85H86.1Zm5.57,1.49a2.47,2.47,0,1,1,2.54-2.47A2.51,2.51,0,0,1,91.67,49.27ZM36.37,38.34,30,36.88h-4.5v3.59H20.24V43h5.23v2.34h6.25A10,10,0,0,1,36.37,38.34Zm-13.5-5,15,3.42a2.3,2.3,0,0,0,2.78-1.68,2.23,2.23,0,0,0-1.72-2.7l-15-3.43-.22.95-.83-1.13-.6,2.48.82,1.14ZM99.13,48a6.54,6.54,0,0,0,.12-1.17,7,7,0,0,0-.18-1.52l.84-.17A7.35,7.35,0,0,0,99.57,44l-.79.29a7.24,7.24,0,0,0-1.1-2L97.42,42l.66-.5-.59-.76-.67.5-1.55-2,.66-.49L95.34,38l-.67.5-1.55-2,.66-.49-.59-.76-.67.49-1.55-2,.67-.5-.6-.76-.67.5-1.55-2,.66-.5-.23-.29c-.12-.17-.24-.33-.37-.49l-.66.52a7.57,7.57,0,0,0-2.09-1.77l.42-.71a7.71,7.71,0,0,0-1-.51l-.33.75a8.16,8.16,0,0,0-2.69-.6l0-.82a7.9,7.9,0,0,0-1.19,0l.08.83a7.13,7.13,0,0,0-1.53.29h0l-.15,0L79.45,27l-.94.28.24.77-2.44.73L76.07,28l-.94.28.24.77-2.44.73L72.69,29l-.94.28.24.78-2.44.73-.24-.78-.94.28.24.78-2.44.73-.24-.78-.94.28.24.78-2.44.73-.24-.78-.94.28.24.78-2.44.73-.24-.78-.94.28.24.78L56,34.86l-.25-.77-.94.27.25.78-2.44.73-.25-.78-.93.28.24.78-2.44.73L49,36.1l-1,.28.25.78-2.44.73-.24-.78-.94.28.24.78-2.44.73-.25-.78-.93.28.24.78-2,.6c-.15,0-.29.12-.43.18l-.31-.78a7.6,7.6,0,0,0-1.08.5l.42.72A7.47,7.47,0,0,0,36,42.15l-.67-.53a7.23,7.23,0,0,0-.68,1l.74.42a7.08,7.08,0,0,0-1,2.53l-.83-.14a7.1,7.1,0,0,0-.12,1.14l.85,0c0,.08,0,.16,0,.24a7.22,7.22,0,0,0,.45,2.42L34,49.5a8.34,8.34,0,0,0,.47,1.06l.77-.39a7.3,7.3,0,0,0,1.7,2.13l-.58.63a9.17,9.17,0,0,0,.94.7l.47-.68a7.47,7.47,0,0,0,2.55,1l-.19.81a7.92,7.92,0,0,0,1.19.16l.06-.84c.19,0,.37,0,.57,0h2V55h1v-.82h2.55V55h1v-.82H51V55h1v-.82h2.55V55h1v-.82h2.55V55h1v-.82H61.6V55h1v-.82h2.55V55h1v-.82h2.55V55h1v-.82h2.56V55h1v-.82h2.55V55h1v-.82h2.56V55h1v-.82h2.55V55h1v-.82h2.56V55h1v-.82h2.56V55h1v-.82h.8a7.68,7.68,0,0,0,1.88-.25l.22.81a8.3,8.3,0,0,0,1.13-.37l-.33-.75a7.81,7.81,0,0,0,2.32-1.49l.59.6a8,8,0,0,0,.79-.85l-.68-.52A7.44,7.44,0,0,0,98.88,49l.83.25A7.43,7.43,0,0,0,100,48.1Zm-1.26-.2-.8-.12a4.58,4.58,0,0,1-.18.73l.78.23a6.33,6.33,0,0,1-1.07,2L96,50.1a5.48,5.48,0,0,1-.52.56l.57.58a6.48,6.48,0,0,1-1.93,1.23l-.32-.75A4.16,4.16,0,0,1,93,52l.21.77a6.83,6.83,0,0,1-1.57.21h-.8v-.81h-1v.81H87.33v-.81h-1v.81H83.79v-.81h-1v.81H80.26v-.81h-1v.81H76.72v-.81h-1v.81H73.19v-.81h-1v.81H69.65v-.81h-1v.81H66.12v-.81h-1v.81H62.59v-.81h-1v.81H59.05v-.81h-1v.81H55.52v-.81h-1v.81H52v-.81H51v.81H48.44v-.81h-1v.81H44.91v-.81h-1v.81h-2c-.17,0-.32,0-.48,0l.06-.79a4.8,4.8,0,0,1-.76-.11l-.18.79a6.37,6.37,0,0,1-2.12-.87l.46-.68a5.41,5.41,0,0,1-.61-.46l-.54.59a6.06,6.06,0,0,1-1.41-1.77l.72-.36a5.37,5.37,0,0,1-.31-.69l-.76.26a5.84,5.84,0,0,1-.38-2c0-.07,0-.13,0-.2l.82,0a6.53,6.53,0,0,1,.08-.76l-.82-.14a6.24,6.24,0,0,1,.81-2.1l.71.41a4.45,4.45,0,0,1,.43-.61l-.63-.5a6.17,6.17,0,0,1,1.75-1.45l.4.7a5,5,0,0,1,.7-.33l-.3-.74.35-.14,2-.6.25.77.94-.28-.25-.77,2.44-.73.25.77.94-.28-.25-.77,2.44-.73.25.78.94-.28-.25-.78,2.44-.73.25.78.94-.28L53,37.06l2.45-.73.24.78.94-.28-.25-.78,2.45-.73.24.78.94-.28L59.78,35l2.44-.72.25.77.94-.28L63.16,34l2.44-.73.25.78.94-.29L66.54,33,69,32.3l.25.78.94-.28L69.92,32l2.45-.73.24.78.94-.28L73.31,31l2.44-.73.24.78.94-.28L76.69,30l2.44-.73.24.78.94-.28L80.07,29l.22-.07a5.75,5.75,0,0,1,1.25-.23l.07.79a4.18,4.18,0,0,1,.5,0h.27l0-.78a7,7,0,0,1,2.24.53l-.31.69c.24.11.48.22.71.35l.4-.66A6.13,6.13,0,0,1,87.21,31l-.64.49c.09.1.16.21.29.39l.29.36.66-.49,1.55,2-.66.49.6.76.66-.49,1.55,2-.66.5.59.76.67-.5,1.55,2-.66.49.59.76.67-.49,1.55,2-.66.5.59.76.66-.5.27.34a6.2,6.2,0,0,1,.92,1.64l-.78.28a6.43,6.43,0,0,1,.22.71l.79-.16A5.39,5.39,0,0,1,98,46.8,5.24,5.24,0,0,1,97.87,47.77ZM42,32.39a4,4,0,0,1,.53,3.11,5.55,5.55,0,0,1-.25.72L80,25l0,0a10.06,10.06,0,0,1,2.19-.23,10.34,10.34,0,0,1,6.92,2.61l.58.61,4.13,4.43v-13a2.11,2.11,0,0,0-.94-1.78l-2.75-1.4a3.41,3.41,0,0,0-1.59-.36L86.81,2.73H69.09L68.16,0H59.05V17.83h-5.7V14.09h.92c.55,0,1-.19,1-.44L53.94,13h-.36l-.26-.31H51l-.26.31h-.36L49,13.65c0,.25.46.44,1,.44h.91v3.74H49.56V16.6h-1.3V15.25h-.67V9.55a5.7,5.7,0,0,1,.83-2.62L46.68,5.26a7.67,7.67,0,0,0-1.5,4.43h0v5.55h-.67V16.6h-1.3v1.23H40.45c-1.75,0-4.05,1.08-4.05,3.41v8.64l2.92.67A4.15,4.15,0,0,1,42,32.39Zm34.89-27a.77.77,0,0,1,.78-.75h6.67a.9.9,0,0,1,.88.75l1.19,8.8a.65.65,0,0,1-.67.75H77.62a.77.77,0,0,1-.78-.75Zm-6.55,0a.76.76,0,0,1,.77-.75h3.53a.77.77,0,0,1,.77.75v8.8a.77.77,0,0,1-.77.75H71.06a.76.76,0,0,1-.77-.75Zm-9.5-2.72a.77.77,0,0,1,.78-.76h5.65a.77.77,0,0,1,.78.76v12a6.57,6.57,0,0,1-.38,1.44l-3.47,7.45a.8.8,0,0,1-.66.36H61.57a.77.77,0,0,1-.78-.76Z"/></g></g></svg>
