<svg xmlns="http://www.w3.org/2000/svg" xmlns:xlink="http://www.w3.org/1999/xlink" width="5000" zoomAndPan="magnify" viewBox="-47 -47 3845 3845" height="5000" preserveAspectRatio="xMidYMid meet" version="1.2"><defs><clipPath id="516b556a72"><path d="M 127.539062 983.675781 L 3622.535156 983.675781 L 3622.535156 2486 L 127.539062 2486 Z M 127.539062 983.675781 "/></clipPath><clipPath id="201bd854e3"><path d="M 590 1992 L 1360 1992 L 1360 2766.425781 L 590 2766.425781 Z M 590 1992 "/></clipPath><clipPath id="bfe8b9bc54"><path d="M 2278 1992 L 3051 1992 L 3051 2766.425781 L 2278 2766.425781 Z M 2278 1992 "/></clipPath></defs><g id="079780f418"><g clip-rule="nonzero" clip-path="url(#516b556a72)"><path style=" stroke:none;fill-rule:nonzero;fill:#000000;fill-opacity:1;" d="M 488.5625 1025.449219 C 488.5625 1065.8125 489.03125 1067.691406 502.171875 1078.957031 C 517.660156 1091.628906 519.535156 1092.097656 716.183594 1101.015625 C 775.789062 1103.832031 892.652344 1111.339844 976.660156 1117.910156 C 1060.671875 1124.011719 1140.925781 1129.175781 1155.007812 1129.175781 C 1216.019531 1129.175781 1234.320312 1143.253906 1264.828125 1212.25 C 1277.5 1239.941406 1300.027344 1290.160156 1314.578125 1323.953125 C 1339.453125 1379.804688 1378.875 1467.101562 1524.835938 1790.949219 C 1552.996094 1854.3125 1577.871094 1910.632812 1579.746094 1916.734375 C 1585.378906 1936.445312 1632.3125 1981.503906 1658.125 1993.238281 C 1697.546875 2010.132812 1762.785156 2011.542969 1813.472656 1996.054688 C 1850.078125 1984.789062 1897.011719 1972.117188 1977.738281 1951.464844 L 2013.875 1942.078125 L 2013.875 2067.863281 L 1521.082031 2067.863281 L 1521.082031 1988.074219 C 1521.082031 1931.285156 1519.203125 1903.59375 1514.980469 1892.796875 C 1511.226562 1884.347656 1476.496094 1829.4375 1437.539062 1770.769531 C 1370.894531 1670.796875 1356.816406 1644.046875 1356.816406 1618.699219 C 1356.816406 1606.96875 1181.757812 1222.574219 1167.679688 1203.332031 C 1147.027344 1175.640625 1147.964844 1175.640625 908.140625 1177.046875 L 689.433594 1178.457031 L 669.253906 1200.515625 C 658.457031 1212.71875 647.664062 1228.675781 646.253906 1235.714844 C 641.5625 1255.898438 564.59375 1493.386719 551.449219 1529.054688 C 544.878906 1545.953125 536.902344 1562.378906 534.085938 1564.726562 C 528.921875 1569.417969 488.09375 1579.277344 347.761719 1610.722656 C 238.410156 1635.597656 240.757812 1633.25 234.65625 1738.382812 C 232.308594 1779.214844 226.207031 1854.3125 221.042969 1905.9375 C 213.066406 1989.953125 209.78125 2029.375 199.925781 2153.285156 C 196.640625 2191.769531 193.355469 2196.933594 172.703125 2198.339844 C 152.992188 2199.75 137.035156 2212.421875 131.402344 2231.664062 C 128.117188 2241.988281 126.710938 2273.433594 127.648438 2308.636719 C 129.527344 2366.367188 129.996094 2367.773438 143.136719 2381.855469 L 157.214844 2396.402344 L 323.828125 2395.464844 L 490.90625 2394.058594 L 508.273438 2363.550781 C 521.414062 2341.019531 527.984375 2320.839844 535.023438 2285.636719 C 555.207031 2179.566406 615.28125 2083.351562 701.167969 2017.171875 C 833.515625 1915.324219 1023.125 1898.429688 1176.125 1975.402344 C 1316.453125 2045.804688 1412.667969 2185.667969 1421.113281 2333.042969 C 1422.523438 2358.855469 1425.808594 2383.730469 1428.15625 2387.957031 C 1431.910156 2395.464844 1440.355469 2396.402344 1506.0625 2396.402344 L 1579.746094 2396.402344 L 1588.195312 2433.949219 C 1594.765625 2462.582031 1599.457031 2473.375 1607.4375 2478.539062 C 1616.824219 2485.109375 1647.800781 2485.578125 1830.835938 2484.640625 L 2042.972656 2483.230469 L 2051.421875 2472.90625 C 2056.113281 2466.804688 2062.683594 2447.5625 2065.96875 2429.257812 L 2071.601562 2396.402344 L 2138.246094 2396.402344 C 2183.300781 2396.402344 2206.300781 2394.527344 2210.054688 2390.769531 C 2213.339844 2387.484375 2215.683594 2373.40625 2215.683594 2359.324219 C 2216.15625 2298.78125 2233.519531 2229.785156 2263.558594 2168.773438 C 2315.183594 2065.515625 2413.742188 1983.382812 2532.011719 1946.300781 C 2614.144531 1920.019531 2725.375 1920.957031 2806.097656 1948.648438 C 2912.167969 1985.257812 3004.625 2060.351562 3053.433594 2149.996094 C 3071.269531 2182.382812 3076.433594 2187.074219 3090.511719 2183.320312 C 3106.46875 2179.566406 3111.160156 2161.261719 3101.304688 2141.082031 C 3097.550781 2132.632812 3078.308594 2103.0625 3058.597656 2075.839844 C 3038.886719 2048.148438 3022.929688 2021.398438 3022.929688 2016.234375 C 3022.929688 2011.070312 3029.5 1986.195312 3037.476562 1961.320312 C 3044.988281 1935.976562 3063.289062 1878.246094 3077.371094 1833.191406 C 3109.753906 1728.996094 3106 1737.914062 3145.421875 1685.816406 C 3173.582031 1647.800781 3181.5625 1640.289062 3200.335938 1633.25 C 3220.984375 1625.742188 3263.691406 1607.90625 3323.296875 1582.09375 C 3337.378906 1575.992188 3366.945312 1563.316406 3389.003906 1553.929688 C 3411.0625 1544.542969 3435.46875 1533.75 3442.976562 1530.464844 C 3450.953125 1526.710938 3476.296875 1515.445312 3499.296875 1505.589844 C 3616.15625 1455.367188 3613.34375 1456.777344 3619.441406 1443.164062 C 3622.257812 1435.1875 3623.667969 1422.046875 3621.789062 1412.1875 C 3618.972656 1396.699219 3605.363281 1381.210938 3516.660156 1294.382812 C 3460.8125 1239.472656 3409.652344 1191.128906 3403.554688 1186.433594 C 3393.226562 1179.394531 3322.359375 1178.925781 2484.140625 1179.863281 L 1575.992188 1181.273438 L 1549.710938 1161.089844 C 1535.160156 1150.296875 1489.167969 1107.585938 1447.398438 1066.28125 C 1405.625 1024.980469 1367.609375 989.308594 1362.917969 987.433594 C 1358.226562 986.023438 1159.699219 984.148438 921.75 984.148438 L 488.5625 983.679688 Z M 967.273438 1297.667969 C 970.089844 1303.300781 971.96875 1354.460938 971.96875 1431.433594 C 971.96875 1554.402344 971.96875 1555.808594 961.644531 1562.847656 C 952.726562 1569.417969 930.199219 1570.359375 812.398438 1570.359375 C 661.742188 1570.359375 652.824219 1568.949219 652.824219 1544.542969 C 652.824219 1538.914062 666.90625 1492.917969 683.800781 1442.695312 C 700.695312 1392.945312 717.59375 1342.257812 721.816406 1330.054688 C 734.019531 1289.691406 736.835938 1288.75 857.453125 1288.75 C 956.480469 1288.75 962.582031 1289.222656 967.273438 1297.667969 Z M 1079.445312 1295.324219 C 1082.730469 1299.078125 1108.074219 1352.582031 1136.234375 1414.066406 C 1187.390625 1525.300781 1196.777344 1554.871094 1182.226562 1564.257812 C 1178.941406 1566.132812 1146.558594 1568.011719 1110.417969 1568.949219 C 1055.976562 1569.890625 1043.773438 1568.480469 1036.734375 1562.378906 C 1029.226562 1555.339844 1028.289062 1543.605469 1028.289062 1424.863281 C 1028.289062 1353.519531 1029.695312 1293.445312 1031.574219 1292.039062 C 1037.203125 1285.9375 1073.8125 1288.75 1079.445312 1295.324219 Z M 2165 1336.625 C 2171.097656 1341.789062 2197.851562 1403.742188 2248.539062 1532.8125 C 2253.230469 1544.542969 2272.472656 1591.480469 2290.777344 1637.472656 C 2309.550781 1684.410156 2322.691406 1722.894531 2320.816406 1725.242188 C 2318.46875 1727.589844 2309.082031 1730.40625 2300.164062 1732.28125 L 2283.738281 1735.097656 L 2265.433594 1691.449219 C 2244.316406 1639.820312 2229.296875 1604.152344 2208.644531 1556.277344 C 2192.21875 1517.792969 2148.101562 1408.433594 2143.410156 1395.292969 C 2141.0625 1388.253906 2133.082031 1387.3125 2063.152344 1387.3125 L 1985.246094 1387.3125 L 1976.328125 1365.722656 C 1971.167969 1353.992188 1966.941406 1342.257812 1966.941406 1340.378906 C 1966.941406 1338.03125 1987.59375 1335.21875 2012.9375 1334.746094 C 2147.164062 1330.523438 2157.488281 1330.992188 2165 1336.625 Z M 2492.121094 1335.6875 C 2497.75 1338.503906 2509.015625 1360.09375 2520.277344 1388.253906 C 2530.605469 1415.003906 2553.132812 1470.386719 2570.027344 1511.691406 C 2606.636719 1599.925781 2624.46875 1646.390625 2623.0625 1647.800781 C 2620.246094 1649.675781 2589.738281 1659.535156 2586.453125 1659.535156 C 2584.578125 1659.535156 2581.761719 1655.777344 2580.351562 1651.085938 C 2578.945312 1646.859375 2570.027344 1625.269531 2560.640625 1603.210938 C 2533.421875 1540.320312 2487.894531 1429.085938 2479.917969 1407.027344 L 2472.875 1387.3125 L 2314.714844 1387.3125 L 2307.203125 1373.234375 C 2303.449219 1365.722656 2300.164062 1354.460938 2300.164062 1347.890625 C 2300.164062 1337.09375 2302.042969 1336.15625 2325.039062 1334.746094 C 2388.398438 1330.523438 2484.140625 1330.992188 2492.121094 1335.6875 Z M 2832.851562 1346.011719 C 2840.359375 1362.90625 2886.824219 1478.367188 2907.941406 1531.871094 C 2915.921875 1552.523438 2919.675781 1567.542969 2916.859375 1570.359375 C 2914.515625 1572.234375 2905.128906 1575.519531 2895.742188 1577.398438 C 2878.84375 1580.683594 2878.375 1580.214844 2871.335938 1560.03125 C 2867.113281 1549.238281 2854.441406 1516.382812 2842.238281 1488.222656 C 2830.503906 1459.59375 2816.425781 1425.332031 2811.261719 1411.71875 L 2801.875 1387.3125 L 2646.996094 1387.3125 L 2637.609375 1365.722656 C 2632.449219 1353.992188 2629.164062 1341.789062 2630.101562 1338.503906 C 2631.980469 1333.808594 2654.976562 1331.929688 2729.128906 1331.460938 L 2825.8125 1330.523438 Z M 3335.5 1354.929688 C 3349.582031 1368.539062 3360.84375 1381.210938 3360.84375 1383.089844 C 3360.84375 1385.4375 3274.488281 1387.3125 3168.417969 1387.3125 L 2976.464844 1387.3125 L 2966.609375 1365.722656 C 2961.445312 1353.519531 2957.222656 1340.847656 2957.222656 1337.5625 C 2957.222656 1331.929688 2987.257812 1330.992188 3133.691406 1330.992188 L 3309.6875 1330.992188 Z M 1862.75 1389.660156 C 1873.546875 1417.820312 1885.75 1448.796875 1889.035156 1457.714844 C 1892.789062 1466.632812 1903.113281 1491.976562 1912.96875 1514.035156 C 1922.355469 1536.097656 1934.089844 1564.257812 1938.3125 1577.398438 C 1943.007812 1590.070312 1961.308594 1635.597656 1978.207031 1678.308594 C 1995.570312 1721.019531 2013.875 1766.542969 2018.566406 1780.15625 L 2027.484375 1804.5625 L 2010.121094 1809.722656 C 2000.734375 1812.070312 1991.816406 1812.539062 1990.410156 1810.664062 C 1983.367188 1802.683594 1932.679688 1685.816406 1903.113281 1610.253906 C 1894.195312 1586.785156 1880.585938 1552.992188 1873.078125 1535.15625 C 1865.566406 1516.851562 1849.140625 1476.957031 1836.9375 1445.980469 L 1814.410156 1389.660156 L 1730.871094 1388.253906 C 1637.945312 1386.84375 1644.515625 1389.660156 1637.003906 1350.707031 L 1633.71875 1335.6875 L 1737.910156 1336.625 L 1842.101562 1338.03125 Z M 2918.738281 1742.136719 L 2917.328125 1773.585938 L 2858.664062 1789.074219 C 2733.824219 1822.867188 2713.640625 1828.027344 2659.199219 1842.109375 C 2596.308594 1858.535156 2407.171875 1903.59375 2363.992188 1912.980469 C 2336.300781 1918.613281 2335.363281 1919.550781 2263.558594 1993.238281 C 2223.664062 2034.070312 2189.402344 2067.863281 2187.054688 2067.863281 C 2184.710938 2067.863281 2182.832031 2029.847656 2182.832031 1983.851562 L 2182.832031 1899.835938 L 2198.320312 1894.675781 C 2214.277344 1889.511719 2278.105469 1872.617188 2396.375 1842.578125 C 2435.332031 1832.722656 2504.792969 1814.886719 2551.253906 1802.683594 C 2734.761719 1754.808594 2903.71875 1712.101562 2911.699219 1711.628906 C 2919.207031 1711.160156 2920.144531 1714.917969 2918.738281 1742.136719 Z M 2918.738281 1742.136719 "/></g><g clip-rule="nonzero" clip-path="url(#201bd854e3)"><path style=" stroke:none;fill-rule:nonzero;fill:#000000;fill-opacity:1;" d="M 875.285156 2004.03125 C 749.507812 2036.886719 653.765625 2126.53125 610.117188 2253.722656 C 584.773438 2327.410156 584.304688 2426.910156 608.238281 2499.660156 C 629.359375 2563.960938 654.703125 2604.792969 702.105469 2652.195312 C 767.8125 2718.375 837.742188 2753.105469 925.035156 2763.429688 C 1124.03125 2786.898438 1297.210938 2668.152344 1348.367188 2474.316406 C 1361.980469 2423.15625 1362.449219 2342.898438 1350.246094 2290.800781 C 1323.023438 2176.28125 1250.28125 2085.230469 1141.394531 2030.316406 C 1066.304688 1992.769531 960.703125 1981.972656 875.285156 2004.03125 Z M 1052.691406 2202.566406 C 1093.992188 2222.277344 1122.152344 2249.03125 1143.742188 2289.394531 C 1162.046875 2323.65625 1162.046875 2323.65625 1162.046875 2377.628906 C 1162.046875 2427.851562 1161.105469 2433.480469 1148.433594 2459.765625 C 1111.828125 2533.921875 1043.304688 2573.816406 960.703125 2569.121094 C 879.511719 2564.429688 814.273438 2511.863281 789.398438 2432.074219 C 776.726562 2390.300781 776.726562 2363.082031 791.277344 2317.554688 C 800.664062 2287.515625 807.703125 2275.78125 829.292969 2251.84375 C 875.285156 2201.15625 915.179688 2184.261719 982.292969 2187.074219 C 1015.144531 2188.484375 1028.289062 2191.300781 1052.691406 2202.566406 Z M 1052.691406 2202.566406 "/></g><path style=" stroke:none;fill-rule:nonzero;fill:#000000;fill-opacity:1;" d="M 939.117188 2255.132812 C 905.792969 2265.457031 877.632812 2289.863281 859.800781 2323.65625 C 846.1875 2349.46875 846.1875 2402.972656 859.328125 2429.257812 C 884.203125 2477.601562 922.21875 2502.007812 974.316406 2502.007812 C 1002.003906 2502.007812 1011.390625 2499.660156 1032.042969 2487.925781 C 1126.847656 2435.828125 1117.929688 2298.78125 1017.023438 2260.761719 C 990.273438 2250.90625 960.703125 2248.558594 939.117188 2255.132812 Z M 939.117188 2255.132812 "/><g clip-rule="nonzero" clip-path="url(#bfe8b9bc54)"><path style=" stroke:none;fill-rule:nonzero;fill:#000000;fill-opacity:1;" d="M 2563.925781 2004.972656 C 2426.882812 2041.109375 2327.855469 2141.550781 2289.839844 2283.761719 C 2275.289062 2337.734375 2275.289062 2423.625 2290.308594 2478.539062 C 2309.550781 2550.347656 2341.933594 2607.140625 2391.683594 2656.890625 C 2513.707031 2777.980469 2713.171875 2801.917969 2863.355469 2712.742188 C 2983.035156 2641.402344 3059.066406 2494.964844 3049.210938 2353.691406 C 3039.824219 2212.421875 2959.570312 2095.085938 2828.15625 2029.375 C 2754.003906 1991.828125 2648.875 1982.441406 2563.925781 2004.972656 Z M 2750.25 2206.320312 C 2812.199219 2239.171875 2849.277344 2295.964844 2853.03125 2364.488281 C 2858.195312 2456.949219 2807.976562 2532.042969 2720.679688 2560.675781 C 2659.199219 2580.855469 2585.984375 2566.304688 2539.519531 2524.535156 C 2484.609375 2475.253906 2461.613281 2411.890625 2473.816406 2344.777344 C 2484.140625 2288.921875 2520.277344 2236.828125 2570.027344 2208.664062 C 2603.820312 2189.421875 2624 2185.199219 2674.21875 2187.074219 C 2713.171875 2188.953125 2720.679688 2190.832031 2750.25 2206.320312 Z M 2750.25 2206.320312 "/></g><path style=" stroke:none;fill-rule:nonzero;fill:#000000;fill-opacity:1;" d="M 2619.308594 2259.824219 C 2600.535156 2266.394531 2587.394531 2275.78125 2571.4375 2293.148438 C 2512.769531 2356.507812 2528.726562 2443.339844 2607.574219 2490.742188 C 2623.0625 2499.660156 2632.449219 2502.007812 2661.546875 2501.535156 C 2715.050781 2501.535156 2750.71875 2479.476562 2774.183594 2432.542969 C 2789.671875 2401.566406 2792.488281 2365.425781 2782.164062 2336.796875 C 2757.757812 2270.621094 2685.480469 2236.355469 2619.308594 2259.824219 Z M 2619.308594 2259.824219 "/></g></svg>