<?xml version="1.0" encoding="utf-8"?>
<!-- Generator: Adobe Illustrator 23.0.2, SVG Export Plug-In . SVG Version: 6.00 Build 0)  -->
<svg version="1.1" id="Layer_1" xmlns="http://www.w3.org/2000/svg" xmlns:xlink="http://www.w3.org/1999/xlink" x="0px" y="0px"
	 viewBox="0 -180.8598 601.8238 601.8238" enable-background="new 0 0 601.8238 240.1042" xml:space="preserve">
<g>
	<path d="M524.4532,32.1661c19.0286,20.152,30.709,47.3131,30.709,77.1509c0,26.3126-9.0833,50.5436-24.2791,69.7219
		l70.9407-15.4004L540.345,12.6535L524.4532,32.1661z"/>
	<path d="M22.9471,226.4823H57.71c-3.9324-6.3953-6.2053-13.9151-6.2053-21.9575c0-23.186,18.8633-42.0494,42.0493-42.0494h162.4075
		c23.1861,0,42.0488,18.8634,42.0488,42.0494c0,8.0424-2.2732,15.5621-6.2053,21.9575h23.78v-9.9756h20.6252v-34.7188H315.585
		v-28.9824l43.5295-14.0508c1.0691,3.0353,2.2937,5.997,3.6738,8.8707l-5.4934,3.1717l1.4956,14.796l10.7925-6.2311
		c1.8167,2.649,3.7722,5.1951,5.8584,7.626l-4.5005,4.5006l5.2742,13.9047l8.8159-8.8159c2.4309,2.0864,4.9768,4.0418,7.626,5.8585
		l-3.1797,5.5074l8.6931,12.0659l6.2231-10.7786c2.8796,1.3829,5.8474,2.6098,8.8894,3.6803l-1.6421,6.1288l11.5198,9.4047
		l3.2236-12.0307c3.125,0.5818,6.3059,1.0047,9.5369,1.2492v6.3588l13.5615,6.1027V197.663
		c3.231-0.2445,6.4116-0.6674,9.5366-1.2492l1.6443,6.136l14.679,2.3848l-3.2219-12.0236c3.042-1.0705,6.01-2.2974,8.8896-3.6803
		l3.1716,5.4935l14.7959-1.4957l-6.231-10.7925c2.6489-1.8166,5.1948-3.7721,7.626-5.8585l4.5005,4.5007l13.9048-5.2742
		l-8.8159-8.8159c2.0864-2.431,4.042-4.9769,5.8586-7.626l5.5073,3.1797l12.0657-8.6932l-10.7783-6.223
		c1.3828-2.8796,2.6099-5.8476,3.6802-8.8895l6.1289,1.6422l9.4048-11.52l-12.0308-3.2236c0.5818-3.125,1.0046-6.3058,1.2493-9.5368
		h6.3586l6.1028-13.5615h-12.4614c-0.2446-3.231-0.6675-6.4118-1.2493-9.5368l6.136-1.6441l2.3848-14.6789l-12.0237,3.2217
		c-1.0703-3.0419-2.2974-6.0099-3.6802-8.8895l5.4934-3.1717l-1.4958-14.796l-10.7925,6.231
		c-1.8164-2.6491-3.772-5.1949-5.8584-7.6259l4.5007-4.5007l-1.1909-3.1395l-20.8535,24.2312
		c9.2288,11.1564,14.7756,25.4698,14.7756,41.0796c0,35.6183-28.8743,64.4926-64.4924,64.4926
		c-35.6184,0-64.4927-28.8743-64.4927-64.4926s28.8743-64.4926,64.4927-64.4926c13.9167,0,26.7925,4.4228,37.3301,11.9187
		l-15.6765,18.2154c-6.2739-3.9683-13.6975-6.276-21.6541-6.276c-22.4055,0-40.6335,18.2286-40.6335,40.6347
		c0,22.4056,18.228,40.6342,40.6335,40.6342s40.6345-18.2286,40.6345-40.6342c0-8.3409-2.5291-16.1006-6.8564-22.5589l-21.7734,25.3
		l-3.7036-3.1874L537.9617,7.8281l-1.603-1.3795L528.866,0l-33.0464,38.3983c-1.0071-0.7556-2.033-1.4871-3.0728-2.2001
		l3.1797-5.5074l-8.6934-12.0658l-6.2229,10.7785c-2.8796-1.3829-5.8477-2.6098-8.8894-3.6803l1.6421-6.1288l-11.52-9.4047
		l-3.2236,12.0306c-3.125-0.5818-6.3057-1.0047-9.5366-1.2492v-6.3587l-13.5615-6.1027v12.4614
		c-3.231,0.2445-6.4119,0.6674-9.5369,1.2492l-1.644-6.1359l-14.679-2.3848l3.2217,12.0236
		c-3.042,1.0705-6.0098,2.2974-8.8894,3.6803L401.222,23.91l-14.7961,1.4957l6.2312,10.7925
		c-2.6492,1.8167-5.1951,3.7722-7.626,5.8585l-4.5007-4.5007l-13.3735,5.0728L291.211,29.3276l-3.9939-26.1721l-20.4443,14.2366
		l14.8872,97.5533h-34.1233v11.913h-7.1138l-17.2212-73.8856h11.125v-8.6602c0-1.7997-1.459-3.2586-3.2588-3.2586h-20.0371v-2.1833
		c0-1.7997-1.459-3.2587-3.2585-3.2587h-68.2461c-1.7996,0-3.2585,1.4589-3.2585,3.2587v2.1833H121.648
		c-1.7996,0-3.2585,1.4589-3.2585,3.2586v8.6602h6.3501v73.8856h-22.3398l-32.9033,8.577v-31.9139h-3.8635v32.9211l-5.2249,1.362
		V99.0667l-8.8115-7.6367l-3.4512,3.9812l6.9941,6.0613v37.7055l-31.1865,8.1295c-2.2283,0.5809-4.2561,1.7582-5.8652,3.4055
		L2.2142,166.9628c-2.2139,2.2663-2.8318,5.6489-1.562,8.5515L22.9471,226.4823z M362.7884,71.0087
		c-1.3828,2.8796-2.6099,5.8476-3.6802,8.8895l-6.1289-1.6422l-9.4048,11.52l12.0308,3.2236
		c-0.582,3.1249-1.0049,6.3057-1.2493,9.5367h-6.3586l-6.1028,13.5615h12.4614c0.217,2.8695,0.5747,5.6995,1.0588,8.4861
		l-43.9639,14.1909l-4.0862-3.5938l-11.623-76.1643l59.5959,3.3712l-3.3279,2.3978L362.7884,71.0087z M371.1922,47.3967
		l4.2493,4.2495c-2.0649,2.406-4.0012,4.9249-5.802,7.5447l-0.2185-0.0123l-5.3452-3.0862l-3.5825,2.5812l-65.3682-3.6977
		l-3.2773-21.4756L371.1922,47.3967z M274.9818,30.1311c-0.4153-2.7217,1.4546-5.2649,4.1763-5.6802s5.2649,1.4543,5.6802,4.1761
		c0.4153,2.7218-1.4543,5.2649-4.176,5.6802C277.9402,34.7226,275.3973,32.8528,274.9818,30.1311z M279.098,57.103
		c-0.4155-2.7217,1.4543-5.2648,4.176-5.6802c2.7219-0.4153,5.2649,1.4544,5.6802,4.1761s-1.4543,5.2649-4.176,5.6802
		S279.5132,59.8248,279.098,57.103z M231.5225,126.8584h-70.011V52.9728h52.7896L231.5225,126.8584z M155.9134,52.9728v47.3622
		h-16.6179V52.9728H155.9134z"/>
	<rect x="193.785" y="168.9447" width="7.7639" height="6.4694"/>
	<rect x="116.1468" y="168.9447" width="7.7637" height="6.4694"/>
	<rect x="178.2574" y="168.9447" width="7.7639" height="6.4694"/>
	<rect x="209.3128" y="168.9447" width="7.7637" height="6.4694"/>
	<rect x="100.6185" y="168.9447" width="7.7644" height="6.4694"/>
	<rect x="224.8404" y="168.9447" width="7.7639" height="6.4694"/>
	<rect x="162.7298" y="168.9447" width="7.7637" height="6.4694"/>
	<rect x="131.6744" y="168.9447" width="7.7639" height="6.4694"/>
	<rect x="147.202" y="168.9447" width="7.7639" height="6.4694"/>
	<rect x="240.3687" y="168.9447" width="7.7639" height="6.4694"/>
	<path d="M281.3934,221.4455l4.1772,2.7896c1.5845-2.3732,2.8796-4.931,3.8496-7.6027l-5.1768-1.8785
		c0.5388-2.046,0.8281-4.1903,0.8281-6.3994v-0.6984l6.2678,0.6691c0.134-1.2525,0.2014-2.5309,0.2014-3.8004
		c0-1.5757-0.104-3.1608-0.3108-4.7115l-6.1599,0.8187c-0.0061-2.4574-0.3721-4.8331-1.0398-7.0826l5.0657-1.987
		c-1.0366-2.6439-2.3958-5.166-4.0383-7.4966l-4.0867,2.8807c-1.3447-2.06-2.9797-3.9136-4.8481-5.5024l3.2388-3.7023
		c-2.1448-1.8763-4.5107-3.4927-7.0317-4.8043l-2.4019,4.6172c-2.1782-0.9617-4.5146-1.6218-6.9575-1.9321l1.3777-5.6791
		c-2.7317-0.6627-5.554-0.9988-8.3875-0.9988h-0.0645l0.0645,6.4694c0.0007,0,0.0015,0.0001,0.0022,0.0001H92.9234l-0.1377-6.4615
		c-2.8557,0.0613-5.6936,0.4644-8.4333,1.1988l1.4905,5.5634c-2.4338,0.3791-4.7542,1.1106-6.9102,2.1369l-2.4858-4.5184
		c-2.4878,1.3691-4.8147,3.0398-6.9153,4.9654l3.3164,3.6173c-1.8215,1.6394-3.406,3.537-4.6926,5.6355l-4.1721-2.7967
		c-1.5881,2.3701-2.8884,4.9249-3.8633,7.5945l5.1685,1.8877c-0.5491,2.0637-0.845,4.2275-0.845,6.4578v0.6407l-6.2598-0.6838
		c-0.1389,1.2753-0.2097,2.5782-0.2097,3.8731c0,1.5488,0.1016,3.1099,0.3013,4.6397l6.1682-0.8067
		c0.0002,2.4571,0.3623,4.8325,1.0244,7.0828l-5.0754,1.9802c1.0322,2.6456,2.3862,5.1704,4.0237,7.5038l4.0947-2.8738
		c1.3398,2.0636,2.9707,3.9211,4.8352,5.5145l-3.2458,3.6951c2.1409,1.8807,4.5039,3.5016,7.0227,4.8179l2.4082-4.609
		c2.1768,0.9673,4.5117,1.6337,6.9541,1.9498l-1.3875,5.6699c2.7546,0.6738,5.5994,1.0153,8.4563,1.0153h0.1294v-6.4691h7.7639
		v6.4691h7.7639v-6.4691h7.7637v6.4691h7.7639v-6.4691h7.7639v6.4691h7.7637v-6.4691h7.7639v6.4691h7.7639v-6.4691h7.7637v6.4691
		h7.7646v-6.4691h7.7637v6.4691h7.7639v-6.4691h7.7639v6.4691h7.7637v-6.4691h7.7639v6.4691h7.7639v-6.4691h7.7637v6.4691h7.7639
		v-6.4691h7.7639v6.4691h7.7637v-6.4691h7.6895l0.1504,6.4593c2.8555-0.0663,5.6921-0.4754,8.4316-1.2152l-1.5005-5.5555
		c2.4324-0.385,4.752-1.1196,6.9058-2.1512l2.4937,4.5087c2.4858-1.375,4.8091-3.0499,6.9045-4.9786l-3.3218-3.6097
		C278.5316,225.449,280.1116,223.5474,281.3934,221.4455z M64.4434,204.5203v0.0083c0-0.0013-0.0002-0.0025-0.0002-0.0038
		C64.4432,204.5233,64.4434,204.5219,64.4434,204.5203z M93.2249,188.6748c7.7581,0,14.2029,5.5773,15.5713,12.9387H240.719
		c1.3682-7.3613,7.813-12.9387,15.5711-12.9387c8.7537,0,15.8499,7.0962,15.8499,15.8499s-7.0962,15.8499-15.8499,15.8499
		c-7.7581,0-14.2029-5.5773-15.5711-12.9387H108.7962c-1.3684,7.3613-7.8132,12.9387-15.5713,12.9387
		c-8.7534,0-15.8496-7.0962-15.8496-15.8499S84.4715,188.6748,93.2249,188.6748z"/>
	<path d="M93.2249,210.5627c3.335,0,6.0381-2.7033,6.0381-6.038s-2.7031-6.038-6.0381-6.038c-3.3345,0-6.0378,2.7033-6.0378,6.038
		S89.8904,210.5627,93.2249,210.5627z"/>
	<path d="M256.2901,210.5627c3.3347,0,6.0378-2.7033,6.0378-6.038s-2.7031-6.038-6.0378-6.038c-3.3347,0-6.0381,2.7033-6.0381,6.038
		S252.9554,210.5627,256.2901,210.5627z"/>
</g>
</svg>
