<svg xmlns="http://www.w3.org/2000/svg" xmlns:xlink="http://www.w3.org/1999/xlink" width="5000" zoomAndPan="magnify" viewBox="86 86 3579 3579" height="5000" preserveAspectRatio="xMidYMid meet" version="1.2"><defs><clipPath id="db196299ed"><path d="M 733 680.738281 L 3377 680.738281 L 3377 2576 L 733 2576 Z M 733 680.738281 "/></clipPath><clipPath id="94b9b3fde5"><path d="M 248.292969 1570 L 1755 1570 L 1755 3069.488281 L 248.292969 3069.488281 Z M 248.292969 1570 "/></clipPath><clipPath id="536334b32a"><path d="M 2540 2078 L 3501.792969 2078 L 3501.792969 3046 L 2540 3046 Z M 2540 2078 "/></clipPath></defs><g id="395472860c"><g clip-rule="nonzero" clip-path="url(#db196299ed)"><path style=" stroke:none;fill-rule:nonzero;fill:#000000;fill-opacity:1;" d="M 856.847656 685.894531 C 792.511719 700.972656 745.265625 757.773438 754.816406 808.542969 C 758.335938 827.644531 788.996094 866.347656 801.058594 866.347656 C 813.121094 866.347656 813.625 875.898438 806.085938 930.183594 C 801.5625 960.34375 791.507812 1036.246094 782.964844 1100.082031 C 769.894531 1200.109375 757.328125 1296.117188 737.726562 1443.394531 C 731.195312 1490.644531 731.195312 1496.171875 739.234375 1506.730469 C 745.769531 1515.273438 748.28125 1515.273438 798.542969 1503.210938 C 889.519531 1481.09375 919.675781 1478.078125 1034.777344 1481.09375 C 1127.761719 1483.105469 1149.875 1485.113281 1197.625 1496.675781 C 1359.46875 1535.378906 1493.164062 1609.773438 1600.726562 1722.367188 C 1798.757812 1929.460938 1876.164062 2214.96875 1814.84375 2511.035156 C 1807.304688 2547.226562 1807.304688 2550.742188 1815.34375 2562.808594 L 1823.386719 2575.375 L 2421.003906 2575.375 L 2431.054688 2562.304688 C 2437.085938 2554.765625 2441.609375 2542.699219 2441.609375 2535.160156 C 2441.609375 2507.011719 2462.21875 2403.464844 2474.78125 2368.28125 C 2557.714844 2138.0625 2771.328125 1987.265625 3014.597656 1987.265625 C 3119.140625 1987.265625 3253.339844 2024.964844 3322.199219 2073.222656 C 3338.285156 2084.78125 3357.886719 2085.285156 3368.441406 2074.730469 C 3375.476562 2068.195312 3376.484375 2051.605469 3375.980469 1965.652344 C 3375.476562 1813.347656 3370.453125 1743.984375 3356.882812 1709.800781 C 3334.765625 1651.996094 3272.945312 1602.234375 3209.109375 1589.667969 C 3175.9375 1583.132812 3003.035156 1567.046875 2888.941406 1560.011719 C 2835.664062 1556.492188 2796.960938 1551.464844 2790.929688 1547.445312 C 2781.382812 1541.414062 2780.878906 1535.378906 2780.878906 1365.984375 C 2780.375 1191.566406 2780.375 1190.558594 2768.816406 1169.449219 C 2762.28125 1157.886719 2749.714844 1144.816406 2740.167969 1139.792969 C 2727.097656 1132.753906 2723.578125 1127.226562 2720.5625 1109.632812 C 2714.53125 1068.414062 2733.632812 996.03125 2756.25 975.925781 C 2761.277344 971.402344 2778.367188 962.855469 2794.449219 956.824219 C 2825.613281 945.265625 2838.175781 930.6875 2842.199219 901.53125 C 2845.214844 879.417969 2835.160156 857.300781 2815.054688 841.214844 C 2795.957031 826.132812 2755.246094 829.652344 2710.511719 850.261719 C 2626.574219 889.972656 2582.34375 972.910156 2582.34375 1092.039062 L 2582.34375 1131.75 L 2565.253906 1141.800781 C 2530.070312 1162.410156 2528.5625 1170.957031 2525.546875 1355.429688 C 2524.039062 1456.464844 2521.023438 1522.8125 2518.007812 1525.832031 C 2514.488281 1529.347656 2475.789062 1527.339844 2398.382812 1520.300781 C 2335.054688 1514.773438 2264.183594 1508.738281 2240.5625 1506.730469 C 2216.9375 1505.222656 2193.816406 1501.703125 2189.292969 1499.191406 C 2175.722656 1491.648438 2166.675781 1471.039062 2123.453125 1346.382812 C 2101.839844 1282.546875 2077.210938 1211.671875 2068.664062 1188.046875 C 2060.625 1164.421875 2050.570312 1135.265625 2046.550781 1122.699219 C 2042.53125 1110.132812 2033.984375 1085.503906 2026.949219 1067.410156 C 2003.828125 1005.078125 1958.089844 870.871094 1960.101562 869.363281 C 1960.601562 868.859375 1971.660156 865.339844 1984.226562 861.824219 C 2013.378906 853.277344 2042.53125 824.625 2047.054688 799.492188 C 2056.601562 749.226562 2023.429688 700.472656 1969.648438 685.390625 C 1947.03125 678.855469 883.992188 679.359375 856.847656 685.894531 Z M 1752.519531 880.421875 C 1785.691406 898.015625 1795.242188 910.582031 1810.320312 954.3125 C 1818.359375 976.429688 1829.921875 1009.101562 1835.953125 1027.195312 C 1842.488281 1045.292969 1872.644531 1132.25 1903.804688 1220.71875 C 1934.464844 1309.1875 1965.125 1396.144531 1971.660156 1414.242188 C 1999.304688 1487.125 1999.304688 1488.132812 1999.304688 1642.949219 C 1999.304688 1791.734375 1996.289062 1823.90625 1981.710938 1834.460938 C 1972.664062 1841.496094 1875.15625 1849.039062 1860.078125 1844.511719 C 1854.550781 1843.003906 1829.921875 1810.332031 1804.789062 1772.132812 C 1709.796875 1629.378906 1593.1875 1524.324219 1448.933594 1452.441406 C 1313.730469 1385.589844 1183.550781 1353.921875 1041.308594 1353.921875 C 955.863281 1353.921875 956.871094 1354.425781 960.890625 1296.621094 C 962.902344 1271.488281 969.9375 1210.164062 976.472656 1160.398438 C 983.007812 1110.636719 992.054688 1037.25 996.578125 997.039062 C 1005.625 922.140625 1011.65625 899.019531 1025.730469 886.957031 C 1049.855469 866.851562 1059.40625 866.851562 1401.1875 867.855469 L 1730.402344 868.859375 Z M 1752.519531 880.421875 "/></g><g clip-rule="nonzero" clip-path="url(#94b9b3fde5)"><path style=" stroke:none;fill-rule:nonzero;fill:#000000;fill-opacity:1;" d="M 865.894531 1580.621094 C 636.703125 1621.335938 439.171875 1764.089844 331.609375 1967.160156 C 298.4375 2029.492188 277.832031 2086.289062 261.746094 2160.683594 C 250.1875 2213.460938 248.175781 2232.5625 248.175781 2311.480469 C 248.175781 2390.898438 249.683594 2409.496094 261.746094 2465.292969 C 295.421875 2621.113281 361.265625 2743.261719 470.835938 2851.832031 C 615.589844 2995.59375 795.027344 3068.980469 1001.601562 3069.484375 C 1159.929688 3069.484375 1309.207031 3021.730469 1441.394531 2928.238281 C 1702.253906 2744.265625 1816.351562 2405.476562 1721.859375 2095.839844 C 1642.445312 1833.453125 1408.726562 1630.382812 1129.269531 1580.117188 C 1054.378906 1566.546875 943.800781 1567.046875 865.894531 1580.621094 Z M 1119.71875 1909.355469 C 1273.519531 1959.117188 1377.5625 2069.199219 1414.253906 2221.503906 C 1425.816406 2269.257812 1427.324219 2283.332031 1424.808594 2331.585938 C 1421.792969 2397.433594 1408.222656 2451.21875 1381.585938 2504.5 C 1248.890625 2767.890625 904.09375 2824.691406 699.027344 2616.589844 C 648.765625 2565.824219 618.605469 2515.054688 593.476562 2440.160156 C 582.921875 2408.996094 579.90625 2388.886719 577.894531 2333.597656 C 575.882812 2271.265625 576.890625 2260.710938 588.953125 2213.964844 C 610.0625 2131.027344 646.25 2069.199219 705.558594 2011.898438 C 758.335938 1962.132812 804.578125 1933.484375 868.910156 1912.371094 C 922.1875 1894.777344 942.796875 1892.265625 1011.65625 1893.773438 C 1066.441406 1895.28125 1084.03125 1897.792969 1119.71875 1909.355469 Z M 1119.71875 1909.355469 "/></g><path style=" stroke:none;fill-rule:nonzero;fill:#000000;fill-opacity:1;" d="M 964.910156 2118.460938 C 881.980469 2134.546875 818.648438 2200.394531 802.566406 2286.851562 C 795.027344 2326.058594 800.050781 2362.75 817.644531 2401.957031 C 870.921875 2518.574219 1009.644531 2555.769531 1118.714844 2482.382812 C 1182.546875 2439.152344 1217.226562 2348.171875 1198.128906 2273.78125 C 1187.070312 2230.550781 1178.527344 2214.46875 1149.875 2182.296875 C 1121.226562 2150.128906 1079.007812 2126 1037.289062 2118.460938 C 1003.613281 2112.429688 995.570312 2112.429688 964.910156 2118.460938 Z M 964.910156 2118.460938 "/><g clip-rule="nonzero" clip-path="url(#536334b32a)"><path style=" stroke:none;fill-rule:nonzero;fill:#000000;fill-opacity:1;" d="M 2917.589844 2085.285156 C 2828.125 2103.378906 2741.675781 2150.128906 2676.332031 2216.980469 C 2631.097656 2262.722656 2610.992188 2291.875 2584.355469 2346.664062 C 2546.15625 2426.585938 2539.621094 2458.757812 2540.125 2560.292969 C 2540.625 2640.71875 2541.632812 2652.28125 2554.195312 2692.996094 C 2606.46875 2865.40625 2731.621094 2987.046875 2904.019531 3033.292969 C 2963.328125 3049.378906 3072.902344 3049.878906 3133.71875 3034.296875 C 3316.671875 2987.550781 3454.390625 2842.785156 3492.589844 2659.316406 C 3513.195312 2558.285156 3498.117188 2436.136719 3453.886719 2347.671875 C 3385.027344 2209.945312 3254.847656 2111.421875 3107.582031 2084.78125 C 3058.324219 2076.238281 2963.328125 2076.238281 2917.589844 2085.285156 Z M 3120.148438 2324.550781 C 3255.351562 2388.886719 3309.632812 2547.226562 3241.78125 2677.414062 C 3209.109375 2740.246094 3150.808594 2787.492188 3084.460938 2804.585938 C 3035.707031 2817.152344 2960.816406 2812.125 2919.097656 2793.527344 C 2860.796875 2767.386719 2811.539062 2715.113281 2785.90625 2652.28125 C 2756.25 2580.398438 2765.800781 2486.402344 2808.523438 2420.054688 C 2842.199219 2368.28125 2903.519531 2322.035156 2956.292969 2308.464844 C 2964.835938 2306.453125 2997.003906 2304.945312 3027.164062 2305.449219 C 3078.933594 2306.453125 3084.460938 2307.457031 3120.148438 2324.550781 Z M 3120.148438 2324.550781 "/></g><path style=" stroke:none;fill-rule:nonzero;fill:#000000;fill-opacity:1;" d="M 2980.417969 2457.25 C 2937.191406 2476.351562 2909.046875 2515.558594 2909.046875 2558.285156 C 2909.046875 2587.941406 2931.664062 2629.660156 2958.304688 2648.257812 C 2985.949219 2667.359375 3037.71875 2671.882812 3066.871094 2658.3125 C 3109.089844 2638.207031 3134.21875 2591.457031 3128.1875 2542.699219 C 3120.648438 2476.351562 3041.234375 2430.609375 2980.417969 2457.25 Z M 2980.417969 2457.25 "/></g></svg>