<?xml version="1.0" encoding="UTF-8"?>
<svg width="1200pt" height="1200pt" version="1.1" viewBox="383 326 567 567" xmlns="http://www.w3.org/2000/svg">
 <path d="m490.87 539.98h12.301v-13.375l-1.7344-7.2852v-13.375h-9.2734v13.375l-1.293 7.2852zm27.973 47.461h-27.973v-6.8086h27.973v-6.8047h-27.973v-6.8047h27.973v-6.8086h-27.973v-6.8047h27.973l-3.2109-13.43h-28.926l-7.7266-29.223v-7.8867h-120.68v7.8867h14.086l-11.84 66.414-87.793 13.559h-3.9531l-7.8164 81.559h-6.6172v24.852h120.86v-10.277c-0.35547-36.859 38.098-65.391 74.113-65.391 33.73 0 65.734 24.066 71.141 50.816h82.129l26.34-26.191 0.050781-15.172h-110.16zm-81.309-71.996h21.422l6.5742 58.031h-27.996zm-65.145 58.031 7.3281-58.031h49.645v58.031z"/>
 <path d="m923.04 569.04h-388.45v51.57h379.86z"/>
 <path d="m696.46 628.68c-37.172 0-67.297 30.117-67.297 67.289s30.125 67.309 67.297 67.309c37.168 0 67.309-30.137 67.309-67.309s-30.141-67.289-67.309-67.289zm-0.019531 39.414c15.398 0 27.883 12.477 27.883 27.875 0 15.398-12.484 27.883-27.883 27.883s-27.875-12.484-27.875-27.883c0-15.398 12.477-27.875 27.875-27.875z"/>
 <path d="m853.15 630.09c-37.172 0-67.297 30.117-67.297 67.289 0 37.168 30.125 67.305 67.297 67.305 37.168 0 67.305-30.137 67.305-67.305 0-37.172-30.137-67.289-67.305-67.289zm-0.019532 39.414c15.395 0 27.883 12.477 27.883 27.875 0 15.395-12.488 27.883-27.883 27.883-15.398 0-27.875-12.488-27.875-27.883 0-15.398 12.477-27.875 27.875-27.875z"/>
 <path d="m450.09 629.41c-37.164 0-67.297 30.113-67.297 67.277 0 37.168 30.133 67.301 67.297 67.301 37.168 0 67.309-30.133 67.309-67.301 0-37.164-30.141-67.277-67.309-67.277zm-0.019532 39.41c15.395 0 27.891 12.473 27.891 27.867 0 15.398-12.496 27.879-27.891 27.879-15.395 0-27.859-12.48-27.859-27.879 0-15.395 12.465-27.867 27.859-27.867z"/>
 <path d="m595.75 455.57h-105.53v16.77h24.523l19.379 84.09h392.82l22.656-38.473h-22.656v-10.281h22.656v-17.711h-298.12z"/>
 <path d="m782.76 668.13 15.234-38.898h-45.703l15.234 38.898z"/>
</svg>
