<svg xmlns="http://www.w3.org/2000/svg" xmlns:xlink="http://www.w3.org/1999/xlink" width="5000" zoomAndPan="magnify" viewBox="-1 -1 3753 3753" height="5000" preserveAspectRatio="xMidYMid meet" version="1.2"><defs><clipPath id="0ae31fed65"><path d="M 181 889.785156 L 1879 889.785156 L 1879 2149 L 181 2149 Z M 181 889.785156 "/></clipPath><clipPath id="e4c82909ec"><path d="M 169 2216 L 2390 2216 L 2390 2860.035156 L 169 2860.035156 Z M 169 2216 "/></clipPath></defs><g id="0c1da042c4"><g clip-rule="nonzero" clip-path="url(#0ae31fed65)"><path style=" stroke:none;fill-rule:nonzero;fill:#000000;fill-opacity:1;" d="M 1014.96875 891.792969 C 825.253906 893.6875 744.152344 896.058594 737.511719 900.328125 C 716.644531 912.183594 705.261719 929.730469 702.890625 952.964844 C 700.042969 984.738281 711.425781 1007.5 737.984375 1023.148438 C 757.90625 1035.003906 758.855469 1036.429688 758.855469 1057.292969 C 758.855469 1077.210938 740.359375 1354.15625 731.820312 1461.328125 L 728.027344 1506.378906 L 571.511719 1506.378906 L 568.667969 1437.617188 C 565.347656 1361.269531 560.128906 1340.875 534.042969 1305.308594 C 505.585938 1266.898438 464.796875 1243.1875 424.484375 1242.238281 C 389.386719 1241.289062 374.683594 1254.09375 374.683594 1285.867188 C 374.683594 1312.898438 380.375 1320.960938 407.882812 1332.339844 C 454.839844 1352.730469 465.746094 1377.390625 463.851562 1458.957031 L 462.425781 1515.863281 L 429.226562 1519.65625 C 322.039062 1531.039062 294.53125 1540.523438 259.90625 1576.5625 C 240.9375 1596.953125 221.964844 1629.675781 216.746094 1651.488281 C 212.003906 1669.984375 191.136719 1880.535156 184.496094 1970.164062 C 178.332031 2057.894531 180.703125 2075.914062 202.519531 2104.84375 C 209.160156 2113.378906 226.234375 2126.183594 240.9375 2133.296875 L 267.96875 2146.574219 L 1063.820312 2147.996094 C 1611.144531 2148.46875 1862.515625 2147.523438 1868.679688 2144.203125 C 1878.164062 2139.460938 1878.164062 2132.347656 1878.164062 1862.992188 C 1878.164062 1595.058594 1877.691406 1586.046875 1868.207031 1551.429688 C 1855.398438 1506.851562 1785.679688 1296.300781 1760.542969 1226.589844 C 1750.109375 1197.664062 1734.929688 1154.984375 1726.394531 1131.746094 C 1685.605469 1016.984375 1644.816406 963.871094 1564.1875 922.617188 C 1495.890625 887.996094 1481.1875 887.050781 1014.96875 891.792969 Z M 1485.933594 1048.285156 C 1520.082031 1065.355469 1558.496094 1102.34375 1574.148438 1133.644531 C 1579.367188 1143.128906 1599.285156 1198.609375 1619.207031 1257.414062 C 1638.652344 1316.21875 1670.902344 1411.058594 1690.824219 1468.441406 L 1726.394531 1572.769531 L 1726.394531 1673.304688 C 1726.394531 1768.148438 1725.917969 1774.3125 1717.382812 1779.054688 C 1704.101562 1786.167969 1512.019531 1785.21875 1487.355469 1778.105469 C 1466.011719 1771.941406 1457.476562 1763.40625 1357.875 1651.015625 C 1273.453125 1555.222656 1288.15625 1560.914062 1118.835938 1560.914062 C 985.5625 1560.914062 982.714844 1560.914062 967.066406 1550.007812 C 936.710938 1529.613281 936.710938 1530.5625 935.289062 1323.804688 C 933.390625 1116.097656 935.289062 1096.652344 959.003906 1069.625 C 991.726562 1032.632812 1005.957031 1030.738281 1280.566406 1031.6875 L 1453.679688 1032.160156 Z M 1485.933594 1048.285156 "/></g><path style=" stroke:none;fill-rule:nonzero;fill:#000000;fill-opacity:1;" d="M 1974.917969 1638.683594 C 1943.617188 1652.910156 1944.566406 1642.953125 1944.566406 1899.980469 C 1944.566406 2079.234375 1945.988281 2134.71875 1950.730469 2140.410156 C 1955.472656 2146.574219 1971.125 2148.46875 2044.164062 2150.367188 C 2146.609375 2153.210938 2173.644531 2158.902344 2237.671875 2190.203125 C 2284.625 2212.964844 2315.929688 2235.253906 2354.820312 2273.664062 C 2369.050781 2287.417969 2379.007812 2294.054688 2379.957031 2290.261719 C 2380.433594 2286.941406 2365.730469 2249.953125 2347.230469 2208.222656 C 2328.734375 2166.492188 2308.339844 2120.492188 2302.648438 2106.265625 C 2296.484375 2092.039062 2278.460938 2050.308594 2262.335938 2013.792969 C 2246.210938 1977.277344 2225.816406 1929.382812 2217.277344 1908.042969 L 2201.152344 1868.207031 L 2208.265625 1822.683594 C 2217.753906 1762.929688 2217.753906 1726.890625 2208.742188 1709.816406 C 2198.308594 1689.902344 2172.695312 1667.136719 2151.351562 1658.128906 C 2106.769531 1639.632812 1999.109375 1627.777344 1974.917969 1638.683594 Z M 1974.917969 1638.683594 "/><path style=" stroke:none;fill-rule:nonzero;fill:#000000;fill-opacity:1;" d="M 2265.179688 1808.929688 L 2256.644531 1867.257812 L 2271.820312 1899.980469 C 2335.847656 2037.503906 2329.683594 2026.597656 2381.855469 2081.132812 C 2408.890625 2109.109375 2437.820312 2141.832031 2445.882812 2153.6875 C 2453.945312 2165.542969 2490.464844 2232.40625 2527.933594 2303.066406 C 2564.929688 2373.25 2599.078125 2437.269531 2603.820312 2445.332031 C 2608.089844 2452.917969 2624.214844 2482.792969 2639.390625 2511.722656 C 2654.566406 2540.175781 2670.21875 2567.679688 2674.488281 2572.894531 C 2690.140625 2590.917969 2709.109375 2594.710938 2790.6875 2594.710938 L 2868.945312 2594.710938 L 2886.019531 2627.429688 C 2908.308594 2669.636719 2934.871094 2696.667969 2973.761719 2715.160156 L 3004.589844 2729.863281 L 3270.1875 2731.285156 C 3523.457031 2732.234375 3536.261719 2731.757812 3550.492188 2723.222656 C 3566.617188 2713.265625 3580.84375 2687.65625 3580.84375 2668.6875 C 3580.84375 2636.441406 3550.015625 2604.195312 3519.1875 2604.195312 C 3490.730469 2604.195312 3493.101562 2607.039062 3426.703125 2483.269531 C 3418.164062 2467.621094 3385.441406 2407.867188 3354.613281 2350.488281 C 3299.121094 2248.53125 3288.6875 2230.035156 3241.730469 2141.832031 C 3158.730469 1987.234375 3118.890625 1917.527344 3108.457031 1908.042969 C 3098.972656 1899.980469 3090.910156 1897.609375 3070.039062 1897.609375 C 3034.46875 1897.609375 3014.074219 1912.308594 3009.332031 1940.761719 C 3006.011719 1960.207031 2973.285156 2034.183594 2909.257812 2165.542969 L 2877.007812 2231.933594 L 2874.636719 2317.292969 L 2871.789062 2402.652344 L 2849.023438 2404.074219 L 2826.734375 2405.496094 L 2761.757812 2271.292969 C 2725.710938 2197.316406 2682.550781 2109.109375 2665.476562 2075.441406 L 2634.648438 2013.792969 L 2574.886719 1968.742188 C 2435.921875 1864.414062 2279.882812 1750.601562 2275.613281 1750.601562 C 2274.667969 1750.601562 2269.921875 1776.683594 2265.179688 1808.929688 Z M 2265.179688 1808.929688 "/><g clip-rule="nonzero" clip-path="url(#e4c82909ec)"><path style=" stroke:none;fill-rule:nonzero;fill:#000000;fill-opacity:1;" d="M 431.597656 2222.449219 C 360.929688 2237.148438 313.5 2262.28125 262.753906 2312.550781 C 199.199219 2375.621094 168.371094 2450.546875 169.320312 2540.175781 C 170.742188 2681.964844 254.691406 2793.882812 398.398438 2846.519531 L 429.226562 2857.902344 L 1266.339844 2859.324219 C 2206.84375 2860.746094 2131.90625 2863.59375 2212.535156 2824.707031 C 2331.582031 2767.324219 2397.980469 2651.140625 2388.496094 2516.464844 C 2385.175781 2464.300781 2380.433594 2447.226562 2356.242188 2395.539062 C 2340.59375 2362.816406 2329.683594 2347.640625 2296.007812 2314.445312 C 2252.375 2270.820312 2213.957031 2247.582031 2153.25 2227.664062 C 2122.421875 2217.707031 2121.945312 2217.707031 1292.425781 2216.757812 C 616.09375 2216.285156 456.734375 2217.230469 431.597656 2222.449219 Z M 568.667969 2376.09375 C 593.328125 2388.898438 631.746094 2423.515625 645.5 2446.28125 C 667.792969 2482.320312 673.957031 2534.484375 661.625 2582.855469 C 648.820312 2631.699219 613.25 2673.90625 564.398438 2698.089844 C 541.160156 2709.472656 533.09375 2710.894531 490.410156 2710.894531 C 445.828125 2710.894531 441.085938 2709.945312 411.203125 2694.769531 C 376.582031 2677.222656 355.714844 2655.410156 333.894531 2613.679688 C 321.089844 2589.492188 320.140625 2583.328125 320.140625 2537.804688 C 320.140625 2492.277344 321.089844 2485.640625 333.894531 2461.929688 C 353.816406 2423.042969 375.160156 2399.332031 403.617188 2384.15625 C 438.238281 2365.1875 451.042969 2362.34375 502.742188 2364.238281 C 538.3125 2365.1875 552.066406 2368.035156 568.667969 2376.09375 Z M 2128.585938 2369.457031 C 2215.382812 2395.539062 2265.179688 2506.03125 2232.929688 2599.453125 C 2219.175781 2638.339844 2184.078125 2677.222656 2145.1875 2696.667969 C 2120.050781 2709.945312 2113.410156 2710.894531 2067.878906 2710.894531 C 2024.71875 2710.894531 2014.757812 2709.472656 1994.839844 2699.511719 C 1891.445312 2648.769531 1861.089844 2520.257812 1930.335938 2424.941406 C 1945.988281 2403.125 1985.828125 2375.148438 2011.4375 2368.035156 C 2036.574219 2360.445312 2101.554688 2361.394531 2128.585938 2369.457031 Z M 1827.417969 2369.929688 C 1838.800781 2374.199219 1837.375 2382.261719 1821.25 2414.507812 L 1807.023438 2442.960938 L 1288.628906 2443.910156 C 1004.058594 2444.855469 768.816406 2444.855469 765.96875 2443.910156 C 758.378906 2442.011719 730.398438 2392.691406 730.398438 2381.785156 C 730.398438 2371.828125 730.398438 2371.828125 973.707031 2370.878906 C 1701.257812 2367.085938 1819.828125 2367.085938 1827.417969 2369.929688 Z M 1794.691406 2623.164062 C 1800.855469 2623.164062 1830.738281 2676.75 1830.738281 2687.65625 C 1830.738281 2693.347656 1741.097656 2694.296875 1280.566406 2694.296875 C 784.464844 2694.296875 730.398438 2693.347656 730.398438 2686.707031 C 730.398438 2677.222656 737.984375 2662.523438 755.058594 2641.183594 L 769.289062 2623.164062 L 1272.503906 2622.214844 C 1549.484375 2621.265625 1779.039062 2621.265625 1782.359375 2621.742188 C 1786.152344 2622.6875 1791.371094 2623.164062 1794.691406 2623.164062 Z M 1794.691406 2623.164062 "/></g><path style=" stroke:none;fill-rule:nonzero;fill:#000000;fill-opacity:1;" d="M 453.414062 2468.09375 C 426.855469 2482.792969 415.945312 2499.867188 413.574219 2529.269531 C 411.203125 2561.515625 420.214844 2584.75 442.980469 2601.824219 C 509.382812 2652.089844 602.339844 2573.371094 563.449219 2499.867188 C 548.746094 2473.308594 523.136719 2457.1875 493.253906 2457.1875 C 479.976562 2457.1875 464.796875 2461.453125 453.414062 2468.09375 Z M 453.414062 2468.09375 "/><path style=" stroke:none;fill-rule:nonzero;fill:#000000;fill-opacity:1;" d="M 2032.308594 2463.824219 C 1977.765625 2488.011719 1970.652344 2569.578125 2020.449219 2602.296875 C 2046.535156 2619.371094 2079.261719 2621.742188 2105.820312 2607.988281 C 2137.597656 2591.390625 2149.929688 2570.523438 2147.558594 2535.433594 C 2146.136719 2514.566406 2142.816406 2502.238281 2134.753906 2490.855469 C 2113.882812 2461.929688 2065.507812 2449.125 2032.308594 2463.824219 Z M 2032.308594 2463.824219 "/></g></svg>