<svg xmlns="http://www.w3.org/2000/svg" xmlns:xlink="http://www.w3.org/1999/xlink" width="5000" zoomAndPan="magnify" viewBox="-24 -24 3798 3798" height="5000" preserveAspectRatio="xMidYMid meet" version="1.2"><defs><clipPath id="141890d601"><path d="M 1752 706.453125 L 3601.414062 706.453125 L 3601.414062 2667 L 1752 2667 Z M 1752 706.453125 "/></clipPath><clipPath id="93361606e7"><path d="M 148.414062 1245 L 2080 1245 L 2080 3043.453125 L 148.414062 3043.453125 Z M 148.414062 1245 "/></clipPath></defs><g id="6aecbeb6da"><g clip-rule="nonzero" clip-path="url(#141890d601)"><path style=" stroke:none;fill-rule:nonzero;fill:#000000;fill-opacity:1;" d="M 3011.203125 709.269531 C 2984.957031 715.949219 2946.785156 764.621094 2946.785156 792.292969 C 2946.785156 801.359375 2935.8125 806.609375 2870.441406 831.898438 C 2845.628906 841.917969 2817.476562 852.417969 2808.410156 856.234375 C 2786.9375 865.300781 2547.886719 956.914062 2508.28125 971.707031 C 2466.769531 986.976562 2301.671875 1052.347656 2269.226562 1065.707031 C 2254.914062 1071.910156 2225.804688 1083.839844 2204.8125 1092.90625 C 2154.234375 1114.378906 2089.816406 1157.320312 2058.800781 1191.199219 C 2032.558594 1220.308594 1989.613281 1283.769531 1953.351562 1347.707031 C 1926.152344 1395.902344 1895.136719 1449.820312 1819.75 1579.132812 C 1786.824219 1635.4375 1757.71875 1686.492188 1754.378906 1692.695312 C 1749.128906 1702.238281 1754.378906 1721.324219 1794.460938 1842.046875 C 1852.195312 2016.210938 1858.398438 2041.023438 1862.214844 2110.210938 C 1864.125 2147.429688 1866.988281 2166.039062 1870.328125 2164.605469 C 1876.53125 2163.175781 1872.710938 2170.332031 2046.875 1817.710938 C 2118.921875 1672.175781 2186.679688 1539.050781 2198.132812 1522.828125 C 2209.582031 1506.125 2232.488281 1479.40625 2249.664062 1463.660156 C 2295.472656 1422.144531 2339.367188 1403.058594 2461.042969 1371.566406 C 2516.871094 1357.730469 2608.960938 1333.871094 2665.265625 1319.554688 C 2721.570312 1305.242188 2804.59375 1284.246094 2848.96875 1273.273438 C 2893.820312 1262.773438 2938.675781 1251.324219 2949.171875 1248.9375 C 2973.984375 1242.734375 3001.660156 1214.582031 3008.816406 1188.335938 C 3020.746094 1142.53125 2994.023438 1096.246094 2946.308594 1082.40625 C 2930.5625 1077.636719 2906.226562 1078.589844 2802.207031 1089.089844 C 2733.496094 1096.246094 2642.839844 1105.3125 2600.847656 1109.128906 C 2558.859375 1113.421875 2502.078125 1119.625 2474.402344 1122.964844 C 2446.730469 1126.308594 2422.394531 1127.738281 2420.007812 1125.351562 C 2415.714844 1121.535156 2420.007812 1119.148438 2460.089844 1104.355469 C 2469.15625 1101.015625 2509.234375 1084.792969 2548.363281 1068.570312 C 2587.964844 1052.347656 2649.042969 1027.058594 2684.351562 1012.742188 C 2719.660156 998.429688 2777.875 974.570312 2813.183594 960.253906 C 2894.777344 926.375 2938.195312 911.109375 2942.96875 913.96875 C 2944.878906 915.402344 2946.785156 941.644531 2946.785156 972.183594 L 2946.785156 1028.011719 L 2969.6875 1036.125 C 3002.613281 1048.53125 3021.222656 1060.9375 3037.445312 1083.363281 C 3080.867188 1143.484375 3073.230469 1216.011719 3018.359375 1268.976562 L 2991.160156 1295.699219 L 3136.214844 1681.71875 C 3215.902344 1894.535156 3284.132812 2077.285156 3287.949219 2088.261719 C 3294.152344 2108.300781 3293.675781 2109.257812 3276.5 2135.976562 C 3251.210938 2174.625 3129.058594 2348.3125 3100.90625 2384.578125 C 3026.949219 2481.917969 2927.699219 2544.902344 2840.859375 2550.628906 C 2793.140625 2553.492188 2779.78125 2556.355469 2779.78125 2561.601562 C 2779.78125 2571.148438 2883.800781 2624.589844 2919.589844 2633.175781 C 2932.472656 2636.039062 2967.78125 2638.425781 2998.320312 2637.949219 C 3038.875 2637.472656 3082.773438 2641.289062 3158.640625 2652.265625 C 3276.5 2668.964844 3299.878906 2669.917969 3347.117188 2659.898438 C 3444.933594 2639.378906 3530.34375 2558.742188 3554.679688 2463.785156 C 3569.949219 2403.664062 3561.835938 2327.316406 3533.207031 2269.105469 C 3516.984375 2235.703125 3516.507812 2229.023438 3528.4375 2205.164062 C 3533.207031 2195.621094 3545.136719 2166.992188 3555.15625 2142.179688 C 3565.175781 2117.367188 3579.492188 2085.875 3587.125 2072.039062 C 3597.148438 2054.382812 3600.964844 2041.023438 3601.441406 2023.84375 C 3601.441406 1996.167969 3595.238281 1982.332031 3576.152344 1965.628906 C 3564.222656 1955.609375 3556.589844 1935.570312 3521.277344 1824.867188 C 3492.171875 1731.34375 3481.675781 1691.742188 3483.105469 1679.8125 C 3485.492188 1664.542969 3474.039062 1617.78125 3453.046875 1555.273438 C 3443.980469 1529.03125 3402.46875 1389.222656 3379.5625 1309.535156 C 3372.882812 1285.679688 3360.476562 1244.164062 3352.367188 1216.488281 C 3341.871094 1181.65625 3336.144531 1151.117188 3333.757812 1116.285156 C 3330.894531 1078.113281 3327.554688 1060.9375 3319.441406 1044.710938 C 3309.421875 1025.148438 3266.957031 961.210938 3203.015625 868.164062 C 3104.722656 725.96875 3104.722656 725.96875 3083.730469 715.949219 C 3064.164062 706.40625 3034.105469 703.542969 3011.203125 709.269531 Z M 3303.695312 1403.535156 C 3306.558594 1412.125 3315.148438 1442.664062 3323.738281 1471.769531 C 3332.324219 1500.398438 3344.253906 1540.480469 3349.980469 1560.046875 C 3356.183594 1579.609375 3368.113281 1619.210938 3376.222656 1648.320312 C 3384.8125 1676.949219 3395.789062 1705.101562 3400.558594 1710.351562 C 3405.332031 1715.597656 3419.167969 1753.292969 3430.621094 1793.851562 C 3442.546875 1834.410156 3455.433594 1877.832031 3459.25 1890.238281 C 3463.066406 1902.644531 3464.976562 1914.097656 3462.589844 1915.050781 C 3459.726562 1916.960938 3379.085938 1888.808594 3374.316406 1884.035156 C 3372.40625 1882.128906 3362.386719 1827.253906 3335.1875 1672.175781 C 3298.449219 1457.933594 3287.472656 1392.5625 3289.859375 1390.652344 C 3295.109375 1384.925781 3299.402344 1389.222656 3303.695312 1403.535156 Z M 3445.890625 2025.753906 C 3467.359375 2033.386719 3481.199219 2041.023438 3481.199219 2045.316406 C 3481.199219 2049.132812 3474.039062 2068.21875 3464.976562 2087.785156 C 3451.136719 2116.890625 3446.84375 2122.617188 3439.6875 2119.753906 C 3423.460938 2114.027344 3419.167969 2107.824219 3419.167969 2088.738281 C 3419.167969 2078.242188 3417.257812 2066.3125 3414.398438 2061.539062 C 3406.761719 2046.746094 3400.558594 2013.347656 3405.808594 2013.347656 C 3408.195312 2013.347656 3426.324219 2019.074219 3445.890625 2025.753906 Z M 3445.890625 2025.753906 "/></g><g clip-rule="nonzero" clip-path="url(#93361606e7)"><path style=" stroke:none;fill-rule:nonzero;fill:#000000;fill-opacity:1;" d="M 840.152344 1251.800781 C 796.730469 1265.636719 773.351562 1285.199219 757.125 1321.941406 C 745.199219 1349.140625 739.472656 1389.222656 732.792969 1498.015625 C 724.203125 1634.960938 709.410156 1800.054688 705.59375 1803.875 C 699.867188 1809.597656 527.617188 1810.078125 521.890625 1804.351562 C 519.503906 1801.964844 515.6875 1766.65625 513.300781 1726.574219 C 508.53125 1634.960938 502.328125 1615.871094 466.0625 1579.609375 C 427.414062 1540.957031 389.71875 1530.460938 367.769531 1552.886719 C 348.683594 1571.496094 352.023438 1585.8125 383.515625 1616.828125 C 402.125 1634.960938 412.621094 1649.75 414.53125 1660.25 C 417.394531 1674.5625 419.300781 1807.691406 416.914062 1808.644531 C 415.960938 1808.644531 376.835938 1810.554688 329.121094 1812.460938 L 242.753906 1815.800781 L 216.035156 1832.027344 C 186.925781 1849.679688 165.457031 1875.449219 154.957031 1905.984375 C 146.847656 1930.320312 146.371094 2295.347656 154.957031 2325.886719 C 162.117188 2353.5625 186.449219 2380.28125 216.988281 2394.597656 L 243.710938 2407.003906 L 547.65625 2408.433594 L 851.125 2409.867188 L 853.035156 2434.679688 C 856.851562 2480.007812 876.890625 2476.191406 624 2476.191406 C 376.359375 2476.191406 372.539062 2476.667969 309.078125 2507.683594 C 245.140625 2538.699219 197.902344 2593.574219 171.179688 2668.011719 C 160.207031 2697.59375 158.296875 2710.953125 158.296875 2755.332031 C 158.296875 2799.230469 160.207031 2814.019531 170.703125 2845.035156 C 202.671875 2940.945312 277.109375 3009.179688 377.3125 3034.46875 C 415.484375 3044.011719 426.457031 3044.011719 1131.214844 3043.058594 L 1846.945312 3041.625 L 1879.390625 3031.128906 C 1953.351562 3007.269531 2020.628906 2950.488281 2051.644531 2885.117188 C 2073.59375 2838.355469 2079.320312 2812.589844 2079.796875 2760.101562 C 2079.796875 2677.074219 2055.460938 2619.339844 1995.339844 2559.21875 C 1968.621094 2532.496094 1947.148438 2516.273438 1925.675781 2505.777344 C 1866.03125 2476.667969 1858.875 2476.191406 1622.207031 2476.191406 C 1429.914062 2476.191406 1406.054688 2475.238281 1403.671875 2468.558594 C 1399.851562 2458.058594 1400.328125 2422.273438 1404.625 2415.59375 C 1407.011719 2411.773438 1449.953125 2409.390625 1560.652344 2408.433594 C 1708.09375 2407.003906 1714.296875 2406.527344 1737.199219 2396.027344 C 1767.261719 2382.191406 1781.574219 2368.832031 1792.550781 2344.972656 C 1800.664062 2327.796875 1801.617188 2312.046875 1801.617188 2199.4375 C 1801.617188 2062.972656 1799.707031 2047.703125 1772.988281 1970.402344 C 1765.351562 1947.976562 1741.972656 1874.96875 1720.5 1808.167969 C 1613.140625 1471.769531 1582.125 1383.019531 1561.609375 1349.140625 C 1545.386719 1321.941406 1509.121094 1286.632812 1483.355469 1272.792969 C 1433.730469 1245.597656 1428.003906 1245.121094 1131.214844 1245.597656 C 926.039062 1245.597656 854.464844 1247.027344 840.152344 1251.800781 Z M 1392.21875 1374.90625 C 1417.984375 1382.542969 1451.386719 1413.078125 1466.175781 1442.664062 C 1472.859375 1456.023438 1509.597656 1560.523438 1547.292969 1674.5625 C 1621.253906 1897.398438 1624.59375 1913.144531 1625.070312 2010.007812 C 1625.070312 2062.972656 1618.867188 2080.625 1596.441406 2092.078125 C 1585.464844 2097.804688 1563.039062 2099.234375 1486.695312 2099.234375 C 1401.761719 2099.234375 1388.878906 2098.28125 1373.132812 2090.167969 C 1352.613281 2079.671875 1325.894531 2051.996094 1276.746094 1991.875 C 1186.566406 1881.171875 1182.746094 1879.742188 1011.925781 1879.742188 C 882.617188 1879.742188 888.34375 1882.128906 883.09375 1821.527344 C 881.1875 1800.054688 880.710938 1697.945312 881.664062 1595.832031 C 883.09375 1393.515625 883.09375 1395.425781 910.769531 1378.722656 C 925.085938 1369.65625 936.535156 1369.179688 1149.824219 1369.179688 C 1307.285156 1369.179688 1378.859375 1370.613281 1392.21875 1374.90625 Z M 515.210938 2621.726562 C 565.789062 2647.492188 594.417969 2696.640625 594.417969 2759.148438 C 594.417969 2863.167969 495.644531 2933.789062 396.875 2900.863281 C 351.546875 2886.070312 328.164062 2866.507812 308.125 2827.382812 C 292.855469 2797.796875 291.425781 2790.640625 291.425781 2755.808594 C 291.902344 2705.226562 304.308594 2675.644531 339.617188 2643.675781 C 373.496094 2612.660156 395.445312 2605.023438 446.5 2606.457031 C 480.855469 2607.410156 491.351562 2609.796875 515.210938 2621.726562 Z M 1857.445312 2614.089844 C 1888.457031 2628.40625 1918.042969 2658.46875 1932.832031 2692.34375 C 1951.441406 2733.382812 1952.398438 2786.824219 1935.21875 2822.132812 C 1903.726562 2887.027344 1836.449219 2920.425781 1765.828125 2905.636719 C 1726.226562 2897.523438 1706.1875 2886.070312 1680.417969 2857.441406 C 1653.222656 2827.382812 1636.519531 2779.1875 1641.292969 2744.355469 C 1648.449219 2692.34375 1683.28125 2643.199219 1730.996094 2619.339844 C 1756.285156 2606.933594 1765.351562 2605.023438 1798.753906 2605.023438 C 1826.429688 2605.023438 1843.128906 2607.886719 1857.445312 2614.089844 Z M 1574.015625 2617.429688 C 1584.988281 2620.769531 1584.511719 2629.835938 1570.195312 2657.511719 L 1558.269531 2681.371094 L 1122.625 2681.371094 C 883.574219 2681.371094 685.078125 2679.460938 682.214844 2677.554688 C 673.625 2671.351562 656.445312 2639.859375 656.445312 2629.359375 L 656.445312 2619.339844 L 891.683594 2618.386719 C 1396.988281 2615.523438 1565.902344 2615.523438 1574.015625 2617.429688 Z M 1574.492188 2861.738281 C 1584.511719 2880.824219 1586.421875 2888.933594 1582.601562 2892.753906 C 1578.308594 2897.046875 1464.746094 2898.476562 1156.027344 2898.957031 C 924.609375 2899.433594 717.523438 2898.957031 696.050781 2897.523438 C 660.742188 2895.617188 656.445312 2894.183594 656.445312 2886.070312 C 656.445312 2873.664062 673.625 2840.265625 681.257812 2837.402344 C 684.597656 2835.96875 884.050781 2835.015625 1124.058594 2835.492188 L 1560.652344 2836.449219 Z M 1574.492188 2861.738281 "/></g><path style=" stroke:none;fill-rule:nonzero;fill:#000000;fill-opacity:1;" d="M 404.511719 2700.457031 C 388.285156 2710.476562 370.15625 2741.96875 370.15625 2760.101562 C 370.15625 2779.1875 387.808594 2808.773438 405.941406 2819.746094 C 450.792969 2847.421875 506.144531 2821.65625 516.164062 2768.691406 C 519.980469 2748.171875 502.328125 2711.910156 482.761719 2699.980469 C 462.722656 2687.574219 425.027344 2688.050781 404.511719 2700.457031 Z M 404.511719 2700.457031 "/><path style=" stroke:none;fill-rule:nonzero;fill:#000000;fill-opacity:1;" d="M 1780.144531 2689.480469 C 1764.398438 2693.777344 1744.835938 2710 1737.199219 2724.316406 C 1728.132812 2741.96875 1728.132812 2772.507812 1736.722656 2793.503906 C 1755.808594 2838.355469 1828.8125 2841.695312 1856.488281 2798.75 C 1866.507812 2783.484375 1867.941406 2745.785156 1859.351562 2725.746094 C 1848.855469 2700.457031 1808.296875 2681.847656 1780.144531 2689.480469 Z M 1780.144531 2689.480469 "/></g></svg>