<?xml version="1.0" encoding="utf-8"?>
<!-- Generator: Adobe Illustrator 23.0.2, SVG Export Plug-In . SVG Version: 6.00 Build 0)  -->
<svg version="1.1" id="Layer_1" xmlns="http://www.w3.org/2000/svg" xmlns:xlink="http://www.w3.org/1999/xlink" x="0px" y="0px"
	 viewBox="0 -75.2079 344.5598 344.5598" enable-background="new 0 0 344.5598 194.1441" xml:space="preserve">
<g>
	<path d="M5.6198,158.8452h14.7518v12.9078h40.2642c-2.2836-5.4589-3.5488-11.4499-3.5488-17.7373c0-25.405,20.595-46,46-46
		c25.4048,0,46,20.595,46,46c0,6.2874-1.2651,12.2784-3.5488,17.7373h65.9042v-12.9078h2.9855h130.1319v-34.7721h-123.804v-4.2148
		V105.877h-8.9621V93.7792h-13.0848l-16.7006-71.6516h10.8187v-9.4985c0-1.1555-0.9367-2.0922-2.0922-2.0922h-20.5624V2.3492
		c0-1.2974-1.0518-2.3492-2.3492-2.3492H99.8164c-1.2974,0-2.3492,1.0518-2.3492,2.3492v8.1878H82.1733
		c-1.1555,0-2.0922,0.9366-2.0922,2.0922v9.4985h15.0013l-12.2761,47.259L58.0858,76.324V58.5713h-3.8636v18.837l-5.2249,1.4662
		V54.1165l-8.8113-7.6367l-3.4513,3.9812l6.9941,6.0613V80.353l-26.9929,7.575c-2.9451,0.8265-5.0728,3.3875-5.3455,6.4343
		l-4.0026,44.726H0v12.6444h6.2562L5.6198,158.8452z M281.014,133.8198c4.0736,0,7.3759,3.3023,7.3759,7.3759
		c0,4.0736-3.3023,7.3759-7.3759,7.3759c-4.0735,0-7.3759-3.3023-7.3759-7.3759
		C273.6381,137.1221,276.9404,133.8198,281.014,133.8198z M190.0533,93.7792H128.727V22.1277h44.6257L190.0533,93.7792z
		 M123.2829,22.1277V78.325H95.1l-0.5739-10.7482l11.8058-45.4491H123.2829z M22.1277,97.994h29.5036v4.2148H22.1277V97.994z
		 M22.1277,107.4773h29.5036v4.2148H22.1277V107.4773z M22.1277,116.9606h29.5036v4.2148H22.1277V116.9606z"/>
	<path d="M281.5408,88.7742c-21.3968,0-39.8007,12.7627-48.0504,31.0841h96.1008
		C321.3416,101.5369,302.9376,88.7742,281.5408,88.7742z"/>
	<path d="M281.5408,194.1441c21.3968,0,39.8007-12.7626,48.0504-31.0841h-96.1006
		C241.7402,181.3815,260.144,194.1441,281.5408,194.1441z"/>
	<path d="M142.7844,154.014c0-21.889-17.8102-39.6958-39.6991-39.6958c-21.889,0-39.6942,17.8068-39.6942,39.6958
		s17.8052,39.6991,39.6942,39.6991C124.9742,193.7131,142.7844,175.903,142.7844,154.014z M103.0835,176.454
		c-12.3678,0-22.4333-10.0655-22.4333-22.4418c0-12.3679,10.0655-22.4333,22.4333-22.4333
		c12.3781,0,22.4418,10.0655,22.4418,22.4333C125.5253,166.3885,115.4615,176.454,103.0835,176.454z"/>
	<circle cx="103.0881" cy="154.0151" r="9.1196"/>
</g>
</svg>
