<svg xmlns="http://www.w3.org/2000/svg" xmlns:xlink="http://www.w3.org/1999/xlink" width="5000" zoomAndPan="magnify" viewBox="-16 -16 3782 3782" height="5000" preserveAspectRatio="xMidYMid meet" version="1.2"><defs><clipPath id="8f298a8037"><path d="M 156 556.929688 L 2511 556.929688 L 2511 2864 L 156 2864 Z M 156 556.929688 "/></clipPath><clipPath id="77167d23f9"><path d="M 1758 2450 L 2492 2450 L 2492 3193.179688 L 1758 3193.179688 Z M 1758 2450 "/></clipPath></defs><g id="64ac77d129"><g clip-rule="nonzero" clip-path="url(#8f298a8037)"><path style=" stroke:none;fill-rule:nonzero;fill:#000000;fill-opacity:1;" d="M 2321.066406 563.480469 C 2294.816406 577.445312 2295.933594 538.90625 2295.933594 1415.257812 C 2295.933594 1871.027344 2293.699219 2243.574219 2291.464844 2243.574219 C 2278.0625 2243.574219 2261.308594 2216.207031 2247.902344 2172.082031 C 2240.085938 2145.269531 2227.796875 2104.496094 2220.539062 2081.597656 C 2213.835938 2058.695312 2200.988281 2015.6875 2192.613281 1986.644531 C 2184.234375 1957.601562 2171.390625 1914.59375 2164.6875 1891.691406 C 2157.425781 1868.792969 2144.023438 1823.550781 2134.527344 1791.15625 C 2091.523438 1641.464844 2048.519531 1495.128906 2038.46875 1464.40625 C 2032.882812 1445.976562 2024.503906 1418.050781 2020.039062 1402.96875 C 2016.128906 1387.328125 2006.074219 1352.140625 1997.699219 1324.773438 C 1989.320312 1296.84375 1968.65625 1226.46875 1951.902344 1168.382812 C 1906.105469 1010.3125 1896.050781 979.59375 1873.710938 935.46875 C 1811.160156 810.914062 1700.578125 728.25 1564.304688 704.792969 C 1490.582031 691.945312 846.078125 691.945312 809.777344 704.792969 C 777.941406 715.960938 762.304688 726.574219 750.574219 745.007812 C 741.082031 758.96875 740.523438 793.039062 737.730469 1223.117188 L 734.9375 1686.148438 L 719.300781 1699.554688 C 703.664062 1712.960938 703.664062 1712.960938 562.921875 1712.960938 C 463.507812 1712.960938 411.011719 1715.191406 385.320312 1720.777344 C 275.296875 1744.238281 189.847656 1833.605469 165.273438 1950.339844 C 152.984375 2009.542969 152.984375 2712.191406 165.273438 2760.226562 C 185.9375 2840.65625 252.398438 2885.339844 255.75 2821.105469 C 264.683594 2665.273438 324.445312 2545.1875 432.234375 2464.757812 C 480.824219 2428.449219 513.214844 2411.695312 575.765625 2391.027344 C 617.652344 2377.625 631.617188 2375.949219 695.84375 2375.949219 C 758.394531 2375.949219 775.148438 2378.183594 817.035156 2390.46875 C 890.757812 2412.8125 944.933594 2445.207031 1000.78125 2500.503906 C 1083.441406 2582.050781 1127.003906 2677.003906 1132.585938 2788.152344 C 1134.261719 2818.871094 1138.171875 2848.472656 1140.964844 2853.5 C 1145.433594 2862.996094 1163.863281 2863.554688 1410.71875 2863.554688 C 1657.574219 2863.554688 1676.003906 2862.996094 1680.472656 2853.5 C 1683.265625 2848.472656 1687.171875 2817.753906 1688.847656 2785.359375 C 1697.226562 2601.597656 1817.863281 2449.117188 1999.371094 2392.703125 C 2047.402344 2378.183594 2060.808594 2375.949219 2125.59375 2375.949219 C 2188.144531 2375.949219 2204.339844 2377.625 2243.433594 2389.910156 C 2334.46875 2418.957031 2391.4375 2455.261719 2459.574219 2528.429688 C 2495.875 2568.085938 2503.136719 2573.113281 2506.488281 2564.175781 C 2508.722656 2558.589844 2510.398438 2110.082031 2510.953125 1568.855469 L 2510.953125 583.585938 L 2495.316406 570.183594 C 2480.238281 557.335938 2475.769531 556.777344 2405.957031 556.777344 C 2363.511719 556.777344 2327.769531 559.570312 2321.066406 563.480469 Z M 1587.761719 907.542969 C 1631.882812 929.324219 1674.328125 965.628906 1697.226562 1001.933594 C 1716.214844 1032.65625 1734.085938 1086.832031 1796.082031 1302.429688 C 1807.25 1342.085938 1821.210938 1390.121094 1826.796875 1408.554688 C 1841.320312 1458.265625 1868.683594 1552.097656 1886 1612.421875 C 1894.375 1641.464844 1908.339844 1689.5 1916.714844 1718.542969 C 1925.652344 1747.589844 1932.910156 1773.28125 1932.910156 1775.515625 C 1932.910156 1777.75 1906.105469 1779.984375 1873.152344 1779.984375 L 1812.835938 1779.984375 L 1750.285156 1715.191406 C 1715.65625 1678.886719 1687.171875 1647.609375 1687.171875 1644.257812 C 1687.171875 1641.464844 1701.136719 1624.152344 1717.890625 1606.277344 C 1766.480469 1553.214844 1766.480469 1517.46875 1716.773438 1517.46875 C 1685.5 1517.46875 1678.238281 1521.378906 1620.152344 1569.972656 C 1503.429688 1667.71875 1492.257812 1680.003906 1491.699219 1711.285156 C 1491.699219 1731.390625 1512.921875 1752.058594 1533.585938 1752.058594 C 1545.875 1752.058594 1574.914062 1734.742188 1605.074219 1709.609375 C 1626.855469 1691.175781 1636.910156 1697.320312 1702.253906 1770.488281 C 1784.910156 1863.207031 1776.53125 1831.929688 1776.53125 2048.644531 L 1776.53125 2236.3125 L 1749.167969 2262.003906 C 1713.421875 2295.519531 1693.316406 2299.988281 1583.292969 2301.105469 C 1464.890625 2302.21875 1472.152344 2308.921875 1472.152344 2198.890625 C 1472.152344 2126.28125 1471.035156 2114.550781 1462.101562 2105.613281 C 1453.164062 2096.117188 1433.617188 2095.558594 1218.59375 2092.765625 L 985.144531 2089.976562 L 965.597656 2074.894531 C 925.386719 2044.175781 927.0625 2075.453125 928.734375 1462.734375 L 930.410156 913.128906 L 946.609375 899.722656 L 962.246094 885.757812 L 1256.574219 887.433594 L 1550.34375 889.109375 Z M 1587.761719 907.542969 "/></g><path style=" stroke:none;fill-rule:nonzero;fill:#000000;fill-opacity:1;" d="M 996.871094 1437.039062 C 986.820312 1451.5625 986.261719 1469.992188 986.261719 1734.183594 L 986.261719 2015.6875 L 999.664062 2026.300781 C 1011.953125 2036.355469 1024.238281 2036.914062 1226.972656 2036.914062 C 1476.621094 2036.914062 1455.957031 2043.058594 1451.488281 1970.445312 C 1448.695312 1926.320312 1437.527344 1896.160156 1420.769531 1888.339844 C 1415.1875 1885.546875 1366.039062 1883.3125 1311.304688 1883.3125 C 1215.804688 1883.3125 1211.335938 1882.753906 1201.839844 1871.027344 C 1195.695312 1864.324219 1172.242188 1778.308594 1143.199219 1661.015625 C 1096.285156 1471.667969 1093.492188 1462.175781 1075.621094 1444.859375 C 1062.214844 1431.453125 1050.488281 1425.867188 1032.058594 1424.191406 C 1009.160156 1421.398438 1005.808594 1422.515625 996.871094 1437.039062 Z M 996.871094 1437.039062 "/><path style=" stroke:none;fill-rule:nonzero;fill:#000000;fill-opacity:1;" d="M 2603.105469 1839.191406 C 2595.289062 1844.773438 2587.46875 1852.035156 2585.234375 1854.828125 C 2579.648438 1863.207031 2580.207031 2768.601562 2585.792969 2807.140625 C 2589.144531 2830.601562 2593.613281 2840.65625 2605.898438 2851.265625 L 2621.539062 2864.671875 L 2912.511719 2861.878906 C 3156.019531 2860.203125 3221.363281 2857.410156 3312.398438 2847.914062 C 3372.15625 2841.773438 3449.785156 2833.953125 3484.414062 2830.601562 C 3519.039062 2827.25 3555.902344 2820.546875 3566.511719 2815.519531 C 3589.410156 2804.90625 3599.464844 2781.449219 3590.527344 2757.433594 C 3578.800781 2722.800781 3592.203125 2723.917969 3156.019531 2723.917969 L 2758.367188 2723.917969 L 2742.171875 2707.722656 L 2725.976562 2691.523438 L 2725.976562 1859.855469 L 2711.457031 1846.449219 C 2692.464844 1828.578125 2624.886719 1824.109375 2603.105469 1839.191406 Z M 2603.105469 1839.191406 "/><path style=" stroke:none;fill-rule:nonzero;fill:#000000;fill-opacity:1;" d="M 615.421875 2459.171875 C 495.34375 2485.421875 398.164062 2573.113281 350.691406 2698.226562 C 333.9375 2741.234375 333.378906 2747.378906 333.378906 2821.664062 C 333.378906 2893.714844 334.496094 2903.210938 349.015625 2941.75 C 373.03125 3005.984375 394.8125 3040.054688 441.167969 3086.414062 C 486.964844 3131.65625 535.554688 3161.816406 595.3125 3179.691406 C 641.667969 3193.652344 744.433594 3193.652344 790.789062 3179.691406 C 923.152344 3138.917969 1015.304688 3042.847656 1050.488281 2910.472656 C 1072.828125 2823.898438 1059.984375 2722.242188 1016.421875 2639.578125 C 987.378906 2584.84375 919.242188 2518.375 861.714844 2489.890625 C 785.761719 2451.910156 698.636719 2440.738281 615.421875 2459.171875 Z M 772.355469 2649.632812 C 808.660156 2665.832031 844.402344 2701.019531 863.949219 2739 C 878.472656 2767.484375 880.148438 2776.980469 880.148438 2821.664062 C 880.148438 2866.347656 878.472656 2875.84375 863.390625 2904.328125 C 795.253906 3039.496094 601.457031 3044.523438 531.644531 2913.824219 C 476.914062 2811.050781 525.503906 2685.378906 636.085938 2644.605469 C 671.269531 2631.203125 736.613281 2633.996094 772.355469 2649.632812 Z M 772.355469 2649.632812 "/><g clip-rule="nonzero" clip-path="url(#77167d23f9)"><path style=" stroke:none;fill-rule:nonzero;fill:#000000;fill-opacity:1;" d="M 2041.820312 2459.730469 C 1977.589844 2473.132812 1920.625 2506.089844 1865.890625 2561.382812 C 1792.730469 2635.671875 1758.660156 2717.21875 1758.660156 2819.429688 C 1758.101562 3061.835938 1981.5 3241.128906 2208.808594 3181.921875 C 2379.707031 3137.242188 2490.847656 2994.8125 2491.40625 2821.105469 C 2491.40625 2753.523438 2482.472656 2716.101562 2451.753906 2652.984375 C 2428.296875 2604.949219 2417.6875 2590.429688 2379.707031 2554.121094 C 2287.558594 2465.875 2168.039062 2432.359375 2041.820312 2459.730469 Z M 2184.792969 2643.488281 C 2319.390625 2683.703125 2360.71875 2855.734375 2258.515625 2955.714844 C 2163.011719 3048.433594 2013.335938 3021.0625 1956.925781 2899.859375 C 1944.082031 2872.492188 1941.289062 2859.085938 1941.847656 2824.457031 C 1941.847656 2769.160156 1957.484375 2729.503906 1992.671875 2693.757812 C 2046.285156 2639.578125 2112.746094 2622.265625 2184.792969 2643.488281 Z M 2184.792969 2643.488281 "/></g></g></svg>