<svg xmlns="http://www.w3.org/2000/svg" xmlns:xlink="http://www.w3.org/1999/xlink" width="5000" zoomAndPan="magnify" viewBox="-79 -131 3909 3909" height="5000" preserveAspectRatio="xMidYMid meet" version="1.2"><defs><clipPath id="02e5497431"><path d="M 2922 879 L 3651.574219 879 L 3651.574219 2059 L 2922 2059 Z M 2922 879 "/></clipPath><clipPath id="0dacde14c7"><path d="M 98.074219 2123 L 649 2123 L 649 2727 L 98.074219 2727 Z M 98.074219 2123 "/></clipPath><clipPath id="29e1587964"><path d="M 790 2204 L 1348 2204 L 1348 2766.65625 L 790 2766.65625 Z M 790 2204 "/></clipPath></defs><g id="60fd58f848"><g clip-rule="nonzero" clip-path="url(#02e5497431)"><path style=" stroke:none;fill-rule:nonzero;fill:#000000;fill-opacity:1;" d="M 2981.953125 889.101562 C 2944.121094 906.8125 2922.386719 942.632812 2922.386719 986.101562 C 2921.984375 1021.925781 2999.664062 1253.757812 3029.046875 1304.46875 C 3063.660156 1365.246094 3202.925781 1579.773438 3392.5 1864.734375 C 3450.460938 1951.671875 3448.042969 1950.0625 3511.636719 1968.976562 C 3555.914062 1982.261719 3576.039062 1998.359375 3583.683594 2027.339844 C 3592.539062 2059.941406 3599.785156 2064.769531 3622.726562 2052.695312 C 3641.644531 2042.230469 3653.71875 2016.070312 3651.304688 1988.699219 C 3648.890625 1962.136719 3639.632812 1942.011719 3543.839844 1760.890625 C 3406.988281 1502.898438 3307.574219 1313.726562 3248.40625 1199.421875 C 3130.476562 971.613281 3105.921875 926.9375 3084.992188 906.8125 C 3055.207031 877.832031 3018.984375 871.796875 2981.953125 889.101562 Z M 2981.953125 889.101562 "/></g><path style=" stroke:none;fill-rule:nonzero;fill:#000000;fill-opacity:1;" d="M 2864.828125 1132.207031 C 2846.714844 1164.808594 2806.867188 1237.65625 2776.683594 1294.007812 C 2746.09375 1350.355469 2709.0625 1418.375 2694.171875 1444.9375 C 2671.628906 1485.1875 2610.855469 1597.480469 2538 1732.71875 L 2523.914062 1758.878906 L 2552.492188 1875.199219 L 2581.472656 1991.515625 L 2603.207031 2020.09375 C 2645.871094 2076.039062 2678.875 2147.28125 2694.976562 2216.507812 C 2707.050781 2268.027344 2707.050781 2377.503906 2695.378906 2430.230469 C 2690.949219 2449.546875 2688.535156 2466.050781 2689.742188 2467.257812 C 2694.976562 2470.476562 2728.785156 2460.816406 2744.480469 2451.160156 C 2767.023438 2437.875 2784.730469 2418.558594 2795.597656 2394.808594 C 2804.855469 2374.6875 2804.855469 2373.878906 2806.867188 2149.292969 L 2809.285156 1923.898438 L 2868.046875 1722.65625 C 2932.449219 1502.496094 2983.96875 1318.15625 2983.96875 1308.496094 C 2983.96875 1305.277344 2976.320312 1281.125 2966.660156 1254.964844 C 2957 1228.804688 2938.484375 1177.285156 2925.203125 1139.851562 C 2912.324219 1102.824219 2900.648438 1072.636719 2899.441406 1072.636719 C 2898.234375 1072.636719 2882.539062 1099.605469 2864.828125 1132.207031 Z M 2864.828125 1132.207031 "/><path style=" stroke:none;fill-rule:nonzero;fill:#000000;fill-opacity:1;" d="M 1576.441406 1128.984375 C 1559.9375 1138.644531 1551.082031 1155.953125 1551.082031 1177.6875 C 1551.082031 1192.175781 1553.496094 1197.007812 1566.78125 1209.484375 L 1582.476562 1224.375 L 1524.921875 1422.398438 C 1442.007812 1705.75 1444.824219 1698.105469 1431.945312 1704.140625 C 1419.871094 1709.375 1148.183594 1765.722656 979.539062 1797.519531 C 859.59375 1820.058594 841.886719 1826.496094 812.90625 1857.488281 C 781.109375 1891.296875 777.488281 1903.773438 773.863281 1993.933594 C 772.253906 2037 771.851562 2074.027344 772.65625 2075.636719 C 773.863281 2077.246094 776.679688 2078.855469 778.695312 2078.855469 C 781.109375 2078.855469 834.640625 2056.71875 898.234375 2030.15625 C 961.828125 2003.191406 1057.222656 1963.34375 1110.351562 1942.011719 C 1163.480469 1920.277344 1231.5 1892.503906 1261.285156 1880.027344 C 1291.070312 1867.550781 1320.855469 1857.488281 1327.296875 1857.488281 C 1350.238281 1857.488281 1371.972656 1867.148438 1390.890625 1886.066406 C 1430.335938 1925.507812 1430.335938 1982.664062 1391.292969 2019.289062 C 1385.253906 2024.925781 1334.941406 2054.304688 1279.398438 2084.492188 C 1153.015625 2152.914062 1142.550781 2158.953125 1146.976562 2163.378906 C 1148.988281 2164.988281 1164.6875 2172.234375 1181.996094 2179.078125 C 1289.460938 2221.742188 1365.128906 2313.507812 1389.683594 2431.035156 L 1396.121094 2463.234375 L 1573.621094 2464.441406 C 1712.886719 2465.246094 1752.332031 2464.039062 1755.550781 2460.414062 C 1758.367188 2456.792969 1757.160156 2445.925781 1751.527344 2424.996094 C 1747.097656 2407.289062 1742.671875 2372.269531 1741.0625 2340.472656 L 1738.242188 2286.136719 L 1567.988281 2284.125 C 1404.976562 2282.113281 1397.328125 2281.710938 1391.695312 2274.464844 C 1384.449219 2264.402344 1384.449219 2255.550781 1391.695312 2245.488281 C 1397.328125 2238.242188 1404.976562 2237.839844 1571.609375 2235.828125 L 1745.890625 2233.816406 L 1754.746094 2199.605469 C 1786.140625 2077.648438 1853.757812 1981.457031 1958.8125 1910.214844 C 1991.414062 1888.078125 2059.433594 1857.890625 2101.292969 1847.023438 C 2150.398438 1833.742188 2233.3125 1829.71875 2288.855469 1837.363281 C 2362.917969 1847.425781 2439.390625 1876.808594 2491.714844 1915.445312 C 2505.398438 1925.507812 2517.472656 1932.351562 2518.683594 1930.339844 C 2521.902344 1925.507812 2353.660156 1263.820312 2341.585938 1232.023438 C 2340.375 1228.402344 2342.792969 1225.179688 2348.828125 1223.570312 C 2387.066406 1211.898438 2398.335938 1157.160156 2367.746094 1131.402344 L 2355.269531 1120.9375 L 1972.496094 1120.9375 C 1599.382812 1120.9375 1588.917969 1121.339844 1576.441406 1128.984375 Z M 1990.207031 1269.855469 C 1997.449219 1283.140625 1997.851562 1296.019531 1997.449219 1485.1875 C 1997.449219 1630.082031 1996.242188 1690.457031 1992.621094 1700.519531 C 1988.59375 1712.191406 1978.9375 1720.644531 1937.480469 1748.816406 C 1847.722656 1809.59375 1790.96875 1874.796875 1738.644531 1978.234375 C 1725.765625 2003.59375 1712.484375 2027.742188 1708.859375 2031.363281 C 1703.628906 2037.804688 1694.371094 2038.609375 1629.167969 2038.609375 L 1555.511719 2038.609375 L 1547.460938 2028.144531 C 1539.410156 2017.679688 1539.007812 2013.25 1539.007812 1857.890625 L 1539.007812 1698.507812 L 1564.769531 1607.945312 C 1579.257812 1558.039062 1598.980469 1485.589844 1609.445312 1446.953125 C 1652.511719 1284.75 1656.132812 1276.296875 1683.101562 1261.808594 C 1697.1875 1254.5625 1706.042969 1254.160156 1840.476562 1254.964844 L 1982.960938 1255.769531 Z M 2265.511719 1261.808594 C 2268.730469 1265.429688 2286.039062 1324.191406 2303.75 1392.617188 C 2321.460938 1461.441406 2346.414062 1555.21875 2358.890625 1601.105469 C 2377.003906 1667.515625 2380.625 1687.238281 2377.808594 1695.6875 L 2374.1875 1706.554688 L 2239.351562 1707.761719 C 2116.1875 1708.570312 2104.113281 1708.164062 2099.683594 1701.726562 C 2095.660156 1696.492188 2094.453125 1646.183594 2094.453125 1483.175781 C 2094.453125 1296.019531 2095.257812 1270.660156 2100.890625 1262.613281 C 2107.332031 1253.355469 2108.136719 1253.355469 2183.402344 1254.5625 C 2245.386719 1255.367188 2260.28125 1256.976562 2265.511719 1261.808594 Z M 2265.511719 1261.808594 "/><path style=" stroke:none;fill-rule:nonzero;fill:#000000;fill-opacity:1;" d="M 1214.195312 1262.210938 C 1208.558594 1267.84375 1207.351562 1293.199219 1212.183594 1300.445312 C 1213.792969 1302.457031 1221.839844 1308.898438 1230.695312 1314.128906 C 1256.457031 1329.425781 1261.285156 1345.925781 1261.285156 1417.167969 C 1261.285156 1476.734375 1261.285156 1477.941406 1251.222656 1487.199219 L 1241.160156 1496.457031 L 1241.160156 1704.542969 L 1250.417969 1702.53125 C 1255.25 1701.324219 1276.984375 1696.894531 1298.71875 1692.46875 C 1320.453125 1688.042969 1340.175781 1683.613281 1342.1875 1682.003906 C 1344.199219 1680.796875 1345.808594 1638.9375 1345.808594 1587.820312 L 1345.808594 1496.054688 L 1335.746094 1483.980469 C 1326.085938 1472.308594 1325.683594 1469.894531 1325.683594 1411.933594 C 1325.683594 1344.316406 1320.855469 1321.375 1301.535156 1294.8125 C 1295.097656 1285.554688 1282.617188 1274.6875 1274.164062 1270.257812 C 1253.640625 1259.792969 1220.632812 1255.367188 1214.195312 1262.210938 Z M 1214.195312 1262.210938 "/><path style=" stroke:none;fill-rule:nonzero;fill:#000000;fill-opacity:1;" d="M 3039.109375 1725.472656 C 3031.863281 1754.050781 3027.4375 1811.203125 3029.851562 1843.402344 C 3031.460938 1866.746094 3030.253906 1896.53125 3026.230469 1927.925781 C 3009.726562 2060.34375 3025.019531 2124.339844 3088.214844 2187.929688 C 3132.085938 2231.800781 3187.226562 2255.550781 3244.785156 2255.953125 C 3273.359375 2255.953125 3322.464844 2243.878906 3352.25 2229.386719 C 3380.023438 2215.703125 3519.285156 2116.691406 3539.8125 2095.761719 C 3555.109375 2080.46875 3557.121094 2063.5625 3546.253906 2042.230469 C 3534.984375 2019.691406 3529.75 2017.277344 3422.6875 1984.273438 C 3322.867188 1953.683594 3276.984375 1933.15625 3231.5 1898.542969 C 3198.09375 1873.589844 3104.3125 1779.808594 3072.515625 1739.960938 C 3053.195312 1715.410156 3042.730469 1710.984375 3039.109375 1725.472656 Z M 3039.109375 1725.472656 "/><path style=" stroke:none;fill-rule:nonzero;fill:#000000;fill-opacity:1;" d="M 2189.039062 1876.003906 C 2047.359375 1892.503906 1942.710938 1953.28125 1865.433594 2063.160156 C 1771.652344 2196.382812 1758.769531 2372.671875 1831.621094 2521.191406 C 1892.800781 2645.15625 2004.292969 2730.082031 2144.765625 2759.464844 C 2179.78125 2767.113281 2270.746094 2765.902344 2309.785156 2757.453125 C 2434.15625 2730.484375 2546.855469 2646.363281 2605.621094 2536.484375 C 2640.636719 2470.878906 2657.945312 2399.238281 2657.945312 2319.546875 C 2657.945312 2088.113281 2489.703125 1902.164062 2258.671875 1877.613281 C 2221.238281 1873.589844 2211.980469 1873.589844 2189.039062 1876.003906 Z M 2283.625 2089.722656 C 2401.554688 2121.921875 2476.421875 2239.851562 2455.085938 2359.792969 C 2441.402344 2437.472656 2396.726562 2497.042969 2325.082031 2533.265625 C 2279.601562 2555.804688 2223.25 2563.453125 2174.144531 2553.390625 C 2117.796875 2541.71875 2053.800781 2497.445312 2021.601562 2447.535156 C 1945.527344 2330.414062 1986.582031 2173.84375 2110.550781 2109.445312 C 2144.359375 2092.140625 2160.863281 2086.90625 2194.269531 2083.285156 C 2228.082031 2080.066406 2255.046875 2081.675781 2283.625 2089.722656 Z M 2283.625 2089.722656 "/><path style=" stroke:none;fill-rule:nonzero;fill:#000000;fill-opacity:1;" d="M 2194.671875 2159.355469 C 2092.035156 2177.0625 2032.871094 2294.589844 2078.753906 2388.371094 C 2117.796875 2467.660156 2207.554688 2500.261719 2290.066406 2465.246094 C 2315.019531 2454.378906 2350.839844 2419.363281 2364.527344 2391.992188 C 2379.015625 2363.417969 2385.457031 2325.582031 2380.625 2295.796875 C 2366.136719 2206.445312 2281.210938 2144.460938 2194.671875 2159.355469 Z M 2194.671875 2159.355469 "/><path style=" stroke:none;fill-rule:nonzero;fill:#000000;fill-opacity:1;" d="M 1243.171875 1934.363281 C 1179.578125 1960.527344 1123.632812 1983.871094 880.929688 2084.894531 C 752.933594 2138.023438 743.273438 2142.851562 726.371094 2161.769531 C 718.320312 2171.027344 691.351562 2216.507812 666.398438 2263.195312 L 620.914062 2347.71875 L 638.625 2393.601562 C 648.6875 2418.558594 660.761719 2451.5625 665.996094 2467.257812 C 672.03125 2485.371094 677.667969 2495.433594 681.691406 2495.433594 C 685.316406 2495.433594 711.074219 2456.792969 744.480469 2401.25 C 807.269531 2297.003906 827.394531 2269.636719 862.816406 2240.253906 C 906.285156 2204.03125 942.507812 2185.515625 1001.675781 2169.015625 C 1039.511719 2158.550781 1106.726562 2125.144531 1265.3125 2038.609375 C 1353.457031 1990.710938 1373.984375 1974.613281 1373.984375 1954.085938 C 1373.984375 1938.792969 1364.726562 1920.277344 1353.054688 1912.226562 C 1336.554688 1900.554688 1314.816406 1904.984375 1243.171875 1934.363281 Z M 1243.171875 1934.363281 "/><g clip-rule="nonzero" clip-path="url(#0dacde14c7)"><path style=" stroke:none;fill-rule:nonzero;fill:#000000;fill-opacity:1;" d="M 438.183594 2128.765625 C 431.742188 2131.582031 423.289062 2137.621094 419.667969 2141.644531 C 413.628906 2148.890625 284.027344 2394.808594 238.949219 2485.371094 C 197.894531 2567.476562 184.609375 2587.601562 158.851562 2605.3125 C 116.589844 2635.09375 98.074219 2662.464844 98.074219 2696.273438 C 98.074219 2712.375 99.28125 2714.386719 112.160156 2720.421875 C 124.640625 2726.460938 146.375 2727.265625 320.25 2726.058594 C 510.632812 2724.851562 515.058594 2724.851562 538.402344 2715.996094 C 608.4375 2689.429688 653.921875 2620.203125 648.285156 2548.15625 C 646.675781 2526.019531 640.234375 2503.078125 619.707031 2449.144531 C 605.21875 2410.507812 575.03125 2327.996094 552.894531 2266.015625 C 530.355469 2204.03125 509.425781 2148.890625 506.203125 2144.058594 C 494.128906 2125.546875 461.929688 2118.300781 438.183594 2128.765625 Z M 438.183594 2128.765625 "/></g><g clip-rule="nonzero" clip-path="url(#29e1587964)"><path style=" stroke:none;fill-rule:nonzero;fill:#000000;fill-opacity:1;" d="M 1005.703125 2211.277344 C 947.742188 2227.375 908.699219 2250.71875 867.644531 2293.785156 C 804.453125 2360.597656 777.488281 2455.585938 796.402344 2546.546875 C 815.320312 2635.902344 890.992188 2720.421875 979.941406 2751.011719 C 1125.242188 2801.324219 1283.421875 2721.226562 1333.734375 2570.699219 C 1345.40625 2536.082031 1347.019531 2526.421875 1347.019531 2487.382812 C 1347.019531 2434.65625 1340.175781 2404.871094 1316.832031 2357.78125 C 1285.839844 2294.589844 1221.839844 2239.046875 1155.027344 2217.3125 C 1110.351562 2202.824219 1046.355469 2200.007812 1005.703125 2211.277344 Z M 1126.449219 2348.523438 C 1155.429688 2359.792969 1190.042969 2392.796875 1204.9375 2422.984375 C 1213.792969 2440.292969 1215 2448.742188 1215 2485.371094 C 1215 2526.019531 1214.597656 2528.839844 1201.3125 2552.988281 C 1172.738281 2605.714844 1128.460938 2631.472656 1067.6875 2631.875 C 1036.695312 2631.875 1030.253906 2630.667969 1006.507812 2618.996094 C 949.753906 2590.820312 920.371094 2540.109375 923.996094 2475.710938 C 926.007812 2436.667969 935.667969 2412.921875 959.414062 2387.164062 C 1003.285156 2339.667969 1065.269531 2325.179688 1126.449219 2348.523438 Z M 1126.449219 2348.523438 "/></g><path style=" stroke:none;fill-rule:nonzero;fill:#000000;fill-opacity:1;" d="M 1042.730469 2402.457031 C 990.003906 2422.179688 968.269531 2478.125 994.429688 2526.019531 C 1021.398438 2576.332031 1083.785156 2588.003906 1125.242188 2550.574219 C 1161.871094 2517.570312 1166.699219 2469.269531 1137.71875 2429.828125 C 1118.398438 2404.066406 1073.722656 2390.785156 1042.730469 2402.457031 Z M 1042.730469 2402.457031 "/></g></svg>