<svg xmlns="http://www.w3.org/2000/svg" xmlns:xlink="http://www.w3.org/1999/xlink" width="5000" zoomAndPan="magnify" viewBox="-15 -310 3722 3722" height="5000" preserveAspectRatio="xMidYMid meet" version="1.2"><defs><clipPath id="6b5557940d"><path d="M 154 1649 L 3537.996094 1649 L 3537.996094 2620.753906 L 154 2620.753906 Z M 154 1649 "/></clipPath></defs><g id="b9489b004d"><path style=" stroke:none;fill-rule:nonzero;fill:#000000;fill-opacity:1;" d="M 2109.148438 490.378906 C 2099.652344 495.125 2087.191406 509.960938 2080.070312 523.015625 C 2063.457031 555.648438 2068.796875 588.878906 2095.5 615.582031 C 2109.742188 629.824219 2112.707031 636.945312 2108.554688 644.066406 C 2097.277344 664.242188 2067.015625 760.371094 2045.058594 845.816406 C 1961.984375 1169.214844 1958.421875 1181.082031 1941.808594 1181.082031 C 1934.6875 1181.082031 1865.257812 1187.609375 1786.929688 1195.917969 C 1708.601562 1204.222656 1642.734375 1210.75 1640.359375 1210.75 C 1637.394531 1210.75 1635.613281 1171.589844 1635.613281 1122.929688 C 1635.613281 1029.769531 1633.238281 1020.273438 1602.382812 995.945312 C 1591.109375 987.042969 1589.328125 977.550781 1585.765625 906.9375 C 1582.800781 848.191406 1578.648438 819.113281 1569.152344 792.414062 C 1546.601562 731.886719 1493.195312 689.757812 1425.550781 679.667969 C 1391.726562 674.328125 1388.757812 679.667969 1395.878906 734.261719 C 1400.625 771.050781 1402.40625 774.015625 1418.429688 778.171875 C 1441.570312 784.699219 1461.746094 804.875 1470.054688 829.796875 C 1474.207031 841.664062 1477.175781 881.421875 1476.582031 918.210938 L 1476.582031 985.265625 L 1455.21875 1005.4375 L 1433.855469 1025.019531 L 1433.855469 1234.488281 L 1411.902344 1234.488281 C 1399.441406 1234.488281 1337.132812 1241.015625 1274.230469 1249.320312 C 1112.828125 1270.683594 1106.300781 1276.023438 1096.210938 1392.328125 C 1090.871094 1451.074219 1076.628906 1571.53125 1041.617188 1850.425781 C 1029.75 1942.992188 1029.75 1976.222656 1041.617188 1976.222656 C 1044.585938 1976.222656 1057.046875 1963.167969 1068.914062 1947.148438 C 1125.882812 1869.414062 1227.945312 1795.832031 1315.175781 1770.910156 C 1405.375 1744.800781 1432.078125 1744.207031 2347.695312 1745.988281 C 3315.53125 1748.363281 3254.410156 1745.988281 3339.859375 1789.304688 C 3362.410156 1800.582031 3384.960938 1810.074219 3389.707031 1810.074219 C 3397.421875 1810.074219 3398.015625 1776.25 3396.828125 1565.003906 L 3395.046875 1320.527344 L 3377.246094 1285.519531 C 3339.859375 1211.34375 3272.808594 1164.46875 3183.203125 1150.226562 L 3138.105469 1143.105469 L 3132.171875 1098.007812 C 3128.609375 1073.679688 3120.300781 1023.835938 3113.773438 988.230469 C 3107.246094 952.035156 3096.566406 880.234375 3089.445312 828.015625 C 3056.214844 569.296875 3051.46875 543.1875 3031.886719 517.078125 C 3003.402344 479.695312 3019.425781 480.882812 2551.230469 480.882812 C 2185.695312 481.476562 2122.796875 482.664062 2109.148438 490.378906 Z M 2619.472656 636.351562 C 2623.03125 641.097656 2626 755.621094 2627.1875 950.847656 L 2629.558594 1258.222656 L 2519.78125 1368.59375 C 2459.253906 1429.117188 2402.878906 1482.523438 2393.980469 1487.269531 C 2381.519531 1493.796875 2350.660156 1495.578125 2258.683594 1495.578125 C 2129.917969 1495.578125 2109.742188 1491.425781 2102.027344 1464.722656 C 2094.90625 1437.425781 2098.464844 1238.046875 2106.773438 1195.917969 C 2119.828125 1130.644531 2210.027344 780.542969 2226.640625 731.292969 C 2245.035156 674.921875 2264.617188 647.625 2294.289062 635.757812 C 2317.429688 626.855469 2611.757812 627.449219 2619.472656 636.351562 Z M 2881.160156 635.757812 C 2891.25 639.316406 2903.710938 650 2908.457031 658.898438 C 2916.765625 675.515625 2934.566406 785.292969 2958.304688 970.429688 C 2965.425781 1022.648438 2975.511719 1095.632812 2980.851562 1133.019531 L 2990.941406 1200.664062 L 2974.324219 1214.3125 C 2958.898438 1227.960938 2954.148438 1228.554688 2873.449219 1228.554688 C 2801.054688 1228.554688 2786.21875 1226.773438 2775.535156 1217.871094 C 2763.667969 1207.785156 2763.074219 1203.632812 2763.074219 1011.964844 C 2762.480469 641.691406 2761.886719 648.8125 2772.570312 638.726562 C 2783.84375 627.449219 2852.085938 625.671875 2881.160156 635.757812 Z M 2881.160156 635.757812 "/><g clip-rule="nonzero" clip-path="url(#6b5557940d)"><path style=" stroke:none;fill-rule:nonzero;fill:#000000;fill-opacity:1;" d="M 486.789062 1658.761719 C 476.109375 1665.882812 473.734375 1675.375 470.765625 1719.285156 C 468.394531 1750.734375 458.898438 1801.765625 445.84375 1848.644531 C 433.976562 1890.777344 413.800781 1965.542969 400.152344 2014.792969 C 387.097656 2063.453125 370.480469 2125.164062 362.769531 2151.273438 C 355.648438 2177.382812 339.625 2236.128906 327.164062 2281.820312 C 315.296875 2327.511719 303.429688 2367.859375 301.648438 2371.421875 C 299.273438 2375.574219 268.417969 2409.398438 232.21875 2447.96875 C 156.265625 2528.667969 147.363281 2543.503906 157.453125 2568.425781 C 169.320312 2596.910156 182.375 2599.28125 333.691406 2599.28125 C 452.371094 2599.28125 481.449219 2597.503906 530.699219 2586.820312 C 604.875 2570.800781 653.535156 2547.65625 698.039062 2506.714844 C 740.765625 2466.363281 765.09375 2420.078125 778.742188 2351.246094 L 788.828125 2302.585938 L 1082.5625 2302.585938 L 1092.058594 2341.75 C 1118.761719 2448.5625 1193.53125 2535.789062 1299.75 2584.449219 C 1382.230469 2622.425781 1322.296875 2620.050781 2309.125 2620.050781 L 3211.09375 2620.050781 L 3252.039062 2606.402344 C 3311.378906 2586.226562 3356.476562 2562.492188 3396.828125 2528.667969 C 3463.882812 2472.890625 3519.660156 2367.859375 3534.496094 2270.542969 C 3557.640625 2114.484375 3462.695312 1935.28125 3318.5 1864.074219 C 3233.046875 1821.941406 3309.003906 1824.910156 2326.925781 1823.128906 C 1701.480469 1821.941406 1432.078125 1823.128906 1407.152344 1827.875 C 1273.046875 1852.800781 1160.890625 1927.566406 1115.199219 2023.695312 L 1098.585938 2058.703125 L 938.367188 2058.703125 L 778.148438 2059.296875 L 749.070312 1909.171875 C 715.839844 1737.679688 700.414062 1674.78125 687.359375 1659.949219 C 679.644531 1651.046875 666.589844 1649.859375 588.855469 1649.859375 C 520.019531 1649.859375 496.285156 1651.640625 486.789062 1658.761719 Z M 1523.460938 1978.597656 C 1594.074219 1999.960938 1649.855469 2047.429688 1682.492188 2113.890625 C 1709.789062 2169.074219 1714.535156 2239.6875 1695.546875 2301.996094 C 1684.867188 2338.191406 1677.152344 2350.652344 1644.515625 2385.070312 C 1563.8125 2470.515625 1455.21875 2493.066406 1353.746094 2445.59375 C 1234.472656 2389.816406 1179.882812 2252.742188 1227.351562 2126.351562 C 1241 2089.5625 1293.8125 2028.441406 1332.386719 2004.707031 C 1381.042969 1974.445312 1469.460938 1962.574219 1523.460938 1978.597656 Z M 3202.785156 1978.597656 C 3249.070312 1992.839844 3279.925781 2011.828125 3316.125 2048.023438 C 3374.277344 2106.175781 3400.386719 2183.910156 3387.925781 2259.269531 C 3369.53125 2366.082031 3287.046875 2449.75 3182.015625 2469.332031 C 3135.730469 2477.636719 3087.070312 2469.332031 3033.074219 2442.628906 C 2981.445312 2417.113281 2939.910156 2376.167969 2915.578125 2326.324219 C 2897.777344 2290.125 2896.589844 2284.785156 2896.589844 2219.511719 C 2896.589844 2157.800781 2898.371094 2148.308594 2912.613281 2116.855469 C 2931.601562 2076.507812 2986.195312 2019.542969 3024.171875 1999.960938 C 3080.542969 1970.882812 3149.972656 1962.574219 3202.785156 1978.597656 Z M 2887.097656 2051.585938 C 2873.449219 2070.574219 2856.832031 2091.933594 2850.304688 2099.054688 L 2838.4375 2112.703125 L 1774.46875 2112.703125 L 1753.699219 2090.15625 C 1741.832031 2078.285156 1724.03125 2056.925781 1713.347656 2042.683594 L 1693.765625 2017.761719 L 2912.019531 2017.761719 Z M 2900.152344 2415.332031 C 2922.105469 2443.222656 2940.503906 2467.550781 2940.503906 2469.921875 C 2941.09375 2472.890625 2652.703125 2474.671875 2300.222656 2474.671875 C 1947.742188 2474.671875 1659.347656 2472.890625 1659.347656 2469.921875 C 1659.347656 2465.769531 1668.25 2452.714844 1711.570312 2389.816406 L 1731.152344 2361.925781 L 2295.476562 2363.113281 L 2860.394531 2364.894531 Z M 2900.152344 2415.332031 "/></g><path style=" stroke:none;fill-rule:nonzero;fill:#000000;fill-opacity:1;" d="M 1427.921875 2058.703125 C 1372.144531 2070.574219 1325.265625 2111.515625 1303.902344 2168.480469 C 1280.164062 2231.972656 1292.035156 2280.632812 1344.847656 2333.445312 C 1397.660156 2386.253906 1458.1875 2398.125 1526.425781 2368.453125 C 1655.789062 2311.488281 1658.757812 2135.84375 1531.769531 2072.351562 C 1503.878906 2058.703125 1457.59375 2052.769531 1427.921875 2058.703125 Z M 1427.921875 2058.703125 "/><path style=" stroke:none;fill-rule:nonzero;fill:#000000;fill-opacity:1;" d="M 3116.148438 2056.925781 C 3077.578125 2067.011719 3060.367188 2075.914062 3034.257812 2100.242188 C 2963.644531 2165.515625 2957.117188 2254.523438 3017.050781 2321.578125 C 3054.433594 2363.113281 3090.632812 2379.726562 3141.070312 2379.726562 C 3229.488281 2379.136719 3300.695312 2315.050781 3307.222656 2229.007812 C 3310.785156 2186.875 3298.917969 2152.460938 3267.464844 2112.703125 C 3237.203125 2074.726562 3159.46875 2046.242188 3116.148438 2056.925781 Z M 3116.148438 2056.925781 "/></g></svg>