<svg xmlns="http://www.w3.org/2000/svg" xmlns:xlink="http://www.w3.org/1999/xlink" width="5000" zoomAndPan="magnify" viewBox="-64 -64 3878 3878" height="5000" preserveAspectRatio="xMidYMid meet" version="1.2"><defs><clipPath id="d73f0315fe"><path d="M 112 698.878906 L 3637 698.878906 L 3637 2698 L 112 2698 Z M 112 698.878906 "/></clipPath><clipPath id="f88935768f"><path d="M 402 2222 L 1221 2222 L 1221 3050.878906 L 402 3050.878906 Z M 402 2222 "/></clipPath></defs><g id="b94af89fb7"><g clip-rule="nonzero" clip-path="url(#d73f0315fe)"><path style=" stroke:none;fill-rule:nonzero;fill:#000000;fill-opacity:1;" d="M 2847.449219 708.261719 C 2832.015625 721.320312 2828.453125 733.984375 2823.3125 791.363281 L 2818.957031 838.847656 L 2783.738281 910.078125 C 2764.742188 949.253906 2746.539062 988.429688 2743.375 997.136719 C 2740.207031 1007.027344 2738.230469 1032.75 2738.230469 1066.386719 C 2738.230469 1128.910156 2745.351562 1158.195312 2771.867188 1201.722656 C 2780.574219 1216.363281 2787.695312 1230.609375 2787.695312 1233.777344 C 2787.695312 1243.273438 2748.914062 1367.925781 2744.5625 1372.277344 C 2742.582031 1374.257812 2659.085938 1389.292969 2559.363281 1405.519531 C 2459.640625 1421.742188 2371.789062 1436.382812 2363.480469 1438.757812 C 2336.570312 1445.882812 2313.222656 1467.644531 2197.671875 1592.695312 C 2133.957031 1661.152344 2057.1875 1743.859375 2026.320312 1776.703125 C 1995.457031 1809.152344 1966.171875 1841.203125 1961.421875 1847.535156 L 1952.71875 1859.011719 L 1952.71875 2098.816406 C 1952.71875 2280.453125 1951.53125 2340.207031 1947.96875 2343.769531 C 1942.824219 2348.914062 1902.0625 2350.101562 1894.546875 2345.351562 C 1890.984375 2342.976562 1889.402344 2289.554688 1888.609375 2124.9375 L 1887.421875 1907.289062 L 1851.015625 1778.679688 C 1830.832031 1707.847656 1807.484375 1625.933594 1799.175781 1596.652344 C 1780.972656 1534.917969 1719.238281 1324.792969 1705.390625 1278.097656 C 1695.890625 1246.4375 1685.601562 1231.796875 1665.027344 1221.113281 C 1658.695312 1217.949219 1555.804688 1216.761719 1300.960938 1216.761719 C 964.199219 1216.761719 944.808594 1217.15625 932.144531 1223.882812 C 911.171875 1235.359375 903.257812 1253.167969 905.234375 1284.429688 C 908.003906 1326.375 927.789062 1347.347656 965.386719 1347.347656 C 975.277344 1347.347656 983.191406 1349.328125 983.191406 1351.304688 C 983.191406 1371.488281 938.476562 1766.019531 935.308594 1771.558594 C 930.5625 1780.265625 931.75 1780.265625 826.882812 1794.90625 C 726.761719 1809.152344 718.453125 1809.546875 713.703125 1802.027344 C 711.726562 1798.863281 710.144531 1749.792969 710.144531 1693.207031 C 710.144531 1636.222656 708.164062 1580.425781 706.183594 1568.949219 C 696.6875 1519.882812 670.175781 1482.289062 630.207031 1462.105469 C 596.964844 1445.882812 575.992188 1445.882812 562.140625 1462.5 C 556.601562 1469.230469 551.851562 1477.144531 551.851562 1480.703125 C 551.851562 1492.179688 564.121094 1511.964844 575.199219 1518.695312 C 591.820312 1528.585938 610.023438 1550.746094 615.566406 1567.761719 C 618.730469 1577.261719 621.105469 1623.164062 621.894531 1695.582031 C 623.480469 1800.839844 623.480469 1809.152344 616.355469 1817.066406 C 610.023438 1824.980469 594.589844 1827.75 464.792969 1846.347656 C 309.667969 1868.113281 294.632812 1872.070312 265.347656 1897.398438 C 234.878906 1924.304688 238.4375 1903.730469 195.304688 2281.246094 C 188.972656 2339.019531 182.640625 2388.089844 181.851562 2390.464844 C 181.058594 2392.835938 171.167969 2396.003906 159.691406 2396.792969 C 142.675781 2398.378906 136.738281 2401.148438 128.03125 2411.039062 C 113.785156 2427.265625 110.621094 2452.195312 114.183594 2532.527344 C 117.347656 2608.503906 122.886719 2624.730469 152.171875 2640.160156 C 169.1875 2649.261719 171.167969 2649.261719 243.1875 2646.890625 C 283.550781 2645.304688 317.980469 2642.933594 319.957031 2640.953125 C 321.9375 2639.371094 325.894531 2615.628906 329.058594 2589.113281 C 342.515625 2468.816406 382.484375 2378.988281 458.066406 2298.65625 C 512.675781 2240.882812 562.933594 2206.453125 636.933594 2177.171875 C 733.886719 2138.390625 857.351562 2136.015625 960.242188 2170.441406 C 1131.984375 2228.21875 1260.199219 2372.65625 1289.484375 2542.417969 C 1292.648438 2561.019531 1296.605469 2600.984375 1297.792969 2631.457031 C 1299.375 2661.925781 1302.542969 2689.230469 1304.519531 2691.605469 C 1310.851562 2699.519531 1894.546875 2699.125 1902.460938 2691.210938 C 1906.417969 2686.855469 1908.792969 2669.050781 1910.375 2624.730469 C 1914.332031 2533.316406 1927.390625 2480.292969 1964.589844 2407.875 C 2026.71875 2287.574219 2135.144531 2198.933594 2266.921875 2160.550781 C 2286.707031 2155.011719 2302.933594 2149.867188 2303.722656 2149.074219 C 2304.515625 2148.28125 2283.542969 2103.171875 2257.027344 2048.5625 C 2219.433594 1971.398438 2209.542969 1947.257812 2211.519531 1939.34375 C 2212.707031 1933.804688 2247.136719 1887.898438 2287.894531 1837.246094 C 2432.730469 1656.402344 2460.429688 1623.957031 2475.863281 1616.039062 C 2491.296875 1608.125 2604.476562 1575.675781 2738.230469 1541.25 C 2781.757812 1529.773438 2822.914062 1517.109375 2830.039062 1513.152344 C 2853.386719 1498.511719 2865.257812 1479.914062 2889 1420.160156 C 2901.664062 1387.710938 2912.347656 1360.40625 2913.140625 1359.613281 C 2913.929688 1358.824219 2929.761719 1365.15625 2948.753906 1374.257812 C 3004.550781 1400.375 3023.941406 1404.726562 3080.53125 1404.332031 C 3150.179688 1403.933594 3164.425781 1398.394531 3314.40625 1314.898438 C 3382.863281 1276.515625 3482.191406 1221.507812 3535.21875 1192.226562 C 3588.246094 1162.941406 3632.960938 1136.035156 3635.335938 1132.472656 C 3639.691406 1124.164062 3634.148438 1102 3625.839844 1096.460938 C 3621.089844 1093.691406 3604.46875 1096.066406 3564.503906 1105.167969 C 3534.425781 1112.289062 3503.957031 1117.832031 3496.832031 1117.832031 C 3485.753906 1117.832031 3454.09375 1097.253906 3322.714844 1006.238281 C 3174.714844 903.746094 3026.316406 800.066406 2922.636719 727.257812 C 2877.128906 695.203125 2866.445312 692.433594 2847.449219 708.261719 Z M 1570.449219 1352.886719 C 1577.570312 1355.65625 1587.066406 1362.78125 1591.421875 1368.320312 C 1602.5 1382.566406 1742.984375 1880.382812 1742.984375 1906.5 C 1742.984375 1920.746094 1727.945312 1935.78125 1710.929688 1938.949219 C 1703.410156 1940.136719 1566.488281 1940.925781 1406.617188 1940.136719 C 1092.808594 1938.949219 1103.886719 1939.738281 1094.390625 1918.371094 C 1088.058594 1904.914062 1088.453125 1379.003906 1094.390625 1365.550781 C 1096.765625 1360.40625 1102.699219 1354.074219 1107.449219 1352.097656 C 1112.988281 1349.328125 1192.925781 1347.742188 1336.574219 1347.742188 C 1515.441406 1347.347656 1559.761719 1348.535156 1570.449219 1352.886719 Z M 1570.449219 1352.886719 "/></g><g clip-rule="nonzero" clip-path="url(#f88935768f)"><path style=" stroke:none;fill-rule:nonzero;fill:#000000;fill-opacity:1;" d="M 741.007812 2227.425781 C 653.949219 2242.859375 580.742188 2282.828125 517.425781 2349.703125 C 470.730469 2398.773438 438.675781 2452.589844 421.660156 2509.179688 C 375.753906 2664.300781 414.535156 2817.839844 529.296875 2932.203125 C 635.351562 3037.464844 781.371094 3075.847656 922.648438 3034.695312 C 1054.421875 2996.703125 1156.519531 2895.796875 1200.839844 2760.460938 C 1217.066406 2710.203125 1222.210938 2672.609375 1219.441406 2616.8125 C 1215.085938 2509.96875 1178.679688 2426.078125 1104.285156 2348.914062 C 1065.105469 2308.550781 1035.429688 2287.179688 986.753906 2263.4375 C 914.335938 2228.613281 816.195312 2214.367188 741.007812 2227.425781 Z M 862.890625 2441.113281 C 932.144531 2459.714844 991.898438 2522.632812 1006.539062 2593.070312 C 1027.117188 2692 971.320312 2790.929688 875.949219 2823.378906 C 841.128906 2835.648438 786.121094 2835.648438 749.320312 2823.777344 C 632.582031 2786.578125 577.574219 2652.035156 633.371094 2541.230469 C 646.429688 2516.300781 689.960938 2471.585938 714.101562 2459.316406 C 758.816406 2436.367188 817.78125 2428.847656 862.890625 2441.113281 Z M 862.890625 2441.113281 "/></g><path style=" stroke:none;fill-rule:nonzero;fill:#000000;fill-opacity:1;" d="M 2323.113281 2227.824219 C 2217.457031 2249.984375 2133.5625 2302.613281 2069.058594 2387.691406 C 1958.652344 2533.714844 1957.863281 2733.550781 2067.082031 2879.175781 C 2091.617188 2911.625 2141.476562 2959.507812 2174.324219 2981.667969 C 2206.773438 3003.828125 2257.425781 3027.175781 2295.808594 3037.859375 C 2322.324219 3045.378906 2336.570312 3046.566406 2397.90625 3046.566406 C 2463.992188 3046.566406 2471.511719 3045.773438 2503.960938 3035.878906 C 2591.417969 3008.972656 2659.875 2964.253906 2710.132812 2902.128906 C 2778.988281 2815.859375 2810.648438 2719.703125 2806.292969 2611.671875 C 2801.941406 2506.011719 2765.929688 2422.910156 2691.136719 2345.351562 C 2636.527344 2288.761719 2581.917969 2256.3125 2505.941406 2235.339844 C 2459.640625 2222.679688 2367.039062 2218.722656 2323.113281 2227.824219 Z M 2445.394531 2440.324219 C 2475.863281 2446.65625 2510.292969 2466.441406 2537.203125 2493.351562 C 2608.433594 2563.789062 2616.347656 2673.796875 2556.59375 2753.335938 C 2482.988281 2851.078125 2340.527344 2860.972656 2255.445312 2773.914062 C 2181.445312 2698.332031 2179.863281 2578.035156 2251.488281 2499.285156 C 2302.539062 2443.09375 2366.644531 2423.703125 2445.394531 2440.324219 Z M 2445.394531 2440.324219 "/></g></svg>