<?xml version="1.0" encoding="UTF-8"?>
<svg width="1200pt" height="1200pt" version="1.1" viewBox="200 222 804 804" xmlns="http://www.w3.org/2000/svg">
 <path d="m830.99 641.41-12.98-31.902-0.28906 0.11719 1.7031-0.90625-17.266-39.383-0.64453-4.957c1.1523-1.9609-3.6406-11.035-5.9297-11.043l-10.719 11.043c-1.1289 1.3594-3.2188 2.4844-2.125 4.4453l18.773 35.207c1.1523 1.9961 4.0234 2.0078 5.1641 0.019532l-0.86719-6.6523 6.207 15.258 2.7148-1.4414 12.285 30.195h-4.3359v3.8633l7.4961 13.965 0.16016 0.30078 0.089843 0.32812c0.13672 0.49609 0.32812 1.3125 0.51562 2.3555 0.34766 1.9141 0.53906 3.8438 0.5 5.6953-0.046875 2.1719-0.41406 4.0977-1.2188 5.7344-1.0586 2.1484-2.8438 3.75-5.0938 4.9102-0.79688 0.41406-1.6211 0.75391-2.4492 1.0312v2.9297l11.883 11.387v-52.5zm-180.48 117.49c35.594 0 64.449-28.855 64.449-64.449s-28.855-64.449-64.449-64.449-64.449 28.855-64.449 64.449 28.855 64.449 64.449 64.449zm34.27-58.062c-3.5234 18.918-21.738 31.41-40.656 27.883-18.918-3.5234-31.41-21.738-27.883-40.656 3.5234-18.918 21.742-31.41 40.656-27.883 18.918 3.5234 31.41 21.738 27.883 40.656zm-30.438-26.949c-11.375-2.1211-22.273 5.3516-24.395 16.73-2.1211 11.379 5.3516 22.273 16.73 24.395 11.379 2.1211 22.273-5.3516 24.395-16.73 2.1211-11.379-5.3516-22.273-16.73-24.395zm-298.71 85.012c35.59 0 64.445-28.855 64.445-64.449s-28.855-64.449-64.445-64.449c-35.594 0-64.453 28.855-64.453 64.449s28.859 64.449 64.453 64.449zm34.27-58.062c-3.5273 18.918-21.742 31.41-40.66 27.883-18.918-3.5234-31.41-21.738-27.883-40.656 3.5273-18.918 21.742-31.41 40.66-27.883 18.918 3.5234 31.41 21.738 27.883 40.656zm-30.438-26.949c-11.379-2.1211-22.277 5.3516-24.395 16.73-2.1211 11.379 5.3477 22.273 16.727 24.395s22.277-5.3516 24.398-16.73c2.1172-11.379-5.3555-22.273-16.73-24.395zm264.96-51.926c25.406-8.6172 47.344-3.5078 47.344-3.5078v3.957h9.8867v-71.773h-9.8867v4.2422h-104.42l-28.027-54.508h9.3516l8.7188-12.191-167.06 0.46094v12.191l22.098-0.92578-18.766 63.441h-120.53l-5.8711 9.0195h94.66l22.391 20.645h4.5508v8.0508h-10.441l-22.992-22.031-99.57 0.77344h-5.9766s-30.531 65.336 0 131.58h34.508s-1.8164-17.195-1.8164-38.234c0-21.043 35.363-60.344 70.828-58.18 35.469 2.1641 61.18 21.82 71.039 45.797 9.8633 23.977 3.8711 52.27 3.8711 52.27l142.08-1.6523s1.0391-56.016 30.578-77.336c1.7734-1.2773 3.5547-2.4648 5.3398-3.5664h-50.379l-10.012 15.945h-74.66v-45.82h100.1l-12.273 21.355zm-225.38-28.949 25.395-93.105h35.18v127.36h-31.309zm171.34-7.3633h-99.133v-85.742l56.785 0.46484zm-267.96 8.8008c0 6.5547-5.3125 11.871-11.867 11.871s-11.867-5.3164-11.867-11.871 5.3125-11.867 11.867-11.867 11.867 5.3125 11.867 11.867zm447.5 14.23v14.551l69.387 54.105s6.1562-0.84766 8.207-5.0156c2.0547-4.168 0-11.656 0-11.656l-52.977-98.699h-86.469v46.715zm88.305 15.621v79.41h19.234v-87.16zm29.191 90.914h100.09v-6.1133l-100.09-5.9219v-44.824h-9.957v56.859z"/>
</svg>
