<svg xmlns="http://www.w3.org/2000/svg" xmlns:xlink="http://www.w3.org/1999/xlink" width="5000" zoomAndPan="magnify" viewBox="-62 -62 3875 3875" height="5000" preserveAspectRatio="xMidYMid meet" version="1.2"><defs><clipPath id="76cbbbd417"><path d="M 113.796875 1036.894531 L 3375 1036.894531 L 3375 2713.144531 L 113.796875 2713.144531 Z M 113.796875 1036.894531 "/></clipPath><clipPath id="3ca7037769"><path d="M 3046 2113 L 3636.546875 2113 L 3636.546875 2711 L 3046 2711 Z M 3046 2113 "/></clipPath></defs><g id="f659708879"><g clip-rule="nonzero" clip-path="url(#76cbbbd417)"><path style=" stroke:none;fill-rule:nonzero;fill:#000000;fill-opacity:1;" d="M 933.0625 1040.378906 C 903.296875 1052.191406 891.957031 1101.324219 913.691406 1122.109375 C 919.832031 1127.78125 928.808594 1134.867188 934.007812 1137.703125 C 942.511719 1142.898438 942.984375 1150.457031 944.402344 1343.210938 C 944.875 1453.289062 943.457031 1546.359375 941.566406 1549.667969 C 939.203125 1552.972656 922.667969 1557.699219 904.714844 1560.535156 C 861.246094 1566.203125 637.765625 1579.429688 632.570312 1576.125 C 630.679688 1574.707031 628.789062 1545.414062 628.789062 1510.925781 C 628.789062 1451.398438 628.316406 1447.621094 617.449219 1437.699219 C 608 1429.195312 606.113281 1421.164062 603.75 1386.203125 C 599.96875 1333.289062 593.828125 1313.449219 575.402344 1292.1875 C 558.390625 1272.820312 537.128906 1262.425781 513.980469 1262.425781 C 493.664062 1262.425781 487.046875 1269.511719 487.046875 1290.769531 C 487.046875 1307.777344 497.914062 1323.84375 509.726562 1323.84375 C 512.5625 1323.84375 519.175781 1329.511719 524.375 1336.125 C 532.40625 1346.519531 534.296875 1355.496094 534.296875 1387.621094 C 534.296875 1422.582031 533.351562 1427.304688 522.484375 1437.226562 C 511.144531 1448.09375 510.671875 1449.984375 510.671875 1518.015625 L 510.671875 1587.460938 L 490.828125 1590.296875 C 479.488281 1591.714844 431.296875 1595.019531 383.105469 1597.855469 C 334.914062 1600.691406 284.359375 1606.359375 270.65625 1610.140625 C 239.945312 1618.644531 211.597656 1643.210938 204.511719 1667.304688 C 201.675781 1677.226562 195.0625 1731.082031 189.390625 1786.832031 C 164.351562 2049.980469 160.570312 2085.882812 158.679688 2089.664062 C 157.261719 2091.554688 149.703125 2094.386719 142.144531 2096.277344 C 116.15625 2101.945312 113.796875 2111.394531 113.796875 2200.214844 C 113.796875 2269.191406 115.214844 2282.890625 122.300781 2296.589844 C 136 2322.101562 155.847656 2330.132812 206.871094 2330.132812 L 249.867188 2330.132812 L 257.898438 2307.929688 C 303.730469 2176.121094 396.804688 2085.882812 518.703125 2054.230469 C 551.777344 2045.726562 636.820312 2044.308594 676.980469 2051.394531 C 736.042969 2062.261719 807.382812 2101.945312 856.050781 2150.136719 C 870.695312 2165.253906 895.265625 2195.960938 909.910156 2218.640625 C 924.558594 2241.316406 939.203125 2258.796875 942.039062 2257.851562 C 945.347656 2256.90625 952.433594 2247.457031 958.101562 2236.59375 C 979.363281 2195.960938 1027.554688 2140.6875 1068.1875 2109.035156 C 1090.867188 2091.554688 1141.421875 2066.515625 1174.023438 2056.59375 C 1213.238281 2044.308594 1309.148438 2042.890625 1354.035156 2053.757812 C 1419.234375 2068.875 1473.570312 2101.945312 1532.628906 2161.945312 C 1565.703125 2195.015625 1580.347656 2207.300781 1584.128906 2203.519531 C 1586.964844 2200.6875 1588.851562 2183.679688 1588.378906 2165.253906 C 1587.433594 2113.757812 1589.796875 2108.089844 1613.421875 2108.089844 C 1627.121094 2108.089844 1639.40625 2104.308594 1652.636719 2094.859375 C 1675.789062 2079.742188 1842.097656 1953.601562 1916.277344 1895.492188 C 1995.179688 1833.601562 1987.148438 1836.910156 2053.765625 1835.019531 C 2118.492188 1832.65625 2134.085938 1835.019531 2137.863281 1847.304688 C 2139.28125 1851.554688 2134.085938 1891.238281 2126.054688 1935.648438 C 2118.492188 1979.585938 2108.097656 2037.222656 2103.375 2063.207031 C 2090.617188 2136.433594 2092.980469 2134.074219 2019.746094 2138.324219 C 1941.316406 2142.578125 1915.332031 2164.308594 1909.660156 2229.976562 L 1906.828125 2266.355469 L 1882.257812 2271.550781 C 1803.355469 2289.03125 1760.832031 2350.921875 1746.1875 2468.558594 C 1743.351562 2489.347656 1742.40625 2490.761719 1729.175781 2490.761719 C 1705.082031 2490.761719 1696.578125 2504.9375 1696.578125 2543.675781 C 1697.050781 2644.777344 1719.726562 2692.496094 1774.535156 2707.613281 C 1794.851562 2713.28125 2548.914062 2715.171875 2563.089844 2709.976562 C 2574.429688 2705.722656 2572.066406 2687.296875 2558.363281 2674.542969 C 2540.882812 2658.953125 2506.867188 2605.566406 2495.054688 2576.273438 C 2489.855469 2563.046875 2484.1875 2539.898438 2482.769531 2524.777344 C 2480.878906 2509.1875 2476.628906 2495.488281 2472.375 2492.179688 C 2466.707031 2487.457031 2418.039062 2486.039062 2266.851562 2486.039062 L 2068.410156 2486.039062 L 2071.246094 2460.527344 C 2075.5 2418.480469 2099.59375 2380.214844 2135.503906 2359.425781 L 2157.238281 2346.671875 L 2303.703125 2343.835938 C 2443.554688 2341.472656 2451.113281 2341 2472.375 2330.605469 C 2498.359375 2317.851562 2508.28125 2304.625 2512.0625 2276.277344 L 2514.898438 2255.488281 L 2551.277344 2252.65625 C 2571.121094 2251.238281 2681.679688 2247.457031 2797.4375 2244.625 C 2913.191406 2241.789062 3010.046875 2238.007812 3012.882812 2236.59375 C 3015.71875 2234.703125 3030.835938 2218.167969 3046.429688 2200.214844 C 3136.199219 2095.332031 3202.816406 2056.121094 3310.066406 2046.199219 C 3347.867188 2042.421875 3363.457031 2039.113281 3368.183594 2033.445312 C 3378.105469 2020.6875 3375.742188 1930.453125 3364.402344 1906.359375 C 3355.898438 1886.515625 3354.007812 1885.570312 3200.453125 1809.980469 C 3011.464844 1716.910156 2936.34375 1681.949219 2898.070312 1669.195312 C 2869.25 1659.746094 2860.746094 1659.273438 2561.671875 1659.273438 C 2262.597656 1659.273438 2254.09375 1658.800781 2249.367188 1650.296875 C 2246.535156 1644.628906 2244.644531 1587.933594 2244.644531 1499.117188 C 2244.644531 1360.21875 2244.644531 1356.914062 2234.722656 1347.9375 C 2215.824219 1330.457031 2186.53125 1329.984375 2168.101562 1346.519531 C 2160.542969 1353.132812 2159.597656 1366.363281 2159.597656 1496.28125 C 2159.597656 1611.558594 2158.179688 1640.375 2152.984375 1647.933594 C 2146.371094 1656.4375 2137.390625 1656.910156 1986.203125 1659.273438 C 1898.320312 1660.691406 1825.5625 1662.578125 1824.617188 1663.050781 C 1823.671875 1663.523438 1807.605469 1679.117188 1788.707031 1697.539062 C 1762.25 1722.578125 1751.382812 1730.609375 1742.878906 1729.195312 C 1727.285156 1727.304688 1726.816406 1712.660156 1741.460938 1652.660156 C 1748.074219 1624.785156 1753.273438 1595.492188 1753.273438 1587.460938 C 1753.273438 1579.429688 1735.320312 1483.527344 1713.585938 1373.921875 C 1691.851562 1264.789062 1672.953125 1167.9375 1672.007812 1158.960938 C 1670.589844 1143.371094 1671.0625 1142.898438 1694.214844 1137.230469 C 1727.285156 1128.726562 1740.042969 1112.664062 1738.152344 1081.480469 C 1737.207031 1062.113281 1734.375 1055.96875 1723.507812 1047.9375 C 1710.277344 1038.015625 1707.914062 1038.015625 1326.632812 1037.070312 C 1115.4375 1036.601562 938.257812 1038.015625 933.0625 1040.378906 Z M 1580.347656 1177.386719 C 1590.269531 1187.308594 1595.46875 1204.789062 1611.53125 1281.324219 C 1621.925781 1331.875 1635.628906 1398.015625 1641.769531 1427.777344 C 1648.382812 1457.542969 1658.304688 1505.730469 1663.976562 1535.023438 L 1674.371094 1587.933594 L 1639.878906 1728.25 C 1616.257812 1824.152344 1602.554688 1871.398438 1596.886719 1877.066406 C 1588.378906 1885.570312 1577.984375 1886.042969 1447.109375 1886.042969 C 1311.984375 1886.042969 1305.84375 1885.570312 1295.921875 1876.59375 L 1285.527344 1866.671875 L 1285.527344 1186.363281 L 1297.335938 1174.550781 L 1309.148438 1162.742188 L 1439.078125 1164.15625 L 1569.007812 1165.574219 Z M 1211.347656 1371.085938 C 1214.65625 1562.421875 1214.183594 1572.34375 1205.679688 1583.683594 C 1197.171875 1595.019531 1195.757812 1595.492188 1126.773438 1596.910156 C 1059.683594 1598.328125 1055.90625 1597.855469 1048.34375 1587.933594 C 1040.3125 1578.957031 1039.839844 1561.949219 1039.839844 1385.257812 C 1039.839844 1197.230469 1039.839844 1192.503906 1049.761719 1180.222656 L 1059.683594 1167.9375 L 1133.390625 1168.882812 L 1207.566406 1170.300781 Z M 2830.507812 1845.414062 C 2860.746094 1858.167969 3054.460938 1974.863281 3076.195312 1993.757812 C 3098.398438 2012.183594 3106.90625 2037.695312 3102.652344 2072.183594 C 3098.871094 2103.835938 3090.839844 2111.394531 3055.878906 2114.703125 C 2980.28125 2122.261719 2615.535156 2131.710938 2415.679688 2131.710938 C 2220.546875 2131.710938 2193.144531 2130.765625 2187.945312 2124.152344 C 2182.75 2118.484375 2183.222656 2109.035156 2189.835938 2071.238281 C 2194.5625 2046.199219 2204.484375 1990.453125 2212.042969 1947.460938 C 2228.105469 1856.28125 2231.886719 1845.414062 2248.894531 1839.273438 C 2256.457031 1836.4375 2363.707031 1835.019531 2535.214844 1835.492188 C 2793.183594 1836.4375 2810.664062 1836.910156 2830.507812 1845.414062 Z M 2830.507812 1845.414062 "/></g><path style=" stroke:none;fill-rule:nonzero;fill:#000000;fill-opacity:1;" d="M 534.296875 2119.898438 C 431.769531 2147.773438 343.417969 2238.480469 319.320312 2340.054688 C 310.34375 2378.796875 310.34375 2443.046875 319.320312 2486.511719 C 339.164062 2581.472656 421.375 2668.871094 518.230469 2699.109375 C 573.511719 2716.117188 644.855469 2715.644531 697.296875 2697.21875 C 788.484375 2666.039062 856.519531 2595.644531 889.121094 2497.851562 C 905.1875 2450.132812 904.242188 2376.433594 887.230469 2323.046875 C 856.992188 2230.449219 792.265625 2163.363281 699.660156 2129.347656 C 655.25 2112.8125 576.34375 2108.5625 534.296875 2119.898438 Z M 631.152344 2255.015625 C 682.179688 2264.464844 720.449219 2291.867188 744.546875 2335.804688 C 756.359375 2357.0625 758.71875 2367.457031 760.136719 2403.835938 C 762.027344 2443.046875 761.082031 2449.660156 749.269531 2476.117188 C 721.867188 2536.589844 654.304688 2576.273438 591.9375 2569.1875 C 518.703125 2560.683594 463.898438 2509.660156 449.25 2436.90625 C 436.964844 2375.488281 471.929688 2300.84375 526.734375 2272.023438 C 541.855469 2264.464844 578.234375 2253.601562 600.914062 2250.292969 C 602.332031 2249.820312 616.035156 2252.183594 631.152344 2255.015625 Z M 631.152344 2255.015625 "/><path style=" stroke:none;fill-rule:nonzero;fill:#000000;fill-opacity:1;" d="M 569.730469 2322.574219 C 529.570312 2337.695312 506.890625 2379.269531 513.035156 2428.402344 C 515.871094 2449.660156 519.648438 2457.691406 535.242188 2474.699219 C 582.015625 2525.722656 658.554688 2515.804688 688.320312 2454.859375 C 699.1875 2432.652344 700.605469 2425.09375 698.242188 2402.417969 C 691.628906 2339.582031 629.261719 2300.84375 569.730469 2322.574219 Z M 569.730469 2322.574219 "/><path style=" stroke:none;fill-rule:nonzero;fill:#000000;fill-opacity:1;" d="M 1200.480469 2119.898438 C 1086.617188 2152.027344 1000.625 2248.402344 980.78125 2366.511719 C 955.742188 2512.96875 1041.257812 2649.503906 1188.667969 2699.109375 C 1216.074219 2708.558594 1231.191406 2710.445312 1276.078125 2710.445312 C 1322.851562 2709.976562 1335.609375 2708.085938 1368.207031 2696.746094 C 1443.332031 2670.761719 1501.445312 2620.210938 1535.9375 2549.816406 C 1563.339844 2494.542969 1570.425781 2461 1568.0625 2401 C 1561.921875 2273.914062 1489.160156 2175.175781 1368.679688 2130.292969 C 1336.554688 2118.484375 1321.90625 2116.121094 1278.4375 2114.703125 C 1241.585938 2113.285156 1218.90625 2115.175781 1200.480469 2119.898438 Z M 1345.058594 2269.191406 C 1372.933594 2282.417969 1410.257812 2323.992188 1419.707031 2352.339844 C 1431.992188 2389.660156 1433.882812 2415.644531 1425.378906 2447.300781 C 1416.402344 2483.203125 1401.753906 2506.828125 1372.933594 2532.339844 C 1323.796875 2575.328125 1262.375 2582.417969 1202.371094 2552.179688 C 1065.828125 2482.730469 1099.371094 2274.386719 1249.617188 2255.015625 C 1280.328125 2251.238281 1318.125 2256.90625 1345.058594 2269.191406 Z M 1345.058594 2269.191406 "/><path style=" stroke:none;fill-rule:nonzero;fill:#000000;fill-opacity:1;" d="M 1236.859375 2322.574219 C 1199.0625 2336.277344 1180.164062 2365.09375 1180.164062 2409.976562 C 1179.691406 2445.410156 1187.25 2463.835938 1209.457031 2482.730469 C 1229.773438 2499.738281 1254.34375 2506.355469 1284.109375 2503.519531 C 1316.710938 2500.210938 1338.441406 2485.566406 1354.035156 2457.21875 C 1397.027344 2378.324219 1321.90625 2292.339844 1236.859375 2322.574219 Z M 1236.859375 2322.574219 "/><g clip-rule="nonzero" clip-path="url(#3ca7037769)"><path style=" stroke:none;fill-rule:nonzero;fill:#000000;fill-opacity:1;" d="M 3269.90625 2120.371094 C 3152.261719 2151.082031 3060.128906 2257.378906 3047.847656 2375.015625 C 3037.453125 2476.589844 3071.46875 2569.660156 3141.867188 2633.441406 C 3175.886719 2663.675781 3206.125 2681.15625 3253.371094 2697.21875 C 3285.5 2708.558594 3298.726562 2710.445312 3343.140625 2710.445312 C 3388.027344 2710.445312 3400.78125 2708.558594 3433.855469 2697.21875 C 3537.328125 2661.785156 3612.921875 2572.96875 3632.292969 2464.78125 C 3650.71875 2359.425781 3608.667969 2242.734375 3528.820312 2178.953125 C 3499.054688 2155.332031 3446.613281 2129.347656 3409.285156 2119.898438 C 3374.324219 2110.921875 3304.398438 2111.394531 3269.90625 2120.371094 Z M 3407.871094 2267.300781 C 3438.109375 2280.527344 3465.984375 2307.929688 3483.464844 2340.527344 C 3492.914062 2358.007812 3494.332031 2367.929688 3494.332031 2408.085938 C 3494.332031 2450.132812 3492.914062 2458.164062 3481.101562 2482.257812 C 3454.171875 2536.589844 3401.253906 2568.714844 3338.414062 2568.242188 C 3215.574219 2567.769531 3141.394531 2429.820312 3208.015625 2326.355469 C 3252.898438 2257.378906 3332.273438 2234.230469 3407.871094 2267.300781 Z M 3407.871094 2267.300781 "/></g><path style=" stroke:none;fill-rule:nonzero;fill:#000000;fill-opacity:1;" d="M 3300.144531 2324.9375 C 3247.230469 2349.03125 3230.691406 2426.984375 3268.488281 2471.867188 C 3305.816406 2516.273438 3375.269531 2515.332031 3414.957031 2470.449219 C 3432.4375 2450.605469 3437.636719 2428.875 3433.855469 2394.859375 C 3426.769531 2334.859375 3357.316406 2298.953125 3300.144531 2324.9375 Z M 3300.144531 2324.9375 "/></g></svg>