<svg xmlns="http://www.w3.org/2000/svg" xmlns:xlink="http://www.w3.org/1999/xlink" width="5000" zoomAndPan="magnify" viewBox="177 177 3396 3396" height="5000" preserveAspectRatio="xMidYMid meet" version="1.2"><defs><clipPath id="fd414d12c5"><path d="M 331.570312 1396 L 2636 1396 L 2636 2663 L 331.570312 2663 Z M 331.570312 1396 "/></clipPath><clipPath id="c3b84bf2ee"><path d="M 2595 2180 L 3418.570312 2180 L 3418.570312 2883 L 2595 2883 Z M 2595 2180 "/></clipPath></defs><g id="a2dbea91ff"><path style=" stroke:none;fill-rule:nonzero;fill:#000000;fill-opacity:1;" d="M 1149.152344 847.335938 C 1114.058594 851.238281 1076.796875 865.535156 1050.800781 885.035156 C 1029.140625 901.5 1008.34375 936.164062 994.042969 979.929688 C 981.480469 1018.496094 952.449219 1115.121094 945.953125 1140.253906 C 944.21875 1147.1875 929.488281 1197.882812 913.457031 1252.914062 C 897.425781 1307.511719 881.828125 1362.109375 878.363281 1374.242188 C 875.332031 1385.941406 871.429688 1399.804688 870.132812 1405.003906 C 865.367188 1421.039062 863.632812 1420.171875 1034.769531 1465.667969 C 1058.601562 1471.734375 1093.695312 1481.699219 1112.757812 1486.902344 C 1131.820312 1492.101562 1150.019531 1495.566406 1153.050781 1494.699219 C 1156.953125 1492.96875 1158.25 1444.003906 1158.25 1269.378906 C 1158.25 1019.792969 1157.816406 1024.5625 1187.714844 1009.394531 C 1202.878906 1002.027344 1221.941406 1001.59375 1504.863281 1001.59375 L 1805.980469 1001.59375 L 1830.242188 1011.5625 C 1862.738281 1024.5625 1890.03125 1049.257812 1906.496094 1080.457031 C 1921.660156 1108.621094 1924.261719 1118.15625 1940.292969 1192.25 C 1946.789062 1220.847656 1956.320312 1264.613281 1961.953125 1289.746094 C 1971.484375 1332.210938 1976.253906 1354.308594 2005.28125 1486.902344 C 2011.347656 1515.5 2020.011719 1555.363281 2024.777344 1575.730469 C 2043.839844 1660.222656 2059.4375 1735.621094 2059.4375 1742.121094 C 2059.4375 1746.019531 2064.636719 1751.21875 2071.136719 1753.820312 C 2095.832031 1762.917969 2255.273438 1805.816406 2257.441406 1803.648438 C 2258.738281 1802.347656 2257.441406 1791.082031 2254.40625 1778.515625 C 2251.808594 1765.949219 2243.574219 1729.988281 2236.644531 1699.222656 C 2229.277344 1668.023438 2218.878906 1621.226562 2212.8125 1595.226562 C 2206.746094 1568.796875 2198.082031 1531.964844 2193.75 1512.898438 C 2188.984375 1493.832031 2181.183594 1459.601562 2176.417969 1437.070312 C 2171.652344 1414.539062 2161.6875 1370.339844 2154.324219 1339.574219 C 2136.992188 1264.613281 2123.128906 1203.515625 2109.265625 1140.253906 C 2103.199219 1111.65625 2094.097656 1071.792969 2089.332031 1051.425781 L 2080.667969 1014.160156 L 2131.359375 964.765625 C 2188.984375 908 2197.214844 894.570312 2187.683594 872.035156 C 2184.21875 863.804688 2177.285156 854.703125 2172.085938 852.105469 C 2160.820312 846.039062 1203.308594 841.703125 1149.152344 847.335938 Z M 1149.152344 847.335938 "/><path style=" stroke:none;fill-rule:nonzero;fill:#000000;fill-opacity:1;" d="M 584.175781 1079.589844 C 565.113281 1098.222656 571.613281 1118.589844 607.140625 1151.519531 C 620.570312 1164.519531 629.671875 1176.652344 631.402344 1186.183594 C 633.570312 1194.417969 636.167969 1236.449219 637.902344 1280.210938 C 639.636719 1323.542969 643.101562 1360.808594 645.269531 1362.972656 C 650.898438 1368.609375 724.988281 1382.472656 728.453125 1378.574219 C 730.1875 1376.839844 731.488281 1331.34375 731.488281 1277.613281 C 731.488281 1157.585938 727.585938 1140.253906 692.492188 1105.15625 C 657.398438 1069.625 605.839844 1057.492188 584.175781 1079.589844 Z M 584.175781 1079.589844 "/><g clip-rule="nonzero" clip-path="url(#fd414d12c5)"><path style=" stroke:none;fill-rule:nonzero;fill:#000000;fill-opacity:1;" d="M 518.320312 1398.503906 C 461.128906 1408.90625 414.773438 1460.902344 404.375 1526.765625 C 401.773438 1540.632812 395.273438 1612.125 389.210938 1686.222656 C 376.210938 1850.011719 360.179688 2052.800781 345.882812 2232.191406 C 331.152344 2421.113281 328.550781 2480.910156 334.617188 2499.976562 C 341.984375 2521.207031 364.078125 2539.839844 394.410156 2548.9375 C 503.589844 2581.003906 571.179688 2596.167969 591.976562 2592.269531 L 606.707031 2589.671875 L 609.308594 2516.875 C 611.90625 2437.578125 620.570312 2394.679688 647.433594 2335.316406 C 685.128906 2250.824219 766.582031 2165.027344 847.601562 2123.429688 C 903.058594 2094.832031 987.546875 2074.035156 1046.035156 2074.035156 C 1105.394531 2074.035156 1193.34375 2095.265625 1247.070312 2122.996094 C 1333.289062 2166.761719 1414.742188 2254.289062 1454.167969 2344.851562 C 1482.765625 2410.714844 1489.699219 2447.542969 1489.699219 2536.375 L 1489.699219 2615.667969 L 1581.550781 2615.667969 C 1631.808594 2615.667969 1674.265625 2613.933594 1675.566406 2611.769531 C 1676.867188 2610.035156 1676.433594 2588.371094 1674.699219 2564.105469 C 1669.933594 2499.542969 1676 2435.84375 1692.03125 2386.449219 C 1744.457031 2221.792969 1874.867188 2107.398438 2039.941406 2080.53125 C 2186.382812 2056.699219 2327.195312 2104.796875 2430.746094 2214.425781 C 2488.800781 2275.953125 2525.628906 2343.984375 2545.558594 2426.746094 C 2557.257812 2474.410156 2558.992188 2558.472656 2549.460938 2616.96875 C 2543.828125 2650.332031 2543.828125 2655.964844 2549.460938 2659.433594 C 2561.589844 2666.796875 2558.992188 2675.03125 2590.617188 2531.171875 C 2596.683594 2504.742188 2605.785156 2464.011719 2611.414062 2440.179688 C 2633.511719 2349.183594 2635.679688 2338.351562 2635.679688 2331.851562 C 2635.679688 2321.453125 2619.214844 2290.6875 2563.324219 2195.359375 C 2534.726562 2146.394531 2494.433594 2077.066406 2473.636719 2041.535156 C 2452.40625 2005.570312 2428.144531 1963.972656 2419.046875 1948.375 C 2391.316406 1901.144531 2394.785156 1902.875 2243.574219 1862.144531 C 2192.882812 1848.28125 2170.789062 1842.214844 2094.097656 1820.546875 C 2073.734375 1814.914062 2037.773438 1805.382812 2013.945312 1798.882812 C 1990.117188 1792.382812 1958.921875 1783.714844 1944.625 1779.382812 C 1930.324219 1775.484375 1899.996094 1766.816406 1877.46875 1760.75 C 1823.308594 1746.019531 1765.253906 1729.988281 1716.292969 1716.121094 C 1658.671875 1700.089844 1608.410156 1686.65625 1559.019531 1673.222656 C 1499.664062 1657.191406 1384.847656 1625.558594 1340.222656 1612.558594 C 1319.859375 1606.925781 1286.0625 1597.394531 1264.402344 1591.328125 C 1243.171875 1585.695312 1214.574219 1577.894531 1201.578125 1573.996094 C 1188.578125 1570.527344 1166.917969 1564.460938 1153.917969 1560.996094 C 1140.921875 1557.53125 1103.660156 1547.5625 1071.597656 1538.898438 C 1015.273438 1523.730469 954.617188 1507.699219 909.125 1495.566406 C 897.425781 1492.535156 861.03125 1483 828.972656 1473.902344 C 748.382812 1451.800781 715.023438 1442.703125 679.496094 1433.171875 C 663.03125 1428.835938 627.9375 1419.304688 601.507812 1411.9375 C 537.386719 1394.605469 539.117188 1395.039062 518.320312 1398.503906 Z M 931.65625 1692.722656 C 1138.320312 1757.285156 1182.082031 1771.152344 1199.410156 1777.21875 C 1217.609375 1783.714844 1264.832031 1798.882812 1470.199219 1863.878906 C 1664.734375 1925.410156 1718.027344 1942.742188 1731.023438 1947.941406 C 1752.253906 1956.171875 1758.753906 1984.773438 1743.15625 2000.371094 C 1734.492188 2009.035156 1730.589844 2009.035156 1351.917969 2008.171875 L 969.347656 2006.871094 L 943.785156 1993.871094 C 912.15625 1977.40625 902.191406 1963.539062 884.863281 1909.808594 C 839.371094 1767.25 811.640625 1676.691406 811.640625 1670.625 C 811.640625 1664.558594 815.105469 1658.058594 818.574219 1658.058594 C 819.4375 1658.058594 870.132812 1673.65625 931.65625 1692.722656 Z M 931.65625 1692.722656 "/></g><path style=" stroke:none;fill-rule:nonzero;fill:#000000;fill-opacity:1;" d="M 913.023438 1759.453125 C 910.425781 1766.382812 950.285156 1887.710938 963.714844 1914.574219 C 968.914062 1924.109375 979.3125 1934.941406 990.578125 1941.875 L 1009.640625 1952.707031 L 1249.667969 1952.273438 C 1467.167969 1952.273438 1520.460938 1950.105469 1500.527344 1942.742188 C 1497.0625 1941.007812 1459.800781 1929.308594 1417.777344 1916.308594 C 1315.09375 1884.246094 1243.605469 1860.84375 1069.433594 1802.78125 C 988.410156 1775.484375 920.824219 1753.386719 918.65625 1753.386719 C 916.921875 1753.386719 914.324219 1755.984375 913.023438 1759.453125 Z M 913.023438 1759.453125 "/><path style=" stroke:none;fill-rule:nonzero;fill:#000000;fill-opacity:1;" d="M 981.046875 2147.695312 C 968.480469 2149.429688 943.351562 2156.363281 925.589844 2163.292969 C 830.269531 2197.527344 757.050781 2262.523438 714.589844 2349.183594 C 685.5625 2408.546875 676.894531 2443.210938 674.296875 2512.109375 C 672.128906 2566.269531 672.996094 2574.9375 683.394531 2616.101562 C 704.191406 2696.695312 737.984375 2755.195312 794.308594 2807.191406 C 834.171875 2844.457031 863.632812 2863.085938 913.457031 2882.585938 C 961.984375 2902.085938 1000.976562 2907.71875 1071.597656 2905.117188 C 1120.558594 2902.953125 1135.722656 2900.785156 1164.75 2890.820312 C 1262.667969 2857.453125 1339.789062 2791.589844 1382.679688 2705.363281 C 1416.910156 2636.035156 1429.039062 2578.835938 1425.574219 2505.609375 C 1417.777344 2346.152344 1315.09375 2211.390625 1161.71875 2160.261719 C 1126.621094 2148.5625 1114.925781 2146.828125 1062.933594 2145.527344 C 1030.871094 2144.664062 994.042969 2145.527344 981.046875 2147.695312 Z M 1107.125 2329.25 C 1143.519531 2341.816406 1157.816406 2350.484375 1185.546875 2376.480469 C 1241.4375 2430.210938 1261.800781 2503.441406 1241.4375 2577.105469 C 1206.777344 2701.464844 1064.667969 2762.992188 954.617188 2701.03125 C 842.402344 2637.765625 815.539062 2490.007812 897.859375 2391.214844 C 946.820312 2332.71875 1038.238281 2305.417969 1107.125 2329.25 Z M 1107.125 2329.25 "/><path style=" stroke:none;fill-rule:nonzero;fill:#000000;fill-opacity:1;" d="M 2041.242188 2147.695312 C 1931.625 2167.628906 1829.375 2244.757812 1779.117188 2344.851562 C 1706.328125 2489.140625 1730.160156 2668.964844 1836.742188 2784.226562 C 1887.867188 2839.253906 1938.992188 2872.1875 2007.445312 2893.851562 C 2036.042969 2902.519531 2048.605469 2903.820312 2113.597656 2903.820312 C 2178.585938 2903.820312 2191.152344 2902.519531 2219.746094 2893.851562 C 2354.058594 2851.820312 2450.675781 2747.828125 2482.738281 2611.335938 C 2494 2564.539062 2492.703125 2482.210938 2480.570312 2433.679688 C 2454.574219 2329.25 2377.886719 2232.625 2283.867188 2184.09375 C 2225.8125 2154.628906 2194.183594 2146.828125 2124.429688 2145.097656 C 2089.765625 2144.230469 2052.507812 2145.527344 2041.242188 2147.695312 Z M 2172.953125 2330.117188 C 2228.410156 2348.75 2266.105469 2382.546875 2292.96875 2438.011719 C 2308.132812 2470.078125 2308.566406 2471.375 2308.566406 2524.671875 C 2308.566406 2576.671875 2308.132812 2580.136719 2294.699219 2608.300781 C 2266.972656 2666.796875 2213.246094 2708.394531 2149.125 2721.828125 C 2063.335938 2739.160156 1970.621094 2691.0625 1933.792969 2610.035156 C 1889.597656 2512.542969 1922.527344 2402.914062 2013.078125 2347.449219 C 2056.839844 2320.585938 2123.5625 2313.21875 2172.953125 2330.117188 Z M 2172.953125 2330.117188 "/><g clip-rule="nonzero" clip-path="url(#c3b84bf2ee)"><path style=" stroke:none;fill-rule:nonzero;fill:#000000;fill-opacity:1;" d="M 2750.058594 2184.527344 C 2743.128906 2187.558594 2734.894531 2192.757812 2732.296875 2196.226562 C 2724.496094 2205.324219 2714.097656 2236.089844 2707.167969 2269.023438 C 2701.101562 2299.785156 2692.871094 2334.453125 2655.175781 2490.007812 C 2630.914062 2591.402344 2625.28125 2614.800781 2603.617188 2713.164062 C 2586.71875 2788.558594 2586.285156 2788.125 2694.167969 2850.519531 L 2741.828125 2877.820312 L 2837.144531 2880.417969 C 2889.570312 2881.71875 3035.582031 2882.585938 3161.226562 2882.585938 L 3390.421875 2882.152344 L 3405.585938 2865.6875 C 3417.71875 2852.253906 3419.886719 2846.621094 3417.71875 2837.523438 C 3413.820312 2821.488281 3403.421875 2810.65625 3383.058594 2801.558594 C 3356.628906 2789.859375 3357.929688 2791.160156 3222.316406 2607.003906 C 3205.417969 2584.46875 3155.160156 2515.140625 3110.101562 2453.179688 C 3065.042969 2391.214844 3018.25 2326.652344 3006.117188 2310.1875 C 2993.988281 2293.289062 2977.089844 2269.886719 2969.292969 2258.1875 C 2938.097656 2213.125 2917.300781 2191.460938 2900.835938 2187.125 C 2874.40625 2180.628906 2763.925781 2178.460938 2750.058594 2184.527344 Z M 2750.058594 2184.527344 "/></g></g></svg>